STARTFONT 2.1
COMMENT
COMMENT Converted from OpenType font "gulim.ttc" by "otf2bdf 3.0".
COMMENT
FONT -FreeType-Gulim-Medium-R-Normal--14-100-100-100-P-124-ISO10646-1
SIZE 10 100 100
FONTBOUNDINGBOX 14 14 0 -2
STARTPROPERTIES 19
FOUNDRY "FreeType"
FAMILY_NAME "Gulim"
WEIGHT_NAME "Medium"
SLANT "R"
SETWIDTH_NAME "Normal"
ADD_STYLE_NAME ""
PIXEL_SIZE 14
POINT_SIZE 100
RESOLUTION_X 100
RESOLUTION_Y 100
SPACING "P"
AVERAGE_WIDTH 124
CHARSET_REGISTRY "ISO10646"
CHARSET_ENCODING "1"
FONT_ASCENT 12
FONT_DESCENT 1
COPYRIGHT "© 2009 HanYang I&C Co., LTD."
_OTF_FONTFILE "gulim.ttc"
_OTF_PSNAME "Gulim"
ENDPROPERTIES
CHARS 20606
STARTCHAR 0000
ENCODING 0
SWIDTH 504 0
DWIDTH 7 0
BBX 0 0 0 -2
BITMAP
ENDCHAR
STARTCHAR 0001
ENCODING 1
SWIDTH 504 0
DWIDTH 7 0
BBX 4 8 3 4
BITMAP
F0
80
80
80
80
80
80
80
ENDCHAR
STARTCHAR 0002
ENCODING 2
SWIDTH 504 0
DWIDTH 7 0
BBX 4 8 0 4
BITMAP
F0
10
10
10
10
10
10
10
ENDCHAR
STARTCHAR 0003
ENCODING 3
SWIDTH 504 0
DWIDTH 7 0
BBX 4 7 3 -2
BITMAP
80
80
80
80
80
80
F0
ENDCHAR
STARTCHAR 0004
ENCODING 4
SWIDTH 504 0
DWIDTH 7 0
BBX 4 7 0 -2
BITMAP
10
10
10
10
10
10
F0
ENDCHAR
STARTCHAR 0005
ENCODING 5
SWIDTH 504 0
DWIDTH 7 0
BBX 1 14 3 -2
BITMAP
80
80
80
80
80
80
80
80
80
80
80
80
80
80
ENDCHAR
STARTCHAR 0006
ENCODING 6
SWIDTH 504 0
DWIDTH 7 0
BBX 7 1 0 4
BITMAP
FE
ENDCHAR
STARTCHAR 0007
ENCODING 7
SWIDTH 504 0
DWIDTH 7 0
BBX 5 5 1 2
BITMAP
70
F8
F8
F8
70
ENDCHAR
STARTCHAR 0008
ENCODING 8
SWIDTH 504 0
DWIDTH 7 0
BBX 7 14 0 -2
BITMAP
FE
FE
FE
FE
C6
82
82
82
C6
FE
FE
FE
FE
FE
ENDCHAR
STARTCHAR 000B
ENCODING 11
SWIDTH 504 0
DWIDTH 7 0
BBX 6 10 1 0
BITMAP
3C
0C
14
14
20
20
60
90
90
60
ENDCHAR
STARTCHAR 000C
ENCODING 12
SWIDTH 504 0
DWIDTH 7 0
BBX 5 10 1 0
BITMAP
70
88
88
70
20
F8
20
20
20
20
ENDCHAR
STARTCHAR 000E
ENCODING 14
SWIDTH 504 0
DWIDTH 7 0
BBX 6 10 1 0
BITMAP
0C
74
4C
74
44
44
44
4C
CC
C0
ENDCHAR
STARTCHAR 000F
ENCODING 15
SWIDTH 504 0
DWIDTH 7 0
BBX 5 9 1 0
BITMAP
A8
A8
50
50
D8
50
50
A8
A8
ENDCHAR
STARTCHAR 0010
ENCODING 16
SWIDTH 504 0
DWIDTH 7 0
BBX 7 14 0 -2
BITMAP
10
10
10
10
10
10
FE
10
10
10
10
10
10
10
ENDCHAR
STARTCHAR 0011
ENCODING 17
SWIDTH 504 0
DWIDTH 7 0
BBX 6 11 1 -1
BITMAP
04
0C
1C
3C
7C
FC
7C
3C
1C
0C
04
ENDCHAR
STARTCHAR 0012
ENCODING 18
SWIDTH 504 0
DWIDTH 7 0
BBX 5 13 1 -2
BITMAP
20
70
A8
20
20
20
20
20
20
20
A8
70
20
ENDCHAR
STARTCHAR 0013
ENCODING 19
SWIDTH 504 0
DWIDTH 7 0
BBX 4 12 2 -1
BITMAP
90
90
90
90
90
90
90
90
00
00
90
90
ENDCHAR
STARTCHAR 0014
ENCODING 20
SWIDTH 504 0
DWIDTH 7 0
BBX 5 12 1 -1
BITMAP
68
A8
A8
A8
A8
A8
68
28
28
28
28
28
ENDCHAR
STARTCHAR 0015
ENCODING 21
SWIDTH 504 0
DWIDTH 7 0
BBX 7 7 0 -2
BITMAP
10
10
10
10
10
10
FE
ENDCHAR
STARTCHAR 0016
ENCODING 22
SWIDTH 504 0
DWIDTH 7 0
BBX 7 8 0 4
BITMAP
FE
10
10
10
10
10
10
10
ENDCHAR
STARTCHAR 0017
ENCODING 23
SWIDTH 504 0
DWIDTH 7 0
BBX 4 14 0 -2
BITMAP
10
10
10
10
10
10
F0
10
10
10
10
10
10
10
ENDCHAR
STARTCHAR 0018
ENCODING 24
SWIDTH 504 0
DWIDTH 7 0
BBX 5 12 1 -1
BITMAP
20
70
A8
20
20
20
20
20
20
20
20
20
ENDCHAR
STARTCHAR 0019
ENCODING 25
SWIDTH 504 0
DWIDTH 7 0
BBX 4 14 3 -2
BITMAP
80
80
80
80
80
80
F0
80
80
80
80
80
80
80
ENDCHAR
STARTCHAR 001A
ENCODING 26
SWIDTH 504 0
DWIDTH 7 0
BBX 6 5 1 3
BITMAP
10
08
FC
08
10
ENDCHAR
STARTCHAR 001B
ENCODING 27
SWIDTH 504 0
DWIDTH 7 0
BBX 6 5 1 3
BITMAP
20
40
FC
40
20
ENDCHAR
STARTCHAR 001C
ENCODING 28
SWIDTH 504 0
DWIDTH 7 0
BBX 6 7 1 0
BITMAP
80
80
80
80
80
80
FC
ENDCHAR
STARTCHAR 001D
ENCODING 29
SWIDTH 504 0
DWIDTH 7 0
BBX 6 3 1 4
BITMAP
48
FC
48
ENDCHAR
STARTCHAR 001E
ENCODING 30
SWIDTH 504 0
DWIDTH 7 0
BBX 5 11 1 -1
BITMAP
20
20
20
70
70
70
F8
F8
F8
F8
F8
ENDCHAR
STARTCHAR 001F
ENCODING 31
SWIDTH 504 0
DWIDTH 7 0
BBX 5 11 1 0
BITMAP
F8
F8
F8
F8
F8
70
70
70
20
20
20
ENDCHAR
STARTCHAR 0020
ENCODING 32
SWIDTH 360 0
DWIDTH 5 0
BBX 0 0 0 0
BITMAP
ENDCHAR
STARTCHAR 0021
ENCODING 33
SWIDTH 360 0
DWIDTH 5 0
BBX 1 11 2 0
BITMAP
80
80
80
80
80
80
80
00
00
80
80
ENDCHAR
STARTCHAR 0022
ENCODING 34
SWIDTH 360 0
DWIDTH 5 0
BBX 3 3 1 8
BITMAP
A0
A0
A0
ENDCHAR
STARTCHAR 0023
ENCODING 35
SWIDTH 576 0
DWIDTH 8 0
BBX 8 11 0 0
BITMAP
12
12
12
7F
24
24
24
FE
48
48
48
ENDCHAR
STARTCHAR 0024
ENCODING 36
SWIDTH 648 0
DWIDTH 9 0
BBX 7 12 1 0
BITMAP
10
7C
92
92
90
70
1C
12
92
92
7C
10
ENDCHAR
STARTCHAR 0025
ENCODING 37
SWIDTH 792 0
DWIDTH 11 0
BBX 9 10 1 0
BITMAP
6200
9200
9400
6400
0800
0800
1300
1480
2480
2300
ENDCHAR
STARTCHAR 0026
ENCODING 38
SWIDTH 648 0
DWIDTH 9 0
BBX 8 11 1 0
BITMAP
30
48
48
48
30
62
92
8A
84
8A
71
ENDCHAR
STARTCHAR 0027
ENCODING 39
SWIDTH 360 0
DWIDTH 5 0
BBX 1 3 2 8
BITMAP
80
80
80
ENDCHAR
STARTCHAR 0028
ENCODING 40
SWIDTH 432 0
DWIDTH 6 0
BBX 4 13 1 -1
BITMAP
10
20
40
40
80
80
80
80
80
40
40
20
10
ENDCHAR
STARTCHAR 0029
ENCODING 41
SWIDTH 432 0
DWIDTH 6 0
BBX 4 13 1 -1
BITMAP
80
40
20
20
10
10
10
10
10
20
20
40
80
ENDCHAR
STARTCHAR 002A
ENCODING 42
SWIDTH 504 0
DWIDTH 7 0
BBX 5 5 1 3
BITMAP
20
20
F8
20
50
ENDCHAR
STARTCHAR 002B
ENCODING 43
SWIDTH 576 0
DWIDTH 8 0
BBX 7 7 1 2
BITMAP
10
10
10
FE
10
10
10
ENDCHAR
STARTCHAR 002C
ENCODING 44
SWIDTH 360 0
DWIDTH 5 0
BBX 2 3 1 -1
BITMAP
40
40
80
ENDCHAR
STARTCHAR 002D
ENCODING 45
SWIDTH 576 0
DWIDTH 8 0
BBX 7 1 1 5
BITMAP
FE
ENDCHAR
STARTCHAR 002E
ENCODING 46
SWIDTH 360 0
DWIDTH 5 0
BBX 1 2 2 -1
BITMAP
80
80
ENDCHAR
STARTCHAR 002F
ENCODING 47
SWIDTH 432 0
DWIDTH 6 0
BBX 6 12 0 -1
BITMAP
04
04
08
08
10
10
20
20
40
40
80
80
ENDCHAR
STARTCHAR 0030
ENCODING 48
SWIDTH 576 0
DWIDTH 8 0
BBX 7 11 1 0
BITMAP
38
44
82
82
82
82
82
82
82
44
38
ENDCHAR
STARTCHAR 0031
ENCODING 49
SWIDTH 576 0
DWIDTH 8 0
BBX 3 11 2 0
BITMAP
20
E0
20
20
20
20
20
20
20
20
20
ENDCHAR
STARTCHAR 0032
ENCODING 50
SWIDTH 576 0
DWIDTH 8 0
BBX 7 11 1 0
BITMAP
38
44
82
82
04
08
10
20
40
80
FE
ENDCHAR
STARTCHAR 0033
ENCODING 51
SWIDTH 576 0
DWIDTH 8 0
BBX 7 11 1 0
BITMAP
38
44
82
04
38
04
02
02
82
44
38
ENDCHAR
STARTCHAR 0034
ENCODING 52
SWIDTH 576 0
DWIDTH 8 0
BBX 7 11 1 0
BITMAP
18
18
28
28
48
48
88
FE
08
08
08
ENDCHAR
STARTCHAR 0035
ENCODING 53
SWIDTH 576 0
DWIDTH 8 0
BBX 7 11 1 0
BITMAP
FC
80
80
80
F8
84
02
02
02
84
78
ENDCHAR
STARTCHAR 0036
ENCODING 54
SWIDTH 576 0
DWIDTH 8 0
BBX 7 11 1 0
BITMAP
38
44
82
80
B8
C4
82
82
82
44
38
ENDCHAR
STARTCHAR 0037
ENCODING 55
SWIDTH 576 0
DWIDTH 8 0
BBX 7 11 1 0
BITMAP
FE
02
04
04
08
08
08
10
10
10
10
ENDCHAR
STARTCHAR 0038
ENCODING 56
SWIDTH 576 0
DWIDTH 8 0
BBX 7 11 1 0
BITMAP
38
44
82
44
38
44
82
82
82
44
38
ENDCHAR
STARTCHAR 0039
ENCODING 57
SWIDTH 576 0
DWIDTH 8 0
BBX 7 11 1 0
BITMAP
38
44
82
82
82
46
3A
02
82
44
38
ENDCHAR
STARTCHAR 003A
ENCODING 58
SWIDTH 360 0
DWIDTH 5 0
BBX 1 8 2 1
BITMAP
80
80
00
00
00
00
80
80
ENDCHAR
STARTCHAR 003B
ENCODING 59
SWIDTH 360 0
DWIDTH 5 0
BBX 2 9 1 0
BITMAP
40
40
00
00
00
00
40
40
80
ENDCHAR
STARTCHAR 003C
ENCODING 60
SWIDTH 720 0
DWIDTH 10 0
BBX 6 11 2 0
BITMAP
04
08
10
20
40
80
40
20
10
08
04
ENDCHAR
STARTCHAR 003D
ENCODING 61
SWIDTH 576 0
DWIDTH 8 0
BBX 7 4 1 3
BITMAP
FE
00
00
FE
ENDCHAR
STARTCHAR 003E
ENCODING 62
SWIDTH 720 0
DWIDTH 10 0
BBX 6 11 2 0
BITMAP
80
40
20
10
08
04
08
10
20
40
80
ENDCHAR
STARTCHAR 003F
ENCODING 63
SWIDTH 576 0
DWIDTH 8 0
BBX 6 11 1 0
BITMAP
78
84
84
04
08
10
20
20
00
20
20
ENDCHAR
STARTCHAR 0040
ENCODING 64
SWIDTH 936 0
DWIDTH 13 0
BBX 11 12 1 -1
BITMAP
0F80
1040
2020
46A0
89A0
9120
9120
9240
8D80
8000
4080
3F00
ENDCHAR
STARTCHAR 0041
ENCODING 65
SWIDTH 648 0
DWIDTH 9 0
BBX 8 11 1 0
BITMAP
18
18
24
24
24
42
42
7E
81
81
81
ENDCHAR
STARTCHAR 0042
ENCODING 66
SWIDTH 720 0
DWIDTH 10 0
BBX 8 11 1 0
BITMAP
FC
82
82
82
84
FC
82
81
81
82
FC
ENDCHAR
STARTCHAR 0043
ENCODING 67
SWIDTH 720 0
DWIDTH 10 0
BBX 8 11 1 0
BITMAP
3C
42
81
80
80
80
80
80
81
42
3C
ENDCHAR
STARTCHAR 0044
ENCODING 68
SWIDTH 720 0
DWIDTH 10 0
BBX 8 11 1 0
BITMAP
F8
84
82
81
81
81
81
81
82
84
F8
ENDCHAR
STARTCHAR 0045
ENCODING 69
SWIDTH 648 0
DWIDTH 9 0
BBX 7 11 1 0
BITMAP
FE
80
80
80
80
FC
80
80
80
80
FE
ENDCHAR
STARTCHAR 0046
ENCODING 70
SWIDTH 576 0
DWIDTH 8 0
BBX 7 11 1 0
BITMAP
FE
80
80
80
80
FC
80
80
80
80
80
ENDCHAR
STARTCHAR 0047
ENCODING 71
SWIDTH 792 0
DWIDTH 11 0
BBX 9 11 1 0
BITMAP
1E00
2100
4080
8000
8000
8780
8080
8080
4080
2180
1E80
ENDCHAR
STARTCHAR 0048
ENCODING 72
SWIDTH 720 0
DWIDTH 10 0
BBX 8 11 1 0
BITMAP
81
81
81
81
81
FF
81
81
81
81
81
ENDCHAR
STARTCHAR 0049
ENCODING 73
SWIDTH 216 0
DWIDTH 3 0
BBX 1 11 1 0
BITMAP
80
80
80
80
80
80
80
80
80
80
80
ENDCHAR
STARTCHAR 004A
ENCODING 74
SWIDTH 432 0
DWIDTH 6 0
BBX 5 11 0 0
BITMAP
08
08
08
08
08
08
08
08
88
88
70
ENDCHAR
STARTCHAR 004B
ENCODING 75
SWIDTH 576 0
DWIDTH 8 0
BBX 7 11 1 0
BITMAP
82
84
88
90
A0
D0
88
88
84
82
82
ENDCHAR
STARTCHAR 004C
ENCODING 76
SWIDTH 576 0
DWIDTH 8 0
BBX 7 11 1 0
BITMAP
80
80
80
80
80
80
80
80
80
80
FE
ENDCHAR
STARTCHAR 004D
ENCODING 77
SWIDTH 864 0
DWIDTH 12 0
BBX 10 11 1 0
BITMAP
8040
8040
C0C0
C0C0
A140
A140
9240
9240
8C40
8C40
8040
ENDCHAR
STARTCHAR 004E
ENCODING 78
SWIDTH 648 0
DWIDTH 9 0
BBX 7 11 1 0
BITMAP
82
C2
C2
A2
A2
92
92
8A
8A
86
86
ENDCHAR
STARTCHAR 004F
ENCODING 79
SWIDTH 864 0
DWIDTH 12 0
BBX 10 11 1 0
BITMAP
1E00
2100
4080
8040
8040
8040
8040
8040
4080
2100
1E00
ENDCHAR
STARTCHAR 0050
ENCODING 80
SWIDTH 720 0
DWIDTH 10 0
BBX 8 11 1 0
BITMAP
FC
82
81
81
82
FC
80
80
80
80
80
ENDCHAR
STARTCHAR 0051
ENCODING 81
SWIDTH 864 0
DWIDTH 12 0
BBX 10 11 1 0
BITMAP
1E00
2100
4080
8040
8040
8040
8040
8440
4280
2100
1E80
ENDCHAR
STARTCHAR 0052
ENCODING 82
SWIDTH 720 0
DWIDTH 10 0
BBX 8 11 1 0
BITMAP
FC
82
81
81
82
FC
82
81
81
81
81
ENDCHAR
STARTCHAR 0053
ENCODING 83
SWIDTH 720 0
DWIDTH 10 0
BBX 8 11 1 0
BITMAP
3C
42
81
80
60
1C
02
01
81
42
3C
ENDCHAR
STARTCHAR 0054
ENCODING 84
SWIDTH 576 0
DWIDTH 8 0
BBX 7 11 1 0
BITMAP
FE
10
10
10
10
10
10
10
10
10
10
ENDCHAR
STARTCHAR 0055
ENCODING 85
SWIDTH 720 0
DWIDTH 10 0
BBX 8 11 1 0
BITMAP
81
81
81
81
81
81
81
81
81
42
3C
ENDCHAR
STARTCHAR 0056
ENCODING 86
SWIDTH 576 0
DWIDTH 8 0
BBX 7 11 1 0
BITMAP
82
82
82
44
44
44
28
28
28
10
10
ENDCHAR
STARTCHAR 0057
ENCODING 87
SWIDTH 1008 0
DWIDTH 14 0
BBX 13 11 1 0
BITMAP
8208
8208
8208
4510
4510
4510
28A0
28A0
28A0
1040
1040
ENDCHAR
STARTCHAR 0058
ENCODING 88
SWIDTH 648 0
DWIDTH 9 0
BBX 7 11 1 0
BITMAP
82
82
44
44
28
10
28
44
44
82
82
ENDCHAR
STARTCHAR 0059
ENCODING 89
SWIDTH 576 0
DWIDTH 8 0
BBX 7 11 1 0
BITMAP
82
82
44
44
28
10
10
10
10
10
10
ENDCHAR
STARTCHAR 005A
ENCODING 90
SWIDTH 648 0
DWIDTH 9 0
BBX 7 11 1 0
BITMAP
FE
02
04
08
08
10
20
20
40
80
FE
ENDCHAR
STARTCHAR 005B
ENCODING 91
SWIDTH 504 0
DWIDTH 7 0
BBX 3 13 3 -1
BITMAP
E0
80
80
80
80
80
80
80
80
80
80
80
E0
ENDCHAR
STARTCHAR 005C
ENCODING 92
SWIDTH 1008 0
DWIDTH 14 0
BBX 13 11 1 0
BITMAP
4210
4210
4210
4510
FFF8
2520
28A0
28A0
18C0
1040
1040
ENDCHAR
STARTCHAR 005D
ENCODING 93
SWIDTH 504 0
DWIDTH 7 0
BBX 3 13 1 -1
BITMAP
E0
20
20
20
20
20
20
20
20
20
20
20
E0
ENDCHAR
STARTCHAR 005E
ENCODING 94
SWIDTH 504 0
DWIDTH 7 0
BBX 5 3 1 8
BITMAP
20
50
88
ENDCHAR
STARTCHAR 005F
ENCODING 95
SWIDTH 504 0
DWIDTH 7 0
BBX 6 1 1 0
BITMAP
FC
ENDCHAR
STARTCHAR 0060
ENCODING 96
SWIDTH 360 0
DWIDTH 5 0
BBX 3 3 1 8
BITMAP
80
40
20
ENDCHAR
STARTCHAR 0061
ENCODING 97
SWIDTH 576 0
DWIDTH 8 0
BBX 7 8 1 0
BITMAP
78
84
04
7C
84
84
84
7A
ENDCHAR
STARTCHAR 0062
ENCODING 98
SWIDTH 576 0
DWIDTH 8 0
BBX 6 11 1 0
BITMAP
80
80
80
B0
C8
84
84
84
84
C8
B0
ENDCHAR
STARTCHAR 0063
ENCODING 99
SWIDTH 576 0
DWIDTH 8 0
BBX 6 8 1 0
BITMAP
38
44
80
80
80
80
44
38
ENDCHAR
STARTCHAR 0064
ENCODING 100
SWIDTH 576 0
DWIDTH 8 0
BBX 6 11 1 0
BITMAP
04
04
04
34
4C
84
84
84
84
4C
34
ENDCHAR
STARTCHAR 0065
ENCODING 101
SWIDTH 576 0
DWIDTH 8 0
BBX 6 8 1 0
BITMAP
78
84
84
FC
80
80
84
78
ENDCHAR
STARTCHAR 0066
ENCODING 102
SWIDTH 288 0
DWIDTH 4 0
BBX 4 11 0 0
BITMAP
30
40
40
F0
40
40
40
40
40
40
40
ENDCHAR
STARTCHAR 0067
ENCODING 103
SWIDTH 576 0
DWIDTH 8 0
BBX 6 9 1 -1
BITMAP
7C
84
84
84
84
7C
04
84
78
ENDCHAR
STARTCHAR 0068
ENCODING 104
SWIDTH 576 0
DWIDTH 8 0
BBX 6 11 1 0
BITMAP
80
80
80
B8
C4
84
84
84
84
84
84
ENDCHAR
STARTCHAR 0069
ENCODING 105
SWIDTH 216 0
DWIDTH 3 0
BBX 1 11 1 0
BITMAP
80
80
00
80
80
80
80
80
80
80
80
ENDCHAR
STARTCHAR 006A
ENCODING 106
SWIDTH 216 0
DWIDTH 3 0
BBX 2 12 0 -1
BITMAP
40
40
00
40
40
40
40
40
40
40
40
80
ENDCHAR
STARTCHAR 006B
ENCODING 107
SWIDTH 504 0
DWIDTH 7 0
BBX 6 11 1 0
BITMAP
80
80
80
84
88
90
A0
E0
90
88
84
ENDCHAR
STARTCHAR 006C
ENCODING 108
SWIDTH 216 0
DWIDTH 3 0
BBX 1 11 1 0
BITMAP
80
80
80
80
80
80
80
80
80
80
80
ENDCHAR
STARTCHAR 006D
ENCODING 109
SWIDTH 792 0
DWIDTH 11 0
BBX 9 8 1 0
BITMAP
B300
CC80
8880
8880
8880
8880
8880
8880
ENDCHAR
STARTCHAR 006E
ENCODING 110
SWIDTH 576 0
DWIDTH 8 0
BBX 6 8 1 0
BITMAP
B8
C4
84
84
84
84
84
84
ENDCHAR
STARTCHAR 006F
ENCODING 111
SWIDTH 648 0
DWIDTH 9 0
BBX 7 8 1 0
BITMAP
38
44
82
82
82
82
44
38
ENDCHAR
STARTCHAR 0070
ENCODING 112
SWIDTH 576 0
DWIDTH 8 0
BBX 6 9 1 -1
BITMAP
B0
C8
84
84
84
84
C8
B0
80
ENDCHAR
STARTCHAR 0071
ENCODING 113
SWIDTH 576 0
DWIDTH 8 0
BBX 6 9 1 -1
BITMAP
34
4C
84
84
84
84
4C
34
04
ENDCHAR
STARTCHAR 0072
ENCODING 114
SWIDTH 288 0
DWIDTH 4 0
BBX 3 8 1 0
BITMAP
A0
C0
80
80
80
80
80
80
ENDCHAR
STARTCHAR 0073
ENCODING 115
SWIDTH 576 0
DWIDTH 8 0
BBX 6 8 1 0
BITMAP
78
84
80
60
18
04
84
78
ENDCHAR
STARTCHAR 0074
ENCODING 116
SWIDTH 288 0
DWIDTH 4 0
BBX 4 10 0 0
BITMAP
40
40
F0
40
40
40
40
40
40
30
ENDCHAR
STARTCHAR 0075
ENCODING 117
SWIDTH 576 0
DWIDTH 8 0
BBX 6 8 1 0
BITMAP
84
84
84
84
84
84
8C
74
ENDCHAR
STARTCHAR 0076
ENCODING 118
SWIDTH 576 0
DWIDTH 8 0
BBX 7 8 1 0
BITMAP
82
82
44
44
28
28
10
10
ENDCHAR
STARTCHAR 0077
ENCODING 119
SWIDTH 720 0
DWIDTH 10 0
BBX 9 8 1 0
BITMAP
8880
8880
8880
5500
5500
5500
2200
2200
ENDCHAR
STARTCHAR 0078
ENCODING 120
SWIDTH 648 0
DWIDTH 9 0
BBX 7 8 1 0
BITMAP
82
44
28
10
10
28
44
82
ENDCHAR
STARTCHAR 0079
ENCODING 121
SWIDTH 576 0
DWIDTH 8 0
BBX 7 9 1 -1
BITMAP
82
82
44
44
28
28
10
20
C0
ENDCHAR
STARTCHAR 007A
ENCODING 122
SWIDTH 576 0
DWIDTH 8 0
BBX 6 8 1 0
BITMAP
FC
04
08
10
20
40
80
FC
ENDCHAR
STARTCHAR 007B
ENCODING 123
SWIDTH 504 0
DWIDTH 7 0
BBX 4 13 1 -1
BITMAP
10
20
20
20
20
20
C0
20
20
20
20
20
10
ENDCHAR
STARTCHAR 007C
ENCODING 124
SWIDTH 504 0
DWIDTH 7 0
BBX 1 13 3 -1
BITMAP
80
80
80
80
80
80
80
80
80
80
80
80
80
ENDCHAR
STARTCHAR 007D
ENCODING 125
SWIDTH 504 0
DWIDTH 7 0
BBX 4 13 2 -1
BITMAP
80
40
40
40
40
40
30
40
40
40
40
40
80
ENDCHAR
STARTCHAR 007E
ENCODING 126
SWIDTH 792 0
DWIDTH 11 0
BBX 9 2 1 4
BITMAP
7880
8700
ENDCHAR
STARTCHAR 007F
ENCODING 127
SWIDTH 504 0
DWIDTH 7 0
BBX 5 10 1 0
BITMAP
F8
88
88
88
88
88
88
88
88
F8
ENDCHAR
STARTCHAR 00A0
ENCODING 160
SWIDTH 504 0
DWIDTH 7 0
BBX 0 0 0 0
BITMAP
ENDCHAR
STARTCHAR 00A1
ENCODING 161
SWIDTH 432 0
DWIDTH 6 0
BBX 1 11 3 -2
BITMAP
80
80
00
80
80
80
80
80
80
80
80
ENDCHAR
STARTCHAR 00A2
ENCODING 162
SWIDTH 576 0
DWIDTH 8 0
BBX 6 10 1 -1
BITMAP
04
38
4C
88
90
90
A0
64
38
40
ENDCHAR
STARTCHAR 00A3
ENCODING 163
SWIDTH 576 0
DWIDTH 8 0
BBX 6 10 1 0
BITMAP
38
44
44
40
20
FC
20
64
A4
58
ENDCHAR
STARTCHAR 00A4
ENCODING 164
SWIDTH 576 0
DWIDTH 8 0
BBX 6 7 1 0
BITMAP
B4
48
84
84
84
48
B4
ENDCHAR
STARTCHAR 00A5
ENCODING 165
SWIDTH 648 0
DWIDTH 9 0
BBX 7 10 1 0
BITMAP
82
44
44
28
FE
10
FE
10
10
10
ENDCHAR
STARTCHAR 00A6
ENCODING 166
SWIDTH 216 0
DWIDTH 3 0
BBX 1 12 1 -2
BITMAP
80
80
80
80
80
00
00
80
80
80
80
80
ENDCHAR
STARTCHAR 00A7
ENCODING 167
SWIDTH 504 0
DWIDTH 7 0
BBX 5 12 1 -2
BITMAP
70
88
88
60
90
88
48
30
10
88
88
70
ENDCHAR
STARTCHAR 00A8
ENCODING 168
SWIDTH 504 0
DWIDTH 7 0
BBX 3 1 2 9
BITMAP
A0
ENDCHAR
STARTCHAR 00A9
ENCODING 169
SWIDTH 792 0
DWIDTH 11 0
BBX 9 10 1 0
BITMAP
3E00
4100
9C80
A280
A080
A080
A280
9C80
4100
3E00
ENDCHAR
STARTCHAR 00AA
ENCODING 170
SWIDTH 360 0
DWIDTH 5 0
BBX 5 6 0 4
BITMAP
60
90
70
90
68
F8
ENDCHAR
STARTCHAR 00AB
ENCODING 171
SWIDTH 504 0
DWIDTH 7 0
BBX 5 3 1 4
BITMAP
48
90
48
ENDCHAR
STARTCHAR 00AC
ENCODING 172
SWIDTH 648 0
DWIDTH 9 0
BBX 9 4 0 3
BITMAP
FF80
0080
0080
0080
ENDCHAR
STARTCHAR 00AD
ENCODING 173
SWIDTH 504 0
DWIDTH 7 0
BBX 4 1 2 5
BITMAP
F0
ENDCHAR
STARTCHAR 00AE
ENCODING 174
SWIDTH 792 0
DWIDTH 11 0
BBX 9 10 1 0
BITMAP
3E00
4100
BC80
A280
A280
BC80
A280
A280
4100
3E00
ENDCHAR
STARTCHAR 00AF
ENCODING 175
SWIDTH 504 0
DWIDTH 7 0
BBX 4 1 2 9
BITMAP
F0
ENDCHAR
STARTCHAR 00B0
ENCODING 176
SWIDTH 360 0
DWIDTH 5 0
BBX 4 3 1 8
BITMAP
60
90
60
ENDCHAR
STARTCHAR 00B1
ENCODING 177
SWIDTH 864 0
DWIDTH 12 0
BBX 9 11 2 0
BITMAP
0800
0800
0800
0800
FF80
0800
0800
0800
0800
0000
FF80
ENDCHAR
STARTCHAR 00B2
ENCODING 178
SWIDTH 288 0
DWIDTH 4 0
BBX 4 5 0 4
BITMAP
60
90
20
40
F0
ENDCHAR
STARTCHAR 00B3
ENCODING 179
SWIDTH 288 0
DWIDTH 4 0
BBX 4 5 0 4
BITMAP
60
90
20
90
60
ENDCHAR
STARTCHAR 00B4
ENCODING 180
SWIDTH 288 0
DWIDTH 4 0
BBX 2 2 1 8
BITMAP
40
80
ENDCHAR
STARTCHAR 00B5
ENCODING 181
SWIDTH 576 0
DWIDTH 8 0
BBX 6 10 1 -2
BITMAP
84
84
84
84
84
84
CC
B4
80
80
ENDCHAR
STARTCHAR 00B6
ENCODING 182
SWIDTH 576 0
DWIDTH 8 0
BBX 6 12 1 -2
BITMAP
3C
74
F4
F4
74
34
14
14
14
14
14
14
ENDCHAR
STARTCHAR 00B7
ENCODING 183
SWIDTH 288 0
DWIDTH 4 0
BBX 1 1 2 5
BITMAP
80
ENDCHAR
STARTCHAR 00B8
ENCODING 184
SWIDTH 288 0
DWIDTH 4 0
BBX 3 4 1 -2
BITMAP
80
C0
20
C0
ENDCHAR
STARTCHAR 00B9
ENCODING 185
SWIDTH 360 0
DWIDTH 5 0
BBX 2 5 1 4
BITMAP
40
C0
40
40
40
ENDCHAR
STARTCHAR 00BA
ENCODING 186
SWIDTH 432 0
DWIDTH 6 0
BBX 4 6 1 4
BITMAP
60
90
90
60
00
F0
ENDCHAR
STARTCHAR 00BB
ENCODING 187
SWIDTH 504 0
DWIDTH 7 0
BBX 5 3 1 4
BITMAP
90
48
90
ENDCHAR
STARTCHAR 00BC
ENCODING 188
SWIDTH 504 0
DWIDTH 7 0
BBX 5 11 1 -2
BITMAP
20
60
20
20
20
F8
10
30
50
F8
10
ENDCHAR
STARTCHAR 00BD
ENCODING 189
SWIDTH 504 0
DWIDTH 7 0
BBX 5 11 1 -2
BITMAP
20
60
20
20
20
F8
30
48
10
20
78
ENDCHAR
STARTCHAR 00BE
ENCODING 190
SWIDTH 504 0
DWIDTH 7 0
BBX 5 11 1 -2
BITMAP
30
48
10
48
30
F8
10
30
50
F8
10
ENDCHAR
STARTCHAR 00BF
ENCODING 191
SWIDTH 576 0
DWIDTH 8 0
BBX 6 11 1 -2
BITMAP
10
00
10
10
10
20
40
84
84
48
30
ENDCHAR
STARTCHAR 00C0
ENCODING 192
SWIDTH 648 0
DWIDTH 9 0
BBX 7 12 1 0
BITMAP
10
08
10
10
28
28
44
44
7C
82
82
82
ENDCHAR
STARTCHAR 00C1
ENCODING 193
SWIDTH 648 0
DWIDTH 9 0
BBX 7 12 1 0
BITMAP
10
20
10
10
28
28
44
44
7C
82
82
82
ENDCHAR
STARTCHAR 00C2
ENCODING 194
SWIDTH 648 0
DWIDTH 9 0
BBX 7 12 1 0
BITMAP
10
28
00
10
10
28
28
44
44
FE
82
82
ENDCHAR
STARTCHAR 00C3
ENCODING 195
SWIDTH 648 0
DWIDTH 9 0
BBX 7 12 1 0
BITMAP
32
4C
10
10
28
28
44
44
7C
82
82
82
ENDCHAR
STARTCHAR 00C4
ENCODING 196
SWIDTH 648 0
DWIDTH 9 0
BBX 7 12 1 0
BITMAP
28
00
10
10
28
28
44
44
7C
82
82
82
ENDCHAR
STARTCHAR 00C5
ENCODING 197
SWIDTH 648 0
DWIDTH 9 0
BBX 7 12 1 0
BITMAP
18
24
18
10
28
28
44
44
7C
82
82
82
ENDCHAR
STARTCHAR 00C6
ENCODING 198
SWIDTH 936 0
DWIDTH 13 0
BBX 11 10 1 0
BITMAP
0FE0
0C00
1400
1400
27C0
2400
7C00
4400
8400
87E0
ENDCHAR
STARTCHAR 00C7
ENCODING 199
SWIDTH 792 0
DWIDTH 11 0
BBX 9 12 1 -2
BITMAP
1E00
2100
4080
8000
8000
8000
8000
4080
2100
1E00
0400
1800
ENDCHAR
STARTCHAR 00C8
ENCODING 200
SWIDTH 648 0
DWIDTH 9 0
BBX 7 12 1 0
BITMAP
20
10
FE
80
80
80
FC
80
80
80
80
FE
ENDCHAR
STARTCHAR 00C9
ENCODING 201
SWIDTH 648 0
DWIDTH 9 0
BBX 7 12 1 0
BITMAP
08
10
FE
80
80
80
FC
80
80
80
80
FE
ENDCHAR
STARTCHAR 00CA
ENCODING 202
SWIDTH 648 0
DWIDTH 9 0
BBX 7 12 1 0
BITMAP
10
28
FE
80
80
80
FC
80
80
80
80
FE
ENDCHAR
STARTCHAR 00CB
ENCODING 203
SWIDTH 648 0
DWIDTH 9 0
BBX 7 12 1 0
BITMAP
28
00
FE
80
80
80
FC
80
80
80
80
FE
ENDCHAR
STARTCHAR 00CC
ENCODING 204
SWIDTH 288 0
DWIDTH 4 0
BBX 2 12 2 0
BITMAP
80
40
80
80
80
80
80
80
80
80
80
80
ENDCHAR
STARTCHAR 00CD
ENCODING 205
SWIDTH 288 0
DWIDTH 4 0
BBX 2 12 1 0
BITMAP
40
80
40
40
40
40
40
40
40
40
40
40
ENDCHAR
STARTCHAR 00CE
ENCODING 206
SWIDTH 288 0
DWIDTH 4 0
BBX 3 12 1 0
BITMAP
40
A0
40
40
40
40
40
40
40
40
40
40
ENDCHAR
STARTCHAR 00CF
ENCODING 207
SWIDTH 288 0
DWIDTH 4 0
BBX 3 12 1 0
BITMAP
A0
00
40
40
40
40
40
40
40
40
40
40
ENDCHAR
STARTCHAR 00D0
ENCODING 208
SWIDTH 792 0
DWIDTH 11 0
BBX 10 10 0 0
BITMAP
3E00
4100
4080
4040
FC40
4040
4040
4080
4100
3E00
ENDCHAR
STARTCHAR 00D1
ENCODING 209
SWIDTH 792 0
DWIDTH 11 0
BBX 9 12 1 0
BITMAP
1900
2600
8080
C080
A080
9080
8880
8880
8480
8280
8180
8080
ENDCHAR
STARTCHAR 00D2
ENCODING 210
SWIDTH 792 0
DWIDTH 11 0
BBX 9 12 1 0
BITMAP
1000
0800
1C00
2200
4100
8080
8080
8080
8080
4100
2200
1C00
ENDCHAR
STARTCHAR 00D3
ENCODING 211
SWIDTH 792 0
DWIDTH 11 0
BBX 9 12 1 0
BITMAP
0400
0800
1C00
2200
4100
8080
8080
8080
8080
4100
2200
1C00
ENDCHAR
STARTCHAR 00D4
ENCODING 212
SWIDTH 792 0
DWIDTH 11 0
BBX 9 12 1 0
BITMAP
0800
1400
1C00
2200
4100
8080
8080
8080
8080
4100
2200
1C00
ENDCHAR
STARTCHAR 00D5
ENCODING 213
SWIDTH 792 0
DWIDTH 11 0
BBX 9 12 1 0
BITMAP
1900
2600
1C00
2200
4100
8080
8080
8080
8080
4100
2200
1C00
ENDCHAR
STARTCHAR 00D6
ENCODING 214
SWIDTH 792 0
DWIDTH 11 0
BBX 9 12 1 0
BITMAP
1400
0000
1C00
2200
4100
8080
8080
8080
8080
4100
2200
1C00
ENDCHAR
STARTCHAR 00D7
ENCODING 215
SWIDTH 864 0
DWIDTH 12 0
BBX 8 8 2 1
BITMAP
81
42
24
18
18
24
42
81
ENDCHAR
STARTCHAR 00D8
ENCODING 216
SWIDTH 792 0
DWIDTH 11 0
BBX 9 12 1 -1
BITMAP
0100
1D00
2200
4500
8480
8880
8880
9080
5100
2200
5C00
4000
ENDCHAR
STARTCHAR 00D9
ENCODING 217
SWIDTH 792 0
DWIDTH 11 0
BBX 9 12 1 0
BITMAP
1000
0800
8080
8080
8080
8080
8080
8080
8080
8080
4100
3E00
ENDCHAR
STARTCHAR 00DA
ENCODING 218
SWIDTH 792 0
DWIDTH 11 0
BBX 9 12 1 0
BITMAP
0800
1000
8080
8080
8080
8080
8080
8080
8080
8080
4100
3E00
ENDCHAR
STARTCHAR 00DB
ENCODING 219
SWIDTH 792 0
DWIDTH 11 0
BBX 9 12 1 0
BITMAP
0800
1400
8080
8080
8080
8080
8080
8080
8080
8080
4100
3E00
ENDCHAR
STARTCHAR 00DC
ENCODING 220
SWIDTH 792 0
DWIDTH 11 0
BBX 9 12 1 0
BITMAP
1400
0000
8080
8080
8080
8080
8080
8080
8080
8080
4100
3E00
ENDCHAR
STARTCHAR 00DD
ENCODING 221
SWIDTH 648 0
DWIDTH 9 0
BBX 7 12 1 0
BITMAP
08
10
82
82
44
44
28
10
10
10
10
10
ENDCHAR
STARTCHAR 00DE
ENCODING 222
SWIDTH 648 0
DWIDTH 9 0
BBX 7 10 1 0
BITMAP
80
80
F8
84
82
82
84
F8
80
80
ENDCHAR
STARTCHAR 00DF
ENCODING 223
SWIDTH 576 0
DWIDTH 8 0
BBX 7 10 1 0
BITMAP
78
84
84
84
98
84
82
82
C4
B8
ENDCHAR
STARTCHAR 00E0
ENCODING 224
SWIDTH 576 0
DWIDTH 8 0
BBX 7 11 1 0
BITMAP
20
10
00
78
84
04
1C
64
84
84
7A
ENDCHAR
STARTCHAR 00E1
ENCODING 225
SWIDTH 576 0
DWIDTH 8 0
BBX 7 11 1 0
BITMAP
10
20
00
78
84
04
1C
64
84
84
7A
ENDCHAR
STARTCHAR 00E2
ENCODING 226
SWIDTH 576 0
DWIDTH 8 0
BBX 7 11 1 0
BITMAP
10
28
00
78
84
04
1C
64
84
84
7A
ENDCHAR
STARTCHAR 00E3
ENCODING 227
SWIDTH 576 0
DWIDTH 8 0
BBX 7 11 1 0
BITMAP
64
98
00
78
84
04
1C
64
84
84
7A
ENDCHAR
STARTCHAR 00E4
ENCODING 228
SWIDTH 576 0
DWIDTH 8 0
BBX 7 10 1 0
BITMAP
28
00
78
84
04
1C
64
84
84
7A
ENDCHAR
STARTCHAR 00E5
ENCODING 229
SWIDTH 576 0
DWIDTH 8 0
BBX 7 11 1 0
BITMAP
10
28
10
78
84
04
1C
64
84
84
7A
ENDCHAR
STARTCHAR 00E6
ENCODING 230
SWIDTH 792 0
DWIDTH 11 0
BBX 9 8 1 0
BITMAP
7700
8880
0880
3F80
4800
8800
8880
7700
ENDCHAR
STARTCHAR 00E7
ENCODING 231
SWIDTH 576 0
DWIDTH 8 0
BBX 6 10 1 -2
BITMAP
38
44
80
80
80
80
44
38
08
30
ENDCHAR
STARTCHAR 00E8
ENCODING 232
SWIDTH 576 0
DWIDTH 8 0
BBX 6 11 1 0
BITMAP
20
10
00
30
48
84
FC
80
80
44
38
ENDCHAR
STARTCHAR 00E9
ENCODING 233
SWIDTH 576 0
DWIDTH 8 0
BBX 6 11 1 0
BITMAP
10
20
00
30
48
84
FC
80
80
44
38
ENDCHAR
STARTCHAR 00EA
ENCODING 234
SWIDTH 576 0
DWIDTH 8 0
BBX 6 11 1 0
BITMAP
10
28
00
30
48
84
FC
80
80
44
38
ENDCHAR
STARTCHAR 00EB
ENCODING 235
SWIDTH 576 0
DWIDTH 8 0
BBX 6 10 1 0
BITMAP
48
00
30
48
84
FC
80
80
44
38
ENDCHAR
STARTCHAR 00EC
ENCODING 236
SWIDTH 288 0
DWIDTH 4 0
BBX 2 11 2 0
BITMAP
80
40
00
80
80
80
80
80
80
80
80
ENDCHAR
STARTCHAR 00ED
ENCODING 237
SWIDTH 288 0
DWIDTH 4 0
BBX 2 11 1 0
BITMAP
40
80
00
40
40
40
40
40
40
40
40
ENDCHAR
STARTCHAR 00EE
ENCODING 238
SWIDTH 288 0
DWIDTH 4 0
BBX 3 11 1 0
BITMAP
40
A0
00
40
40
40
40
40
40
40
40
ENDCHAR
STARTCHAR 00EF
ENCODING 239
SWIDTH 288 0
DWIDTH 4 0
BBX 3 10 1 0
BITMAP
A0
00
40
40
40
40
40
40
40
40
ENDCHAR
STARTCHAR 00F0
ENCODING 240
SWIDTH 576 0
DWIDTH 8 0
BBX 7 10 1 0
BITMAP
10
0E
38
04
3C
42
82
82
44
38
ENDCHAR
STARTCHAR 00F1
ENCODING 241
SWIDTH 576 0
DWIDTH 8 0
BBX 7 11 1 0
BITMAP
32
4C
00
B8
C4
82
82
82
82
82
82
ENDCHAR
STARTCHAR 00F2
ENCODING 242
SWIDTH 648 0
DWIDTH 9 0
BBX 7 11 1 0
BITMAP
20
10
00
38
44
82
82
82
82
44
38
ENDCHAR
STARTCHAR 00F3
ENCODING 243
SWIDTH 648 0
DWIDTH 9 0
BBX 7 11 1 0
BITMAP
08
10
00
38
44
82
82
82
82
44
38
ENDCHAR
STARTCHAR 00F4
ENCODING 244
SWIDTH 648 0
DWIDTH 9 0
BBX 7 11 1 0
BITMAP
10
28
00
38
44
82
82
82
82
44
38
ENDCHAR
STARTCHAR 00F5
ENCODING 245
SWIDTH 648 0
DWIDTH 9 0
BBX 7 11 1 0
BITMAP
32
4C
00
38
44
82
82
82
82
44
38
ENDCHAR
STARTCHAR 00F6
ENCODING 246
SWIDTH 648 0
DWIDTH 9 0
BBX 7 10 1 0
BITMAP
28
00
38
44
82
82
82
82
44
38
ENDCHAR
STARTCHAR 00F7
ENCODING 247
SWIDTH 864 0
DWIDTH 12 0
BBX 9 9 2 1
BITMAP
0800
0000
0000
0000
FF80
0000
0000
0000
0800
ENDCHAR
STARTCHAR 00F8
ENCODING 248
SWIDTH 648 0
DWIDTH 9 0
BBX 7 8 1 0
BITMAP
3A
44
8A
92
92
A2
44
B8
ENDCHAR
STARTCHAR 00F9
ENCODING 249
SWIDTH 576 0
DWIDTH 8 0
BBX 6 11 1 0
BITMAP
20
10
00
84
84
84
84
84
84
4C
34
ENDCHAR
STARTCHAR 00FA
ENCODING 250
SWIDTH 576 0
DWIDTH 8 0
BBX 6 11 1 0
BITMAP
08
10
00
84
84
84
84
84
84
4C
34
ENDCHAR
STARTCHAR 00FB
ENCODING 251
SWIDTH 576 0
DWIDTH 8 0
BBX 6 11 1 0
BITMAP
10
28
00
84
84
84
84
84
84
4C
34
ENDCHAR
STARTCHAR 00FC
ENCODING 252
SWIDTH 576 0
DWIDTH 8 0
BBX 6 10 1 0
BITMAP
48
00
84
84
84
84
84
84
4C
34
ENDCHAR
STARTCHAR 00FD
ENCODING 253
SWIDTH 504 0
DWIDTH 7 0
BBX 6 13 1 -2
BITMAP
10
20
00
84
84
84
48
48
50
30
20
20
C0
ENDCHAR
STARTCHAR 00FE
ENCODING 254
SWIDTH 648 0
DWIDTH 9 0
BBX 7 12 1 -2
BITMAP
80
80
B8
C4
82
82
82
82
C4
B8
80
80
ENDCHAR
STARTCHAR 00FF
ENCODING 255
SWIDTH 504 0
DWIDTH 7 0
BBX 6 12 1 -2
BITMAP
48
00
84
84
84
48
48
50
30
20
20
C0
ENDCHAR
STARTCHAR 0100
ENCODING 256
SWIDTH 648 0
DWIDTH 9 0
BBX 7 12 1 0
BITMAP
38
00
10
10
28
28
44
44
7C
82
82
82
ENDCHAR
STARTCHAR 0101
ENCODING 257
SWIDTH 576 0
DWIDTH 8 0
BBX 7 10 1 0
BITMAP
78
00
78
84
04
1C
64
84
84
7A
ENDCHAR
STARTCHAR 0102
ENCODING 258
SWIDTH 648 0
DWIDTH 9 0
BBX 7 12 1 0
BITMAP
44
38
10
10
28
28
44
44
7C
82
82
82
ENDCHAR
STARTCHAR 0103
ENCODING 259
SWIDTH 576 0
DWIDTH 8 0
BBX 7 11 1 0
BITMAP
48
30
00
78
84
04
1C
64
84
84
7A
ENDCHAR
STARTCHAR 0104
ENCODING 260
SWIDTH 648 0
DWIDTH 9 0
BBX 8 12 1 -2
BITMAP
10
10
28
28
44
44
7C
82
82
82
04
03
ENDCHAR
STARTCHAR 0105
ENCODING 261
SWIDTH 576 0
DWIDTH 8 0
BBX 8 10 1 -2
BITMAP
78
84
04
1C
64
84
84
7A
04
03
ENDCHAR
STARTCHAR 0106
ENCODING 262
SWIDTH 720 0
DWIDTH 10 0
BBX 9 12 1 0
BITMAP
0400
0800
1E00
2100
4080
8000
8000
8000
8000
4080
2100
1E00
ENDCHAR
STARTCHAR 0107
ENCODING 263
SWIDTH 576 0
DWIDTH 8 0
BBX 6 11 1 0
BITMAP
08
10
00
38
44
80
80
80
80
44
38
ENDCHAR
STARTCHAR 0108
ENCODING 264
SWIDTH 720 0
DWIDTH 10 0
BBX 9 12 1 0
BITMAP
0800
1400
1E00
2100
4080
8000
8000
8000
8000
4080
2100
1E00
ENDCHAR
STARTCHAR 0109
ENCODING 265
SWIDTH 576 0
DWIDTH 8 0
BBX 6 11 1 0
BITMAP
10
28
00
38
44
80
80
80
80
44
38
ENDCHAR
STARTCHAR 010A
ENCODING 266
SWIDTH 720 0
DWIDTH 10 0
BBX 9 12 1 0
BITMAP
0800
0000
1E00
2100
4080
8000
8000
8000
8000
4080
2100
1E00
ENDCHAR
STARTCHAR 010B
ENCODING 267
SWIDTH 576 0
DWIDTH 8 0
BBX 6 10 1 0
BITMAP
10
00
38
44
80
80
80
80
44
38
ENDCHAR
STARTCHAR 010C
ENCODING 268
SWIDTH 720 0
DWIDTH 10 0
BBX 9 12 1 0
BITMAP
1400
0800
1E00
2100
4080
8000
8000
8000
8000
4080
2100
1E00
ENDCHAR
STARTCHAR 010D
ENCODING 269
SWIDTH 576 0
DWIDTH 8 0
BBX 6 11 1 0
BITMAP
28
10
00
38
44
80
80
80
80
44
38
ENDCHAR
STARTCHAR 010E
ENCODING 270
SWIDTH 720 0
DWIDTH 10 0
BBX 9 12 1 0
BITMAP
2800
1000
FC00
8200
8100
8080
8080
8080
8080
8100
8200
FC00
ENDCHAR
STARTCHAR 010F
ENCODING 271
SWIDTH 648 0
DWIDTH 9 0
BBX 7 12 1 0
BITMAP
0A
04
02
02
3A
46
82
82
82
82
46
3A
ENDCHAR
STARTCHAR 0110
ENCODING 272
SWIDTH 792 0
DWIDTH 11 0
BBX 10 10 0 0
BITMAP
7E00
4100
4080
4040
F840
4040
4040
4080
4100
7E00
ENDCHAR
STARTCHAR 0111
ENCODING 273
SWIDTH 648 0
DWIDTH 9 0
BBX 8 10 1 0
BITMAP
02
7F
02
3A
46
82
82
82
46
3A
ENDCHAR
STARTCHAR 0112
ENCODING 274
SWIDTH 648 0
DWIDTH 9 0
BBX 7 12 1 0
BITMAP
78
00
FE
80
80
80
FC
80
80
80
80
FE
ENDCHAR
STARTCHAR 0113
ENCODING 275
SWIDTH 576 0
DWIDTH 8 0
BBX 6 10 1 0
BITMAP
78
00
30
48
84
FC
80
80
44
38
ENDCHAR
STARTCHAR 0114
ENCODING 276
SWIDTH 648 0
DWIDTH 9 0
BBX 7 12 1 0
BITMAP
44
38
FE
80
80
80
FC
80
80
80
80
FE
ENDCHAR
STARTCHAR 0115
ENCODING 277
SWIDTH 576 0
DWIDTH 8 0
BBX 6 11 1 0
BITMAP
48
30
00
30
48
84
FC
80
80
44
38
ENDCHAR
STARTCHAR 0116
ENCODING 278
SWIDTH 648 0
DWIDTH 9 0
BBX 7 12 1 0
BITMAP
10
00
FE
80
80
80
FC
80
80
80
80
FE
ENDCHAR
STARTCHAR 0117
ENCODING 279
SWIDTH 576 0
DWIDTH 8 0
BBX 6 10 1 0
BITMAP
10
00
30
48
84
FC
80
80
44
38
ENDCHAR
STARTCHAR 0118
ENCODING 280
SWIDTH 648 0
DWIDTH 9 0
BBX 7 12 1 -2
BITMAP
FE
80
80
80
FC
80
80
80
80
FE
10
0C
ENDCHAR
STARTCHAR 0119
ENCODING 281
SWIDTH 576 0
DWIDTH 8 0
BBX 6 10 1 -2
BITMAP
30
48
84
FC
80
80
44
38
10
0C
ENDCHAR
STARTCHAR 011A
ENCODING 282
SWIDTH 648 0
DWIDTH 9 0
BBX 7 12 1 0
BITMAP
28
10
FE
80
80
80
FC
80
80
80
80
FE
ENDCHAR
STARTCHAR 011B
ENCODING 283
SWIDTH 576 0
DWIDTH 8 0
BBX 6 11 1 0
BITMAP
28
10
00
30
48
84
FC
80
80
44
38
ENDCHAR
STARTCHAR 011C
ENCODING 284
SWIDTH 864 0
DWIDTH 12 0
BBX 10 12 1 0
BITMAP
0400
0A00
1F00
2080
4040
8000
8000
83C0
8040
4040
20C0
1F40
ENDCHAR
STARTCHAR 011D
ENCODING 285
SWIDTH 648 0
DWIDTH 9 0
BBX 7 13 1 -2
BITMAP
10
28
00
3A
46
82
82
82
82
46
3A
82
7C
ENDCHAR
STARTCHAR 011E
ENCODING 286
SWIDTH 864 0
DWIDTH 12 0
BBX 10 12 1 0
BITMAP
1100
0E00
1F00
2080
4040
8000
8000
83C0
8040
4040
20C0
1F40
ENDCHAR
STARTCHAR 011F
ENCODING 287
SWIDTH 648 0
DWIDTH 9 0
BBX 7 13 1 -2
BITMAP
48
30
00
3A
46
82
82
82
82
46
3A
82
7C
ENDCHAR
STARTCHAR 0120
ENCODING 288
SWIDTH 864 0
DWIDTH 12 0
BBX 10 12 1 0
BITMAP
0400
0000
1F00
2080
4040
8000
8000
87C0
8040
4040
20C0
1F40
ENDCHAR
STARTCHAR 0121
ENCODING 289
SWIDTH 648 0
DWIDTH 9 0
BBX 7 12 1 -2
BITMAP
10
00
3A
46
82
82
82
82
46
3A
82
7C
ENDCHAR
STARTCHAR 0122
ENCODING 290
SWIDTH 864 0
DWIDTH 12 0
BBX 10 12 1 -2
BITMAP
1F00
2080
4040
8000
8000
83C0
8040
4040
20C0
1F40
0200
0C00
ENDCHAR
STARTCHAR 0123
ENCODING 291
SWIDTH 648 0
DWIDTH 9 0
BBX 7 14 1 -2
BITMAP
10
20
20
00
3A
46
82
82
82
82
46
3A
82
7C
ENDCHAR
STARTCHAR 0124
ENCODING 292
SWIDTH 792 0
DWIDTH 11 0
BBX 9 12 1 0
BITMAP
0800
1400
8080
8080
8080
8080
FF80
8080
8080
8080
8080
8080
ENDCHAR
STARTCHAR 0125
ENCODING 293
SWIDTH 576 0
DWIDTH 8 0
BBX 6 12 1 0
BITMAP
20
50
80
80
B0
C8
84
84
84
84
84
84
ENDCHAR
STARTCHAR 0126
ENCODING 294
SWIDTH 792 0
DWIDTH 11 0
BBX 11 10 0 0
BITMAP
4040
4040
FFE0
4040
4040
7FC0
4040
4040
4040
4040
ENDCHAR
STARTCHAR 0127
ENCODING 295
SWIDTH 576 0
DWIDTH 8 0
BBX 7 10 0 0
BITMAP
40
F0
40
58
64
42
42
42
42
42
ENDCHAR
STARTCHAR 0128
ENCODING 296
SWIDTH 288 0
DWIDTH 4 0
BBX 5 12 0 0
BITMAP
48
B0
00
20
20
20
20
20
20
20
20
20
ENDCHAR
STARTCHAR 0129
ENCODING 297
SWIDTH 288 0
DWIDTH 4 0
BBX 5 11 0 0
BITMAP
48
B0
00
20
20
20
20
20
20
20
20
ENDCHAR
STARTCHAR 012A
ENCODING 298
SWIDTH 288 0
DWIDTH 4 0
BBX 3 12 1 0
BITMAP
E0
00
40
40
40
40
40
40
40
40
40
40
ENDCHAR
STARTCHAR 012B
ENCODING 299
SWIDTH 288 0
DWIDTH 4 0
BBX 3 10 1 0
BITMAP
E0
00
40
40
40
40
40
40
40
40
ENDCHAR
STARTCHAR 012C
ENCODING 300
SWIDTH 288 0
DWIDTH 4 0
BBX 4 12 0 0
BITMAP
90
60
20
20
20
20
20
20
20
20
20
20
ENDCHAR
STARTCHAR 012D
ENCODING 301
SWIDTH 288 0
DWIDTH 4 0
BBX 4 11 0 0
BITMAP
90
60
00
20
20
20
20
20
20
20
20
ENDCHAR
STARTCHAR 012E
ENCODING 302
SWIDTH 288 0
DWIDTH 4 0
BBX 3 12 1 -2
BITMAP
40
40
40
40
40
40
40
40
40
40
80
60
ENDCHAR
STARTCHAR 012F
ENCODING 303
SWIDTH 288 0
DWIDTH 4 0
BBX 3 12 1 -2
BITMAP
40
00
40
40
40
40
40
40
40
40
80
60
ENDCHAR
STARTCHAR 0130
ENCODING 304
SWIDTH 288 0
DWIDTH 4 0
BBX 1 12 2 0
BITMAP
80
00
80
80
80
80
80
80
80
80
80
80
ENDCHAR
STARTCHAR 0131
ENCODING 305
SWIDTH 288 0
DWIDTH 4 0
BBX 1 8 2 0
BITMAP
80
80
80
80
80
80
80
80
ENDCHAR
STARTCHAR 0132
ENCODING 306
SWIDTH 720 0
DWIDTH 10 0
BBX 8 10 1 0
BITMAP
81
81
81
81
81
81
A1
A1
92
8C
ENDCHAR
STARTCHAR 0133
ENCODING 307
SWIDTH 504 0
DWIDTH 7 0
BBX 5 12 1 -2
BITMAP
88
00
88
88
88
88
88
88
88
88
08
30
ENDCHAR
STARTCHAR 0134
ENCODING 308
SWIDTH 576 0
DWIDTH 8 0
BBX 7 12 1 0
BITMAP
04
0A
04
04
04
04
04
04
84
84
48
30
ENDCHAR
STARTCHAR 0135
ENCODING 309
SWIDTH 288 0
DWIDTH 4 0
BBX 4 13 0 -2
BITMAP
20
50
00
20
20
20
20
20
20
20
20
20
C0
ENDCHAR
STARTCHAR 0136
ENCODING 310
SWIDTH 720 0
DWIDTH 10 0
BBX 9 12 1 -2
BITMAP
8100
8200
8400
8800
9000
A800
C400
8200
8100
9080
0800
3000
ENDCHAR
STARTCHAR 0137
ENCODING 311
SWIDTH 576 0
DWIDTH 8 0
BBX 7 12 1 -2
BITMAP
80
80
84
88
90
A0
D0
88
84
92
08
30
ENDCHAR
STARTCHAR 0138
ENCODING 312
SWIDTH 576 0
DWIDTH 8 0
BBX 7 8 1 0
BITMAP
84
88
90
A0
D0
88
84
82
ENDCHAR
STARTCHAR 0139
ENCODING 313
SWIDTH 576 0
DWIDTH 8 0
BBX 8 12 0 0
BITMAP
40
80
40
40
40
40
40
40
40
40
40
7F
ENDCHAR
STARTCHAR 013A
ENCODING 314
SWIDTH 288 0
DWIDTH 4 0
BBX 2 12 1 0
BITMAP
40
80
40
40
40
40
40
40
40
40
40
40
ENDCHAR
STARTCHAR 013B
ENCODING 315
SWIDTH 576 0
DWIDTH 8 0
BBX 7 12 1 -2
BITMAP
80
80
80
80
80
80
80
80
80
FE
08
30
ENDCHAR
STARTCHAR 013C
ENCODING 316
SWIDTH 288 0
DWIDTH 4 0
BBX 3 12 1 -2
BITMAP
40
40
40
40
40
40
40
40
40
40
20
C0
ENDCHAR
STARTCHAR 013D
ENCODING 317
SWIDTH 576 0
DWIDTH 8 0
BBX 8 12 0 0
BITMAP
A0
40
00
40
40
40
40
40
40
40
40
7F
ENDCHAR
STARTCHAR 013E
ENCODING 318
SWIDTH 288 0
DWIDTH 4 0
BBX 3 12 1 0
BITMAP
A0
40
00
40
40
40
40
40
40
40
40
40
ENDCHAR
STARTCHAR 013F
ENCODING 319
SWIDTH 576 0
DWIDTH 8 0
BBX 7 10 1 0
BITMAP
80
80
80
88
80
80
80
80
80
FE
ENDCHAR
STARTCHAR 0140
ENCODING 320
SWIDTH 288 0
DWIDTH 4 0
BBX 3 10 1 0
BITMAP
80
80
80
80
A0
80
80
80
80
80
ENDCHAR
STARTCHAR 0141
ENCODING 321
SWIDTH 576 0
DWIDTH 8 0
BBX 8 10 0 0
BITMAP
40
40
50
60
40
C0
40
40
40
7F
ENDCHAR
STARTCHAR 0142
ENCODING 322
SWIDTH 288 0
DWIDTH 4 0
BBX 4 10 0 0
BITMAP
20
20
30
20
60
A0
20
20
20
20
ENDCHAR
STARTCHAR 0143
ENCODING 323
SWIDTH 792 0
DWIDTH 11 0
BBX 9 12 1 0
BITMAP
0400
0800
8080
C080
A080
9080
8880
8880
8480
8280
8180
8080
ENDCHAR
STARTCHAR 0144
ENCODING 324
SWIDTH 648 0
DWIDTH 9 0
BBX 7 11 1 0
BITMAP
08
10
00
B8
C4
82
82
82
82
82
82
ENDCHAR
STARTCHAR 0145
ENCODING 325
SWIDTH 792 0
DWIDTH 11 0
BBX 9 12 1 -2
BITMAP
8080
C080
A080
9080
8880
8880
8480
8280
8180
8880
0400
1800
ENDCHAR
STARTCHAR 0146
ENCODING 326
SWIDTH 648 0
DWIDTH 9 0
BBX 7 10 1 -2
BITMAP
B8
C4
82
82
82
82
82
92
08
30
ENDCHAR
STARTCHAR 0147
ENCODING 327
SWIDTH 792 0
DWIDTH 11 0
BBX 9 12 1 0
BITMAP
1400
0800
8080
C080
A080
9080
8880
8880
8480
8280
8180
8080
ENDCHAR
STARTCHAR 0148
ENCODING 328
SWIDTH 648 0
DWIDTH 9 0
BBX 7 11 1 0
BITMAP
28
10
00
B8
C4
82
82
82
82
82
82
ENDCHAR
STARTCHAR 0149
ENCODING 329
SWIDTH 720 0
DWIDTH 10 0
BBX 9 10 0 0
BITMAP
4000
4000
AE00
3100
2080
2080
2080
2080
2080
2080
ENDCHAR
STARTCHAR 014A
ENCODING 330
SWIDTH 792 0
DWIDTH 11 0
BBX 9 12 1 -2
BITMAP
8080
C080
A080
9080
8880
8880
8480
8280
8180
8080
0880
0700
ENDCHAR
STARTCHAR 014B
ENCODING 331
SWIDTH 648 0
DWIDTH 9 0
BBX 7 10 1 -2
BITMAP
B8
C4
82
82
82
82
82
82
22
1C
ENDCHAR
STARTCHAR 014C
ENCODING 332
SWIDTH 792 0
DWIDTH 11 0
BBX 9 12 1 0
BITMAP
3E00
0000
1C00
2200
4100
8080
8080
8080
8080
4100
2200
1C00
ENDCHAR
STARTCHAR 014D
ENCODING 333
SWIDTH 648 0
DWIDTH 9 0
BBX 7 10 1 0
BITMAP
38
00
38
44
82
82
82
82
44
38
ENDCHAR
STARTCHAR 014E
ENCODING 334
SWIDTH 792 0
DWIDTH 11 0
BBX 9 12 0 0
BITMAP
2400
1800
1C00
2200
4100
8080
8080
8080
8080
4100
2200
1C00
ENDCHAR
STARTCHAR 014F
ENCODING 335
SWIDTH 648 0
DWIDTH 9 0
BBX 7 11 1 0
BITMAP
48
30
00
38
44
82
82
82
82
44
38
ENDCHAR
STARTCHAR 0150
ENCODING 336
SWIDTH 792 0
DWIDTH 11 0
BBX 9 12 1 0
BITMAP
1200
2400
1C00
2200
4100
8080
8080
8080
8080
4100
2200
1C00
ENDCHAR
STARTCHAR 0151
ENCODING 337
SWIDTH 648 0
DWIDTH 9 0
BBX 7 11 1 0
BITMAP
24
48
00
38
44
82
82
82
82
44
38
ENDCHAR
STARTCHAR 0152
ENCODING 338
SWIDTH 936 0
DWIDTH 13 0
BBX 11 10 1 0
BITMAP
3FE0
4400
8400
8400
87C0
8400
8400
8400
4400
3FE0
ENDCHAR
STARTCHAR 0153
ENCODING 339
SWIDTH 864 0
DWIDTH 12 0
BBX 11 8 1 0
BITMAP
3180
4A40
8420
87E0
8400
8400
4A20
31C0
ENDCHAR
STARTCHAR 0154
ENCODING 340
SWIDTH 720 0
DWIDTH 10 0
BBX 8 12 1 0
BITMAP
08
10
FC
82
81
81
82
FC
82
81
81
81
ENDCHAR
STARTCHAR 0155
ENCODING 341
SWIDTH 360 0
DWIDTH 5 0
BBX 4 11 1 0
BITMAP
20
40
00
B0
C0
80
80
80
80
80
80
ENDCHAR
STARTCHAR 0156
ENCODING 342
SWIDTH 720 0
DWIDTH 10 0
BBX 8 12 1 -2
BITMAP
FC
82
81
81
82
FC
82
81
81
91
08
30
ENDCHAR
STARTCHAR 0157
ENCODING 343
SWIDTH 360 0
DWIDTH 5 0
BBX 5 10 0 -2
BITMAP
58
60
40
40
40
40
40
40
20
C0
ENDCHAR
STARTCHAR 0158
ENCODING 344
SWIDTH 720 0
DWIDTH 10 0
BBX 8 12 1 0
BITMAP
28
10
FC
82
81
81
82
FC
82
81
81
81
ENDCHAR
STARTCHAR 0159
ENCODING 345
SWIDTH 360 0
DWIDTH 5 0
BBX 4 11 1 0
BITMAP
A0
40
00
B0
C0
80
80
80
80
80
80
ENDCHAR
STARTCHAR 015A
ENCODING 346
SWIDTH 648 0
DWIDTH 9 0
BBX 7 12 1 0
BITMAP
08
10
38
44
82
40
30
0C
82
82
44
38
ENDCHAR
STARTCHAR 015B
ENCODING 347
SWIDTH 504 0
DWIDTH 7 0
BBX 6 11 1 0
BITMAP
10
20
00
78
84
80
60
18
04
84
78
ENDCHAR
STARTCHAR 015C
ENCODING 348
SWIDTH 648 0
DWIDTH 9 0
BBX 7 12 1 0
BITMAP
10
28
38
44
82
40
30
0C
82
82
44
38
ENDCHAR
STARTCHAR 015D
ENCODING 349
SWIDTH 504 0
DWIDTH 7 0
BBX 6 11 1 0
BITMAP
20
50
00
78
84
80
60
18
04
84
78
ENDCHAR
STARTCHAR 015E
ENCODING 350
SWIDTH 648 0
DWIDTH 9 0
BBX 7 12 1 -2
BITMAP
38
44
82
40
30
0C
82
82
44
38
08
30
ENDCHAR
STARTCHAR 015F
ENCODING 351
SWIDTH 504 0
DWIDTH 7 0
BBX 6 10 1 -2
BITMAP
78
84
80
60
18
04
84
78
10
60
ENDCHAR
STARTCHAR 0160
ENCODING 352
SWIDTH 648 0
DWIDTH 9 0
BBX 7 12 1 0
BITMAP
28
10
38
44
82
40
30
0C
82
82
44
38
ENDCHAR
STARTCHAR 0161
ENCODING 353
SWIDTH 504 0
DWIDTH 7 0
BBX 6 11 1 0
BITMAP
50
20
00
78
84
80
60
18
04
84
78
ENDCHAR
STARTCHAR 0162
ENCODING 354
SWIDTH 576 0
DWIDTH 8 0
BBX 7 12 1 -2
BITMAP
FE
10
10
10
10
10
10
10
10
10
08
30
ENDCHAR
STARTCHAR 0163
ENCODING 355
SWIDTH 360 0
DWIDTH 5 0
BBX 4 12 1 -2
BITMAP
40
40
F0
40
40
40
40
40
40
30
20
C0
ENDCHAR
STARTCHAR 0164
ENCODING 356
SWIDTH 576 0
DWIDTH 8 0
BBX 7 12 1 0
BITMAP
28
10
FE
10
10
10
10
10
10
10
10
10
ENDCHAR
STARTCHAR 0165
ENCODING 357
SWIDTH 360 0
DWIDTH 5 0
BBX 4 12 1 0
BITMAP
A0
40
00
40
40
F0
40
40
40
40
40
30
ENDCHAR
STARTCHAR 0166
ENCODING 358
SWIDTH 576 0
DWIDTH 8 0
BBX 7 10 1 0
BITMAP
FE
10
10
7C
10
10
10
10
10
10
ENDCHAR
STARTCHAR 0167
ENCODING 359
SWIDTH 360 0
DWIDTH 5 0
BBX 4 10 1 0
BITMAP
40
40
F0
40
F0
40
40
40
40
30
ENDCHAR
STARTCHAR 0168
ENCODING 360
SWIDTH 792 0
DWIDTH 11 0
BBX 9 12 1 0
BITMAP
1900
2600
8080
8080
8080
8080
8080
8080
8080
8080
4100
3E00
ENDCHAR
STARTCHAR 0169
ENCODING 361
SWIDTH 576 0
DWIDTH 8 0
BBX 6 11 1 0
BITMAP
64
98
00
84
84
84
84
84
84
4C
34
ENDCHAR
STARTCHAR 016A
ENCODING 362
SWIDTH 792 0
DWIDTH 11 0
BBX 9 12 1 0
BITMAP
3E00
0000
8080
8080
8080
8080
8080
8080
8080
8080
4100
3E00
ENDCHAR
STARTCHAR 016B
ENCODING 363
SWIDTH 576 0
DWIDTH 8 0
BBX 6 10 1 0
BITMAP
78
00
84
84
84
84
84
84
4C
34
ENDCHAR
STARTCHAR 016C
ENCODING 364
SWIDTH 792 0
DWIDTH 11 0
BBX 9 12 1 0
BITMAP
2400
1800
8080
8080
8080
8080
8080
8080
8080
8080
4100
3E00
ENDCHAR
STARTCHAR 016D
ENCODING 365
SWIDTH 576 0
DWIDTH 8 0
BBX 6 11 1 0
BITMAP
48
30
00
84
84
84
84
84
84
4C
34
ENDCHAR
STARTCHAR 016E
ENCODING 366
SWIDTH 792 0
DWIDTH 11 0
BBX 9 12 1 0
BITMAP
1800
2400
9880
8080
8080
8080
8080
8080
8080
8080
4100
3E00
ENDCHAR
STARTCHAR 016F
ENCODING 367
SWIDTH 576 0
DWIDTH 8 0
BBX 6 11 1 0
BITMAP
30
48
30
84
84
84
84
84
84
4C
34
ENDCHAR
STARTCHAR 0170
ENCODING 368
SWIDTH 792 0
DWIDTH 11 0
BBX 9 12 1 0
BITMAP
1200
2400
8080
8080
8080
8080
8080
8080
8080
8080
4100
3E00
ENDCHAR
STARTCHAR 0171
ENCODING 369
SWIDTH 576 0
DWIDTH 8 0
BBX 6 11 1 0
BITMAP
28
50
00
84
84
84
84
84
84
4C
34
ENDCHAR
STARTCHAR 0172
ENCODING 370
SWIDTH 792 0
DWIDTH 11 0
BBX 9 12 1 -2
BITMAP
8080
8080
8080
8080
8080
8080
8080
8080
4100
3E00
1000
0C00
ENDCHAR
STARTCHAR 0173
ENCODING 371
SWIDTH 576 0
DWIDTH 8 0
BBX 7 10 1 -2
BITMAP
84
84
84
84
84
84
4C
34
08
06
ENDCHAR
STARTCHAR 0174
ENCODING 372
SWIDTH 936 0
DWIDTH 13 0
BBX 11 12 1 0
BITMAP
0400
0A00
8420
8420
8A20
4A40
4A40
5140
5140
3180
2080
2080
ENDCHAR
STARTCHAR 0175
ENCODING 373
SWIDTH 720 0
DWIDTH 10 0
BBX 9 11 1 0
BITMAP
0800
1400
0000
8880
8880
8880
5500
5500
5500
2200
2200
ENDCHAR
STARTCHAR 0176
ENCODING 374
SWIDTH 648 0
DWIDTH 9 0
BBX 7 12 1 0
BITMAP
10
28
82
82
44
44
28
10
10
10
10
10
ENDCHAR
STARTCHAR 0177
ENCODING 375
SWIDTH 504 0
DWIDTH 7 0
BBX 6 13 1 -2
BITMAP
20
50
00
84
84
84
48
48
50
30
20
20
C0
ENDCHAR
STARTCHAR 0178
ENCODING 376
SWIDTH 576 0
DWIDTH 8 0
BBX 7 12 1 0
BITMAP
28
00
82
82
44
44
28
10
10
10
10
10
ENDCHAR
STARTCHAR 0179
ENCODING 377
SWIDTH 576 0
DWIDTH 8 0
BBX 7 12 1 0
BITMAP
08
10
FE
02
04
08
10
10
20
40
80
FE
ENDCHAR
STARTCHAR 017A
ENCODING 378
SWIDTH 504 0
DWIDTH 7 0
BBX 5 11 1 0
BITMAP
10
20
00
F8
08
10
20
20
40
80
F8
ENDCHAR
STARTCHAR 017B
ENCODING 379
SWIDTH 576 0
DWIDTH 8 0
BBX 7 12 1 0
BITMAP
10
00
FE
02
04
08
10
10
20
40
80
FE
ENDCHAR
STARTCHAR 017C
ENCODING 380
SWIDTH 504 0
DWIDTH 7 0
BBX 5 10 1 0
BITMAP
20
00
F8
08
10
20
20
40
80
F8
ENDCHAR
STARTCHAR 017D
ENCODING 381
SWIDTH 576 0
DWIDTH 8 0
BBX 7 12 1 0
BITMAP
28
10
FE
02
04
08
10
10
20
40
80
FE
ENDCHAR
STARTCHAR 017E
ENCODING 382
SWIDTH 504 0
DWIDTH 7 0
BBX 5 11 1 0
BITMAP
50
20
00
F8
08
10
20
20
40
80
F8
ENDCHAR
STARTCHAR 017F
ENCODING 383
SWIDTH 360 0
DWIDTH 5 0
BBX 4 10 1 0
BITMAP
30
40
40
C0
40
40
40
40
40
40
ENDCHAR
STARTCHAR 0192
ENCODING 402
SWIDTH 432 0
DWIDTH 6 0
BBX 6 12 0 -2
BITMAP
0C
10
10
3C
10
10
10
10
10
90
90
60
ENDCHAR
STARTCHAR 01FA
ENCODING 506
SWIDTH 648 0
DWIDTH 9 0
BBX 7 12 1 0
BITMAP
08
10
28
28
10
28
28
44
7C
82
82
82
ENDCHAR
STARTCHAR 01FB
ENCODING 507
SWIDTH 576 0
DWIDTH 8 0
BBX 7 12 1 0
BITMAP
08
10
28
10
78
84
04
1C
64
84
84
7A
ENDCHAR
STARTCHAR 01FC
ENCODING 508
SWIDTH 936 0
DWIDTH 13 0
BBX 11 12 1 0
BITMAP
0080
0100
0FE0
0C00
1400
1400
2400
27C0
7C00
4400
8400
87E0
ENDCHAR
STARTCHAR 01FD
ENCODING 509
SWIDTH 792 0
DWIDTH 11 0
BBX 9 11 1 0
BITMAP
0400
0800
0000
7700
8880
0880
3F80
4800
8800
8880
7700
ENDCHAR
STARTCHAR 01FE
ENCODING 510
SWIDTH 792 0
DWIDTH 11 0
BBX 9 13 1 -1
BITMAP
0400
0900
1D00
2200
4500
8480
8880
8880
9080
5100
2200
5C00
4000
ENDCHAR
STARTCHAR 01FF
ENCODING 511
SWIDTH 648 0
DWIDTH 9 0
BBX 7 11 1 0
BITMAP
08
10
00
3A
44
8A
92
92
A2
44
B8
ENDCHAR
STARTCHAR 02C6
ENCODING 710
SWIDTH 360 0
DWIDTH 5 0
BBX 3 2 1 9
BITMAP
40
A0
ENDCHAR
STARTCHAR 02C7
ENCODING 711
SWIDTH 360 0
DWIDTH 5 0
BBX 3 2 1 9
BITMAP
A0
40
ENDCHAR
STARTCHAR 02C9
ENCODING 713
SWIDTH 432 0
DWIDTH 6 0
BBX 4 1 1 9
BITMAP
F0
ENDCHAR
STARTCHAR 02D0
ENCODING 720
SWIDTH 1008 0
DWIDTH 14 0
BBX 4 9 5 0
BITMAP
F0
60
00
00
00
00
00
60
F0
ENDCHAR
STARTCHAR 02D8
ENCODING 728
SWIDTH 432 0
DWIDTH 6 0
BBX 4 2 1 9
BITMAP
90
60
ENDCHAR
STARTCHAR 02D9
ENCODING 729
SWIDTH 360 0
DWIDTH 5 0
BBX 1 1 2 9
BITMAP
80
ENDCHAR
STARTCHAR 02DA
ENCODING 730
SWIDTH 360 0
DWIDTH 5 0
BBX 4 3 1 8
BITMAP
60
90
60
ENDCHAR
STARTCHAR 02DB
ENCODING 731
SWIDTH 288 0
DWIDTH 4 0
BBX 3 3 1 -2
BITMAP
40
80
60
ENDCHAR
STARTCHAR 02DC
ENCODING 732
SWIDTH 432 0
DWIDTH 6 0
BBX 6 2 0 8
BITMAP
64
98
ENDCHAR
STARTCHAR 02DD
ENCODING 733
SWIDTH 432 0
DWIDTH 6 0
BBX 5 2 1 8
BITMAP
48
90
ENDCHAR
STARTCHAR 037E
ENCODING 894
SWIDTH 432 0
DWIDTH 6 0
BBX 2 8 2 1
BITMAP
40
00
00
00
00
00
40
80
ENDCHAR
STARTCHAR 0384
ENCODING 900
SWIDTH 288 0
DWIDTH 4 0
BBX 1 2 2 9
BITMAP
80
80
ENDCHAR
STARTCHAR 0385
ENCODING 901
SWIDTH 432 0
DWIDTH 6 0
BBX 5 2 1 9
BITMAP
20
A8
ENDCHAR
STARTCHAR 0386
ENCODING 902
SWIDTH 648 0
DWIDTH 9 0
BBX 7 10 1 0
BITMAP
90
90
28
28
44
44
7C
82
82
82
ENDCHAR
STARTCHAR 0387
ENCODING 903
SWIDTH 360 0
DWIDTH 5 0
BBX 1 1 2 5
BITMAP
80
ENDCHAR
STARTCHAR 0388
ENCODING 904
SWIDTH 720 0
DWIDTH 10 0
BBX 9 10 1 0
BITMAP
BF80
A000
2000
2000
3F00
2000
2000
2000
2000
3F80
ENDCHAR
STARTCHAR 0389
ENCODING 905
SWIDTH 864 0
DWIDTH 12 0
BBX 10 10 1 0
BITMAP
A040
A040
2040
2040
3FC0
2040
2040
2040
2040
2040
ENDCHAR
STARTCHAR 038A
ENCODING 906
SWIDTH 360 0
DWIDTH 5 0
BBX 3 10 1 0
BITMAP
A0
A0
20
20
20
20
20
20
20
20
ENDCHAR
STARTCHAR 038C
ENCODING 908
SWIDTH 792 0
DWIDTH 11 0
BBX 9 10 1 0
BITMAP
9C00
A200
4100
8080
8080
8080
8080
4100
2200
1C00
ENDCHAR
STARTCHAR 038E
ENCODING 910
SWIDTH 720 0
DWIDTH 10 0
BBX 9 10 1 0
BITMAP
A080
A080
1100
1100
0A00
0400
0400
0400
0400
0400
ENDCHAR
STARTCHAR 038F
ENCODING 911
SWIDTH 792 0
DWIDTH 11 0
BBX 9 10 1 0
BITMAP
9E00
A100
4080
4080
4080
4080
2100
5280
5280
7380
ENDCHAR
STARTCHAR 0390
ENCODING 912
SWIDTH 432 0
DWIDTH 6 0
BBX 6 11 0 0
BITMAP
20
A8
00
20
20
20
20
20
24
24
18
ENDCHAR
STARTCHAR 0391
ENCODING 913
SWIDTH 648 0
DWIDTH 9 0
BBX 7 10 1 0
BITMAP
10
10
28
28
44
44
7C
82
82
82
ENDCHAR
STARTCHAR 0392
ENCODING 914
SWIDTH 648 0
DWIDTH 9 0
BBX 8 10 1 0
BITMAP
F8
84
82
84
FC
82
81
81
82
FC
ENDCHAR
STARTCHAR 0393
ENCODING 915
SWIDTH 576 0
DWIDTH 8 0
BBX 7 10 1 0
BITMAP
FE
80
80
80
80
80
80
80
80
80
ENDCHAR
STARTCHAR 0394
ENCODING 916
SWIDTH 648 0
DWIDTH 9 0
BBX 7 10 1 0
BITMAP
10
10
28
28
44
44
44
82
82
FE
ENDCHAR
STARTCHAR 0395
ENCODING 917
SWIDTH 648 0
DWIDTH 9 0
BBX 7 10 1 0
BITMAP
FE
80
80
80
FC
80
80
80
80
FE
ENDCHAR
STARTCHAR 0396
ENCODING 918
SWIDTH 648 0
DWIDTH 9 0
BBX 7 10 1 0
BITMAP
FE
02
04
08
10
10
20
40
80
FE
ENDCHAR
STARTCHAR 0397
ENCODING 919
SWIDTH 792 0
DWIDTH 11 0
BBX 9 10 1 0
BITMAP
8080
8080
8080
8080
FF80
8080
8080
8080
8080
8080
ENDCHAR
STARTCHAR 0398
ENCODING 920
SWIDTH 792 0
DWIDTH 11 0
BBX 9 10 1 0
BITMAP
1C00
2200
4100
8080
BE80
8080
8080
4100
2200
1C00
ENDCHAR
STARTCHAR 0399
ENCODING 921
SWIDTH 288 0
DWIDTH 4 0
BBX 1 10 2 0
BITMAP
80
80
80
80
80
80
80
80
80
80
ENDCHAR
STARTCHAR 039A
ENCODING 922
SWIDTH 720 0
DWIDTH 10 0
BBX 9 10 1 0
BITMAP
8100
8200
8400
8800
9000
A800
C400
8200
8100
8080
ENDCHAR
STARTCHAR 039B
ENCODING 923
SWIDTH 648 0
DWIDTH 9 0
BBX 7 10 1 0
BITMAP
10
10
28
28
44
44
44
82
82
82
ENDCHAR
STARTCHAR 039C
ENCODING 924
SWIDTH 864 0
DWIDTH 12 0
BBX 10 10 1 0
BITMAP
8040
8040
C0C0
C0C0
A140
A140
9240
9240
8C40
8C40
ENDCHAR
STARTCHAR 039D
ENCODING 925
SWIDTH 792 0
DWIDTH 11 0
BBX 9 10 1 0
BITMAP
8080
C080
A080
9080
8880
8880
8480
8280
8180
8080
ENDCHAR
STARTCHAR 039E
ENCODING 926
SWIDTH 720 0
DWIDTH 10 0
BBX 8 10 1 0
BITMAP
FF
00
00
00
7E
00
00
00
00
FF
ENDCHAR
STARTCHAR 039F
ENCODING 927
SWIDTH 792 0
DWIDTH 11 0
BBX 9 10 1 0
BITMAP
1C00
2200
4100
8080
8080
8080
8080
4100
2200
1C00
ENDCHAR
STARTCHAR 03A0
ENCODING 928
SWIDTH 648 0
DWIDTH 9 0
BBX 7 10 1 0
BITMAP
FE
82
82
82
82
82
82
82
82
82
ENDCHAR
STARTCHAR 03A1
ENCODING 929
SWIDTH 648 0
DWIDTH 9 0
BBX 7 10 1 0
BITMAP
F8
84
82
82
84
F8
80
80
80
80
ENDCHAR
STARTCHAR 03A3
ENCODING 931
SWIDTH 648 0
DWIDTH 9 0
BBX 8 10 1 0
BITMAP
FF
40
20
10
08
08
10
20
40
FF
ENDCHAR
STARTCHAR 03A4
ENCODING 932
SWIDTH 576 0
DWIDTH 8 0
BBX 7 10 1 0
BITMAP
FE
10
10
10
10
10
10
10
10
10
ENDCHAR
STARTCHAR 03A5
ENCODING 933
SWIDTH 648 0
DWIDTH 9 0
BBX 7 10 1 0
BITMAP
82
82
44
44
28
10
10
10
10
10
ENDCHAR
STARTCHAR 03A6
ENCODING 934
SWIDTH 792 0
DWIDTH 11 0
BBX 9 10 1 0
BITMAP
0800
0800
3E00
4900
8880
8880
4900
3E00
0800
0800
ENDCHAR
STARTCHAR 03A7
ENCODING 935
SWIDTH 576 0
DWIDTH 8 0
BBX 7 10 1 0
BITMAP
82
44
44
28
10
28
28
44
82
82
ENDCHAR
STARTCHAR 03A8
ENCODING 936
SWIDTH 792 0
DWIDTH 11 0
BBX 9 10 1 0
BITMAP
8880
4900
4900
4900
4900
2A00
1C00
0800
0800
0800
ENDCHAR
STARTCHAR 03A9
ENCODING 937
SWIDTH 720 0
DWIDTH 10 0
BBX 8 10 1 0
BITMAP
3C
42
81
81
81
81
42
A5
A5
E7
ENDCHAR
STARTCHAR 03AA
ENCODING 938
SWIDTH 288 0
DWIDTH 4 0
BBX 3 12 1 0
BITMAP
A0
00
40
40
40
40
40
40
40
40
40
40
ENDCHAR
STARTCHAR 03AB
ENCODING 939
SWIDTH 648 0
DWIDTH 9 0
BBX 7 12 1 0
BITMAP
28
00
82
82
44
44
28
10
10
10
10
10
ENDCHAR
STARTCHAR 03AC
ENCODING 940
SWIDTH 576 0
DWIDTH 8 0
BBX 7 11 1 0
BITMAP
10
10
00
32
4A
84
84
84
84
4A
32
ENDCHAR
STARTCHAR 03AD
ENCODING 941
SWIDTH 576 0
DWIDTH 8 0
BBX 6 11 1 0
BITMAP
10
10
00
78
84
80
70
80
80
84
78
ENDCHAR
STARTCHAR 03AE
ENCODING 942
SWIDTH 648 0
DWIDTH 9 0
BBX 8 13 1 -2
BITMAP
10
10
00
B0
C8
84
84
84
84
84
84
05
02
ENDCHAR
STARTCHAR 03AF
ENCODING 943
SWIDTH 360 0
DWIDTH 5 0
BBX 4 11 1 0
BITMAP
80
80
00
80
80
80
80
80
90
90
60
ENDCHAR
STARTCHAR 03B0
ENCODING 944
SWIDTH 576 0
DWIDTH 8 0
BBX 6 11 1 0
BITMAP
20
A8
00
88
84
84
84
84
84
88
70
ENDCHAR
STARTCHAR 03B1
ENCODING 945
SWIDTH 576 0
DWIDTH 8 0
BBX 7 8 1 0
BITMAP
32
4A
84
84
84
84
4A
32
ENDCHAR
STARTCHAR 03B2
ENCODING 946
SWIDTH 504 0
DWIDTH 7 0
BBX 6 12 1 -2
BITMAP
30
48
84
88
B0
88
84
84
C8
B0
80
80
ENDCHAR
STARTCHAR 03B3
ENCODING 947
SWIDTH 504 0
DWIDTH 7 0
BBX 5 10 1 -2
BITMAP
88
88
88
50
50
50
20
50
50
20
ENDCHAR
STARTCHAR 03B4
ENCODING 948
SWIDTH 648 0
DWIDTH 9 0
BBX 7 10 1 0
BITMAP
18
24
10
38
44
82
82
82
44
38
ENDCHAR
STARTCHAR 03B5
ENCODING 949
SWIDTH 576 0
DWIDTH 8 0
BBX 6 8 1 0
BITMAP
78
84
80
70
80
80
84
78
ENDCHAR
STARTCHAR 03B6
ENCODING 950
SWIDTH 504 0
DWIDTH 7 0
BBX 5 12 1 -2
BITMAP
F0
10
20
40
80
80
80
40
30
08
08
70
ENDCHAR
STARTCHAR 03B7
ENCODING 951
SWIDTH 648 0
DWIDTH 9 0
BBX 8 10 1 -2
BITMAP
B0
C8
84
84
84
84
84
84
05
02
ENDCHAR
STARTCHAR 03B8
ENCODING 952
SWIDTH 792 0
DWIDTH 11 0
BBX 9 10 1 0
BITMAP
1C00
2200
4100
8080
FF80
8080
8080
4100
2200
1C00
ENDCHAR
STARTCHAR 03B9
ENCODING 953
SWIDTH 360 0
DWIDTH 5 0
BBX 4 8 1 0
BITMAP
80
80
80
80
80
90
90
60
ENDCHAR
STARTCHAR 03BA
ENCODING 954
SWIDTH 576 0
DWIDTH 8 0
BBX 7 8 1 0
BITMAP
84
88
90
A0
D0
88
84
82
ENDCHAR
STARTCHAR 03BB
ENCODING 955
SWIDTH 648 0
DWIDTH 9 0
BBX 8 10 1 0
BITMAP
C0
20
20
10
10
28
28
44
45
82
ENDCHAR
STARTCHAR 03BC
ENCODING 956
SWIDTH 576 0
DWIDTH 8 0
BBX 6 10 1 -2
BITMAP
84
84
84
84
84
84
CC
B4
80
80
ENDCHAR
STARTCHAR 03BD
ENCODING 957
SWIDTH 504 0
DWIDTH 7 0
BBX 6 8 1 0
BITMAP
C4
44
44
28
28
28
10
10
ENDCHAR
STARTCHAR 03BE
ENCODING 958
SWIDTH 504 0
DWIDTH 7 0
BBX 5 12 1 -2
BITMAP
F0
10
20
60
10
20
40
40
40
30
08
30
ENDCHAR
STARTCHAR 03BF
ENCODING 959
SWIDTH 648 0
DWIDTH 9 0
BBX 7 8 1 0
BITMAP
38
44
82
82
82
82
44
38
ENDCHAR
STARTCHAR 03C0
ENCODING 960
SWIDTH 648 0
DWIDTH 9 0
BBX 8 7 1 0
BITMAP
FE
28
28
28
28
29
C6
ENDCHAR
STARTCHAR 03C1
ENCODING 961
SWIDTH 648 0
DWIDTH 9 0
BBX 7 10 1 -2
BITMAP
38
44
82
82
82
82
C4
B8
80
80
ENDCHAR
STARTCHAR 03C2
ENCODING 962
SWIDTH 504 0
DWIDTH 7 0
BBX 6 10 1 -2
BITMAP
30
48
84
80
80
80
40
30
08
30
ENDCHAR
STARTCHAR 03C3
ENCODING 963
SWIDTH 648 0
DWIDTH 9 0
BBX 8 8 1 0
BITMAP
3F
44
82
82
82
82
44
38
ENDCHAR
STARTCHAR 03C4
ENCODING 964
SWIDTH 576 0
DWIDTH 8 0
BBX 7 8 1 0
BITMAP
FE
10
10
10
10
12
12
0C
ENDCHAR
STARTCHAR 03C5
ENCODING 965
SWIDTH 576 0
DWIDTH 8 0
BBX 6 8 1 0
BITMAP
88
84
84
84
84
84
88
70
ENDCHAR
STARTCHAR 03C6
ENCODING 966
SWIDTH 648 0
DWIDTH 9 0
BBX 7 12 1 -2
BITMAP
10
10
38
54
92
92
92
92
54
38
10
10
ENDCHAR
STARTCHAR 03C7
ENCODING 967
SWIDTH 576 0
DWIDTH 8 0
BBX 8 9 0 -2
BITMAP
61
12
14
08
08
14
24
44
83
ENDCHAR
STARTCHAR 03C8
ENCODING 968
SWIDTH 792 0
DWIDTH 11 0
BBX 9 10 1 -2
BITMAP
8880
4900
4900
4900
4900
4900
2A00
1C00
0800
0800
ENDCHAR
STARTCHAR 03C9
ENCODING 969
SWIDTH 792 0
DWIDTH 11 0
BBX 9 8 1 0
BITMAP
2200
4100
8080
8880
8880
8880
4900
3600
ENDCHAR
STARTCHAR 03CA
ENCODING 970
SWIDTH 360 0
DWIDTH 5 0
BBX 5 10 0 0
BITMAP
A0
00
40
40
40
40
40
48
48
30
ENDCHAR
STARTCHAR 03CB
ENCODING 971
SWIDTH 576 0
DWIDTH 8 0
BBX 6 10 1 0
BITMAP
50
00
88
84
84
84
84
84
88
70
ENDCHAR
STARTCHAR 03CC
ENCODING 972
SWIDTH 648 0
DWIDTH 9 0
BBX 7 11 1 0
BITMAP
10
10
00
38
44
82
82
82
82
44
38
ENDCHAR
STARTCHAR 03CD
ENCODING 973
SWIDTH 576 0
DWIDTH 8 0
BBX 6 11 1 0
BITMAP
20
20
00
88
84
84
84
84
84
88
70
ENDCHAR
STARTCHAR 03CE
ENCODING 974
SWIDTH 792 0
DWIDTH 11 0
BBX 9 11 1 0
BITMAP
0800
0800
0000
2200
4100
8080
8880
8880
8880
4900
3600
ENDCHAR
STARTCHAR 0401
ENCODING 1025
SWIDTH 648 0
DWIDTH 9 0
BBX 7 12 1 0
BITMAP
28
00
FE
80
80
80
FC
80
80
80
80
FE
ENDCHAR
STARTCHAR 0402
ENCODING 1026
SWIDTH 720 0
DWIDTH 10 0
BBX 10 12 0 -2
BITMAP
FE00
1000
1000
1700
1880
1040
1040
1040
1040
1040
0080
0100
ENDCHAR
STARTCHAR 0403
ENCODING 1027
SWIDTH 576 0
DWIDTH 8 0
BBX 7 12 1 0
BITMAP
08
10
FE
80
80
80
80
80
80
80
80
80
ENDCHAR
STARTCHAR 0404
ENCODING 1028
SWIDTH 720 0
DWIDTH 10 0
BBX 8 10 1 0
BITMAP
1E
21
40
80
FE
80
80
40
21
1E
ENDCHAR
STARTCHAR 0405
ENCODING 1029
SWIDTH 648 0
DWIDTH 9 0
BBX 7 10 1 0
BITMAP
38
44
82
40
30
0C
82
82
44
38
ENDCHAR
STARTCHAR 0406
ENCODING 1030
SWIDTH 288 0
DWIDTH 4 0
BBX 1 10 2 0
BITMAP
80
80
80
80
80
80
80
80
80
80
ENDCHAR
STARTCHAR 0407
ENCODING 1031
SWIDTH 288 0
DWIDTH 4 0
BBX 3 12 1 0
BITMAP
A0
00
40
40
40
40
40
40
40
40
40
40
ENDCHAR
STARTCHAR 0408
ENCODING 1032
SWIDTH 576 0
DWIDTH 8 0
BBX 7 10 0 0
BITMAP
02
02
02
02
02
02
02
82
44
38
ENDCHAR
STARTCHAR 0409
ENCODING 1033
SWIDTH 936 0
DWIDTH 13 0
BBX 12 10 1 0
BITMAP
3C00
2400
2400
2400
27C0
2420
2410
2410
4420
87C0
ENDCHAR
STARTCHAR 040A
ENCODING 1034
SWIDTH 936 0
DWIDTH 13 0
BBX 12 10 1 0
BITMAP
8400
8400
8400
8400
FFC0
8420
8410
8410
8420
87C0
ENDCHAR
STARTCHAR 040B
ENCODING 1035
SWIDTH 720 0
DWIDTH 10 0
BBX 9 10 0 0
BITMAP
FE00
1000
1700
1880
1080
1080
1080
1080
1080
1080
ENDCHAR
STARTCHAR 040C
ENCODING 1036
SWIDTH 720 0
DWIDTH 10 0
BBX 9 12 1 0
BITMAP
0800
1000
8100
8200
8400
8800
9000
A800
C400
8200
8100
8080
ENDCHAR
STARTCHAR 040E
ENCODING 1038
SWIDTH 504 0
DWIDTH 7 0
BBX 6 12 1 0
BITMAP
D8
70
84
84
84
48
48
50
30
20
20
C0
ENDCHAR
STARTCHAR 040F
ENCODING 1039
SWIDTH 720 0
DWIDTH 10 0
BBX 8 12 1 -2
BITMAP
81
81
81
81
81
81
81
81
81
FF
08
08
ENDCHAR
STARTCHAR 0410
ENCODING 1040
SWIDTH 648 0
DWIDTH 9 0
BBX 7 10 1 0
BITMAP
10
10
28
28
44
44
7C
82
82
82
ENDCHAR
STARTCHAR 0411
ENCODING 1041
SWIDTH 648 0
DWIDTH 9 0
BBX 8 10 1 0
BITMAP
FE
80
80
80
FC
82
81
81
82
FC
ENDCHAR
STARTCHAR 0412
ENCODING 1042
SWIDTH 648 0
DWIDTH 9 0
BBX 8 10 1 0
BITMAP
F8
84
82
84
FC
82
81
81
82
FC
ENDCHAR
STARTCHAR 0413
ENCODING 1043
SWIDTH 576 0
DWIDTH 8 0
BBX 7 10 1 0
BITMAP
FE
80
80
80
80
80
80
80
80
80
ENDCHAR
STARTCHAR 0414
ENCODING 1044
SWIDTH 792 0
DWIDTH 11 0
BBX 9 12 1 -2
BITMAP
1F00
1100
1100
1100
1100
2100
2100
2100
4100
7F00
8080
8080
ENDCHAR
STARTCHAR 0415
ENCODING 1045
SWIDTH 648 0
DWIDTH 9 0
BBX 7 10 1 0
BITMAP
FE
80
80
80
FC
80
80
80
80
FE
ENDCHAR
STARTCHAR 0416
ENCODING 1046
SWIDTH 936 0
DWIDTH 13 0
BBX 11 10 1 0
BITMAP
C460
2480
1500
1500
1500
1F00
1500
1500
2480
C460
ENDCHAR
STARTCHAR 0417
ENCODING 1047
SWIDTH 576 0
DWIDTH 8 0
BBX 6 10 1 0
BITMAP
30
48
84
08
30
08
04
84
48
30
ENDCHAR
STARTCHAR 0418
ENCODING 1048
SWIDTH 792 0
DWIDTH 11 0
BBX 8 10 2 0
BITMAP
81
81
83
85
89
91
A1
C1
81
81
ENDCHAR
STARTCHAR 0419
ENCODING 1049
SWIDTH 792 0
DWIDTH 11 0
BBX 8 12 2 0
BITMAP
36
1C
81
81
83
85
89
91
A1
C1
81
81
ENDCHAR
STARTCHAR 041A
ENCODING 1050
SWIDTH 720 0
DWIDTH 10 0
BBX 9 10 1 0
BITMAP
8100
8200
8400
8800
9000
A800
C400
8200
8100
8080
ENDCHAR
STARTCHAR 041B
ENCODING 1051
SWIDTH 720 0
DWIDTH 10 0
BBX 7 10 1 0
BITMAP
3E
22
22
22
22
22
22
22
22
C2
ENDCHAR
STARTCHAR 041C
ENCODING 1052
SWIDTH 864 0
DWIDTH 12 0
BBX 10 10 1 0
BITMAP
8040
8040
C0C0
C0C0
A140
A140
9240
9240
8C40
8C40
ENDCHAR
STARTCHAR 041D
ENCODING 1053
SWIDTH 792 0
DWIDTH 11 0
BBX 9 10 1 0
BITMAP
8080
8080
8080
8080
FF80
8080
8080
8080
8080
8080
ENDCHAR
STARTCHAR 041E
ENCODING 1054
SWIDTH 792 0
DWIDTH 11 0
BBX 9 10 1 0
BITMAP
1C00
2200
4100
8080
8080
8080
8080
4100
2200
1C00
ENDCHAR
STARTCHAR 041F
ENCODING 1055
SWIDTH 720 0
DWIDTH 10 0
BBX 8 10 1 0
BITMAP
FF
81
81
81
81
81
81
81
81
81
ENDCHAR
STARTCHAR 0420
ENCODING 1056
SWIDTH 648 0
DWIDTH 9 0
BBX 7 10 1 0
BITMAP
F8
84
82
82
84
F8
80
80
80
80
ENDCHAR
STARTCHAR 0421
ENCODING 1057
SWIDTH 792 0
DWIDTH 11 0
BBX 9 10 1 0
BITMAP
1E00
2100
4080
8000
8000
8000
8000
4080
2100
1E00
ENDCHAR
STARTCHAR 0422
ENCODING 1058
SWIDTH 576 0
DWIDTH 8 0
BBX 7 10 1 0
BITMAP
FE
10
10
10
10
10
10
10
10
10
ENDCHAR
STARTCHAR 0423
ENCODING 1059
SWIDTH 504 0
DWIDTH 7 0
BBX 6 10 1 0
BITMAP
84
84
84
48
48
50
30
20
20
C0
ENDCHAR
STARTCHAR 0424
ENCODING 1060
SWIDTH 792 0
DWIDTH 11 0
BBX 9 11 1 -1
BITMAP
0800
0800
3E00
4900
8880
8880
8880
4900
3E00
0800
0800
ENDCHAR
STARTCHAR 0425
ENCODING 1061
SWIDTH 576 0
DWIDTH 8 0
BBX 7 10 1 0
BITMAP
82
44
44
28
10
28
28
44
82
82
ENDCHAR
STARTCHAR 0426
ENCODING 1062
SWIDTH 720 0
DWIDTH 10 0
BBX 9 12 1 -2
BITMAP
8100
8100
8100
8100
8100
8100
8100
8100
8100
FF00
0080
0080
ENDCHAR
STARTCHAR 0427
ENCODING 1063
SWIDTH 576 0
DWIDTH 8 0
BBX 6 10 1 0
BITMAP
84
84
84
84
84
84
4C
34
04
04
ENDCHAR
STARTCHAR 0428
ENCODING 1064
SWIDTH 936 0
DWIDTH 13 0
BBX 11 10 1 0
BITMAP
8420
8420
8420
8420
8420
8420
8420
8420
8420
FFE0
ENDCHAR
STARTCHAR 0429
ENCODING 1065
SWIDTH 936 0
DWIDTH 13 0
BBX 12 12 1 -2
BITMAP
8420
8420
8420
8420
8420
8420
8420
8420
8420
FFE0
0010
0010
ENDCHAR
STARTCHAR 042A
ENCODING 1066
SWIDTH 792 0
DWIDTH 11 0
BBX 10 10 0 0
BITMAP
F000
1000
1000
1000
1F00
1080
1040
1040
1080
1F00
ENDCHAR
STARTCHAR 042B
ENCODING 1067
SWIDTH 792 0
DWIDTH 11 0
BBX 9 10 1 0
BITMAP
8080
8080
8080
8080
F880
8480
8280
8280
8480
F880
ENDCHAR
STARTCHAR 042C
ENCODING 1068
SWIDTH 648 0
DWIDTH 9 0
BBX 7 10 1 0
BITMAP
80
80
80
80
F8
84
82
82
84
F8
ENDCHAR
STARTCHAR 042D
ENCODING 1069
SWIDTH 792 0
DWIDTH 11 0
BBX 9 10 1 0
BITMAP
3C00
4200
8100
0080
3F80
0080
0080
8100
4200
3C00
ENDCHAR
STARTCHAR 042E
ENCODING 1070
SWIDTH 1008 0
DWIDTH 14 0
BBX 12 10 1 0
BITMAP
8380
8440
8820
9010
F010
9010
9010
8820
8440
8380
ENDCHAR
STARTCHAR 042F
ENCODING 1071
SWIDTH 720 0
DWIDTH 10 0
BBX 8 10 1 0
BITMAP
3F
41
81
81
41
3F
41
81
81
81
ENDCHAR
STARTCHAR 0430
ENCODING 1072
SWIDTH 576 0
DWIDTH 8 0
BBX 7 8 1 0
BITMAP
78
84
04
7C
84
84
84
7A
ENDCHAR
STARTCHAR 0431
ENCODING 1073
SWIDTH 648 0
DWIDTH 9 0
BBX 7 10 1 0
BITMAP
04
18
20
78
44
82
82
82
44
38
ENDCHAR
STARTCHAR 0432
ENCODING 1074
SWIDTH 576 0
DWIDTH 8 0
BBX 6 8 1 0
BITMAP
F8
84
84
F8
84
84
84
F8
ENDCHAR
STARTCHAR 0433
ENCODING 1075
SWIDTH 504 0
DWIDTH 7 0
BBX 6 8 1 0
BITMAP
FC
80
80
80
80
80
80
80
ENDCHAR
STARTCHAR 0434
ENCODING 1076
SWIDTH 648 0
DWIDTH 9 0
BBX 8 10 1 -2
BITMAP
1E
12
12
12
22
22
42
7E
81
81
ENDCHAR
STARTCHAR 0435
ENCODING 1077
SWIDTH 576 0
DWIDTH 8 0
BBX 6 8 1 0
BITMAP
30
48
84
FC
80
80
44
38
ENDCHAR
STARTCHAR 0436
ENCODING 1078
SWIDTH 720 0
DWIDTH 10 0
BBX 9 8 1 0
BITMAP
C980
2A00
2A00
3E00
2A00
2A00
2A00
C980
ENDCHAR
STARTCHAR 0437
ENCODING 1079
SWIDTH 576 0
DWIDTH 8 0
BBX 6 8 1 0
BITMAP
78
84
04
38
04
04
84
78
ENDCHAR
STARTCHAR 0438
ENCODING 1080
SWIDTH 648 0
DWIDTH 9 0
BBX 7 8 1 0
BITMAP
82
86
8A
92
A2
C2
82
82
ENDCHAR
STARTCHAR 0439
ENCODING 1081
SWIDTH 648 0
DWIDTH 9 0
BBX 7 10 1 0
BITMAP
6C
38
82
86
8A
92
A2
C2
82
82
ENDCHAR
STARTCHAR 043A
ENCODING 1082
SWIDTH 576 0
DWIDTH 8 0
BBX 7 8 1 0
BITMAP
84
88
90
A0
D0
88
84
82
ENDCHAR
STARTCHAR 043B
ENCODING 1083
SWIDTH 576 0
DWIDTH 8 0
BBX 7 8 0 0
BITMAP
3E
22
22
22
22
22
22
C2
ENDCHAR
STARTCHAR 043C
ENCODING 1084
SWIDTH 720 0
DWIDTH 10 0
BBX 8 8 1 0
BITMAP
81
C3
C3
A5
A5
99
99
81
ENDCHAR
STARTCHAR 043D
ENCODING 1085
SWIDTH 648 0
DWIDTH 9 0
BBX 7 8 1 0
BITMAP
82
82
82
FE
82
82
82
82
ENDCHAR
STARTCHAR 043E
ENCODING 1086
SWIDTH 648 0
DWIDTH 9 0
BBX 7 8 1 0
BITMAP
38
44
82
82
82
82
44
38
ENDCHAR
STARTCHAR 043F
ENCODING 1087
SWIDTH 648 0
DWIDTH 9 0
BBX 7 8 1 0
BITMAP
FE
82
82
82
82
82
82
82
ENDCHAR
STARTCHAR 0440
ENCODING 1088
SWIDTH 648 0
DWIDTH 9 0
BBX 7 10 1 -2
BITMAP
B8
C4
82
82
82
82
C4
B8
80
80
ENDCHAR
STARTCHAR 0441
ENCODING 1089
SWIDTH 576 0
DWIDTH 8 0
BBX 6 8 1 0
BITMAP
38
44
80
80
80
80
44
38
ENDCHAR
STARTCHAR 0442
ENCODING 1090
SWIDTH 576 0
DWIDTH 8 0
BBX 7 8 1 0
BITMAP
FE
10
10
10
10
10
10
10
ENDCHAR
STARTCHAR 0443
ENCODING 1091
SWIDTH 504 0
DWIDTH 7 0
BBX 6 10 1 -2
BITMAP
84
84
84
48
48
50
30
20
20
C0
ENDCHAR
STARTCHAR 0444
ENCODING 1092
SWIDTH 792 0
DWIDTH 11 0
BBX 9 12 1 -2
BITMAP
0800
0800
2A00
5D00
8880
8880
8880
8880
5D00
2A00
0800
0800
ENDCHAR
STARTCHAR 0445
ENCODING 1093
SWIDTH 504 0
DWIDTH 7 0
BBX 5 8 1 0
BITMAP
88
88
50
20
20
50
88
88
ENDCHAR
STARTCHAR 0446
ENCODING 1094
SWIDTH 576 0
DWIDTH 8 0
BBX 7 10 1 -2
BITMAP
84
84
84
84
84
84
84
FC
02
02
ENDCHAR
STARTCHAR 0447
ENCODING 1095
SWIDTH 576 0
DWIDTH 8 0
BBX 6 8 1 0
BITMAP
84
84
84
8C
74
04
04
04
ENDCHAR
STARTCHAR 0448
ENCODING 1096
SWIDTH 792 0
DWIDTH 11 0
BBX 9 8 1 0
BITMAP
8880
8880
8880
8880
8880
8880
8880
FF80
ENDCHAR
STARTCHAR 0449
ENCODING 1097
SWIDTH 792 0
DWIDTH 11 0
BBX 10 10 1 -2
BITMAP
8880
8880
8880
8880
8880
8880
8880
FF80
0040
0040
ENDCHAR
STARTCHAR 044A
ENCODING 1098
SWIDTH 576 0
DWIDTH 8 0
BBX 8 8 0 0
BITMAP
E0
20
20
3E
21
21
21
3E
ENDCHAR
STARTCHAR 044B
ENCODING 1099
SWIDTH 720 0
DWIDTH 10 0
BBX 8 8 1 0
BITMAP
81
81
81
F1
89
89
89
F1
ENDCHAR
STARTCHAR 044C
ENCODING 1100
SWIDTH 504 0
DWIDTH 7 0
BBX 5 8 1 0
BITMAP
80
80
80
F0
88
88
88
F0
ENDCHAR
STARTCHAR 044D
ENCODING 1101
SWIDTH 576 0
DWIDTH 8 0
BBX 6 8 1 0
BITMAP
70
88
04
7C
04
04
88
70
ENDCHAR
STARTCHAR 044E
ENCODING 1102
SWIDTH 792 0
DWIDTH 11 0
BBX 9 8 1 0
BITMAP
8E00
9100
A080
E080
A080
A080
9100
8E00
ENDCHAR
STARTCHAR 044F
ENCODING 1103
SWIDTH 576 0
DWIDTH 8 0
BBX 6 8 1 0
BITMAP
7C
84
84
84
7C
44
84
84
ENDCHAR
STARTCHAR 0451
ENCODING 1105
SWIDTH 576 0
DWIDTH 8 0
BBX 6 10 1 0
BITMAP
48
00
30
48
84
FC
80
80
44
38
ENDCHAR
STARTCHAR 0452
ENCODING 1106
SWIDTH 504 0
DWIDTH 7 0
BBX 7 12 0 -2
BITMAP
40
FC
40
58
64
42
42
42
42
44
04
08
ENDCHAR
STARTCHAR 0453
ENCODING 1107
SWIDTH 504 0
DWIDTH 7 0
BBX 6 10 1 0
BITMAP
10
20
FC
80
80
80
80
80
80
80
ENDCHAR
STARTCHAR 0454
ENCODING 1108
SWIDTH 576 0
DWIDTH 8 0
BBX 6 8 1 0
BITMAP
38
44
80
F8
80
80
44
38
ENDCHAR
STARTCHAR 0455
ENCODING 1109
SWIDTH 576 0
DWIDTH 8 0
BBX 6 8 1 0
BITMAP
78
84
80
60
18
04
84
78
ENDCHAR
STARTCHAR 0456
ENCODING 1110
SWIDTH 288 0
DWIDTH 4 0
BBX 1 10 2 0
BITMAP
80
00
80
80
80
80
80
80
80
80
ENDCHAR
STARTCHAR 0457
ENCODING 1111
SWIDTH 288 0
DWIDTH 4 0
BBX 3 10 1 0
BITMAP
A0
00
40
40
40
40
40
40
40
40
ENDCHAR
STARTCHAR 0458
ENCODING 1112
SWIDTH 288 0
DWIDTH 4 0
BBX 3 12 0 -2
BITMAP
20
00
20
20
20
20
20
20
20
20
20
C0
ENDCHAR
STARTCHAR 0459
ENCODING 1113
SWIDTH 720 0
DWIDTH 10 0
BBX 10 8 0 0
BITMAP
3C00
2400
2400
2780
2440
2440
2440
C780
ENDCHAR
STARTCHAR 045A
ENCODING 1114
SWIDTH 792 0
DWIDTH 11 0
BBX 9 8 1 0
BITMAP
8800
8800
8800
FF00
8880
8880
8880
8F00
ENDCHAR
STARTCHAR 045B
ENCODING 1115
SWIDTH 576 0
DWIDTH 8 0
BBX 7 10 0 0
BITMAP
40
F0
40
58
64
42
42
42
42
42
ENDCHAR
STARTCHAR 045C
ENCODING 1116
SWIDTH 576 0
DWIDTH 8 0
BBX 7 10 1 0
BITMAP
10
20
84
88
90
A0
D0
88
84
82
ENDCHAR
STARTCHAR 045E
ENCODING 1118
SWIDTH 504 0
DWIDTH 7 0
BBX 6 12 1 -2
BITMAP
D8
70
84
84
84
48
48
50
30
20
20
C0
ENDCHAR
STARTCHAR 045F
ENCODING 1119
SWIDTH 648 0
DWIDTH 9 0
BBX 7 10 1 -2
BITMAP
82
82
82
82
82
82
82
FE
10
10
ENDCHAR
STARTCHAR 0490
ENCODING 1168
SWIDTH 576 0
DWIDTH 8 0
BBX 6 12 1 0
BITMAP
04
04
FC
80
80
80
80
80
80
80
80
80
ENDCHAR
STARTCHAR 0491
ENCODING 1169
SWIDTH 504 0
DWIDTH 7 0
BBX 5 10 1 0
BITMAP
08
08
F8
80
80
80
80
80
80
80
ENDCHAR
STARTCHAR 1100
ENCODING 4352
SWIDTH 1008 0
DWIDTH 14 0
BBX 9 7 2 2
BITMAP
FF00
0080
0080
0080
0080
0080
0080
ENDCHAR
STARTCHAR 1101
ENCODING 4353
SWIDTH 1008 0
DWIDTH 14 0
BBX 11 7 1 2
BITMAP
F3C0
0820
0820
0820
0820
0820
0820
ENDCHAR
STARTCHAR 1102
ENCODING 4354
SWIDTH 1008 0
DWIDTH 14 0
BBX 9 7 3 2
BITMAP
8000
8000
8000
8000
8000
8000
7F80
ENDCHAR
STARTCHAR 1103
ENCODING 4355
SWIDTH 1008 0
DWIDTH 14 0
BBX 9 7 3 2
BITMAP
7F80
8000
8000
8000
8000
8000
7F80
ENDCHAR
STARTCHAR 1104
ENCODING 4356
SWIDTH 1008 0
DWIDTH 14 0
BBX 11 7 2 2
BITMAP
79E0
8200
8200
8200
8200
8200
79E0
ENDCHAR
STARTCHAR 1105
ENCODING 4357
SWIDTH 1008 0
DWIDTH 14 0
BBX 8 7 3 2
BITMAP
FE
01
01
7E
80
80
7F
ENDCHAR
STARTCHAR 1106
ENCODING 4358
SWIDTH 1008 0
DWIDTH 14 0
BBX 8 7 3 2
BITMAP
FF
81
81
81
81
81
7E
ENDCHAR
STARTCHAR 1107
ENCODING 4359
SWIDTH 1008 0
DWIDTH 14 0
BBX 8 7 3 2
BITMAP
81
81
FF
81
81
81
7E
ENDCHAR
STARTCHAR 1108
ENCODING 4360
SWIDTH 1008 0
DWIDTH 14 0
BBX 9 7 3 2
BITMAP
9480
9480
F780
9480
9480
9480
6300
ENDCHAR
STARTCHAR 1109
ENCODING 4361
SWIDTH 1008 0
DWIDTH 14 0
BBX 9 7 3 2
BITMAP
0800
0800
0800
1400
1400
2200
C180
ENDCHAR
STARTCHAR 110A
ENCODING 4362
SWIDTH 1008 0
DWIDTH 14 0
BBX 10 7 2 2
BITMAP
2100
2100
2100
2100
5280
5280
8C40
ENDCHAR
STARTCHAR 110B
ENCODING 4363
SWIDTH 1008 0
DWIDTH 14 0
BBX 8 7 3 2
BITMAP
3C
42
81
81
81
42
3C
ENDCHAR
STARTCHAR 110C
ENCODING 4364
SWIDTH 1008 0
DWIDTH 14 0
BBX 9 7 3 2
BITMAP
7F00
0800
0800
0800
1400
2200
C180
ENDCHAR
STARTCHAR 110D
ENCODING 4365
SWIDTH 1008 0
DWIDTH 14 0
BBX 10 7 2 2
BITMAP
FFC0
2100
2100
2100
5280
5280
8C40
ENDCHAR
STARTCHAR 110E
ENCODING 4366
SWIDTH 1008 0
DWIDTH 14 0
BBX 9 8 3 1
BITMAP
1C00
0000
7F00
0800
0800
1400
2200
C180
ENDCHAR
STARTCHAR 110F
ENCODING 4367
SWIDTH 1008 0
DWIDTH 14 0
BBX 8 7 3 2
BITMAP
FE
01
01
FF
01
01
01
ENDCHAR
STARTCHAR 1110
ENCODING 4368
SWIDTH 1008 0
DWIDTH 14 0
BBX 8 7 3 2
BITMAP
7F
80
80
FF
80
80
7F
ENDCHAR
STARTCHAR 1111
ENCODING 4369
SWIDTH 1008 0
DWIDTH 14 0
BBX 9 7 3 2
BITMAP
FF80
0000
2200
2200
2200
2200
FF80
ENDCHAR
STARTCHAR 1112
ENCODING 4370
SWIDTH 1008 0
DWIDTH 14 0
BBX 10 8 2 1
BITMAP
1E00
0000
FFC0
0000
1E00
2100
2100
1E00
ENDCHAR
STARTCHAR 1113
ENCODING 4371
SWIDTH 1008 0
DWIDTH 14 0
BBX 10 7 2 2
BITMAP
8780
8040
8040
8040
8040
8040
7840
ENDCHAR
STARTCHAR 1114
ENCODING 4372
SWIDTH 1008 0
DWIDTH 14 0
BBX 10 7 2 2
BITMAP
8400
8400
8400
8400
8400
8400
73C0
ENDCHAR
STARTCHAR 1115
ENCODING 4373
SWIDTH 1008 0
DWIDTH 14 0
BBX 10 7 2 2
BITMAP
83C0
8400
8400
8400
8400
8400
73C0
ENDCHAR
STARTCHAR 1116
ENCODING 4374
SWIDTH 1008 0
DWIDTH 14 0
BBX 10 7 2 2
BITMAP
8440
8440
87C0
8440
8440
8440
7380
ENDCHAR
STARTCHAR 1117
ENCODING 4375
SWIDTH 1008 0
DWIDTH 14 0
BBX 10 7 2 2
BITMAP
7B80
8040
8040
8040
8040
8040
7840
ENDCHAR
STARTCHAR 1118
ENCODING 4376
SWIDTH 1008 0
DWIDTH 14 0
BBX 11 7 2 2
BITMAP
F200
0A00
0A00
7200
8200
8200
79E0
ENDCHAR
STARTCHAR 1119
ENCODING 4377
SWIDTH 1008 0
DWIDTH 14 0
BBX 11 7 2 2
BITMAP
F3C0
0820
0820
71C0
8200
8200
79E0
ENDCHAR
STARTCHAR 111A
ENCODING 4378
SWIDTH 1008 0
DWIDTH 14 0
BBX 12 7 2 2
BITMAP
F1C0
0800
0FF0
71C0
8220
8220
79C0
ENDCHAR
STARTCHAR 111B
ENCODING 4379
SWIDTH 1008 0
DWIDTH 14 0
BBX 7 11 4 -1
BITMAP
FC
02
7C
80
80
7E
00
7C
82
82
7C
ENDCHAR
STARTCHAR 111C
ENCODING 4380
SWIDTH 1008 0
DWIDTH 14 0
BBX 11 7 2 2
BITMAP
FA20
8A20
8BE0
8A20
8A20
8A20
71C0
ENDCHAR
STARTCHAR 111D
ENCODING 4381
SWIDTH 1008 0
DWIDTH 14 0
BBX 7 10 4 0
BITMAP
FE
82
82
82
7C
00
7C
82
82
7C
ENDCHAR
STARTCHAR 111E
ENCODING 4382
SWIDTH 1008 0
DWIDTH 14 0
BBX 11 7 2 2
BITMAP
8BC0
8820
F820
8820
8820
8820
7020
ENDCHAR
STARTCHAR 111F
ENCODING 4383
SWIDTH 1008 0
DWIDTH 14 0
BBX 11 7 2 2
BITMAP
8A00
8A00
FA00
8A00
8A00
8A00
71E0
ENDCHAR
STARTCHAR 1120
ENCODING 4384
SWIDTH 1008 0
DWIDTH 14 0
BBX 11 7 2 2
BITMAP
89E0
8A00
FA00
8A00
8A00
8A00
71E0
ENDCHAR
STARTCHAR 1121
ENCODING 4385
SWIDTH 1008 0
DWIDTH 14 0
BBX 11 7 2 2
BITMAP
8880
8880
F880
8880
8940
8940
7220
ENDCHAR
STARTCHAR 1122
ENCODING 4386
SWIDTH 1008 0
DWIDTH 14 0
BBX 12 7 1 2
BITMAP
92E0
9210
F210
9210
9510
9510
6890
ENDCHAR
STARTCHAR 1123
ENCODING 4387
SWIDTH 1008 0
DWIDTH 14 0
BBX 12 7 1 2
BITMAP
9230
9240
F240
9240
9540
9540
68B0
ENDCHAR
STARTCHAR 1124
ENCODING 4388
SWIDTH 1008 0
DWIDTH 14 0
BBX 13 7 1 2
BITMAP
9248
9248
F278
9248
9548
9548
68B0
ENDCHAR
STARTCHAR 1125
ENCODING 4389
SWIDTH 1008 0
DWIDTH 14 0
BBX 13 7 1 2
BITMAP
9220
9220
F220
9220
9550
9550
6888
ENDCHAR
STARTCHAR 1126
ENCODING 4390
SWIDTH 1008 0
DWIDTH 14 0
BBX 13 7 1 2
BITMAP
92F8
9220
F220
9220
9550
9550
6888
ENDCHAR
STARTCHAR 1127
ENCODING 4391
SWIDTH 1008 0
DWIDTH 14 0
BBX 11 7 1 2
BITMAP
8BE0
8880
F880
8880
8940
8940
7220
ENDCHAR
STARTCHAR 1128
ENCODING 4392
SWIDTH 1008 0
DWIDTH 14 0
BBX 11 7 2 2
BITMAP
89C0
8800
FBE0
8880
8880
8940
7220
ENDCHAR
STARTCHAR 1129
ENCODING 4393
SWIDTH 1008 0
DWIDTH 14 0
BBX 11 7 2 2
BITMAP
89E0
8A00
FA00
8BE0
8A00
8A00
71E0
ENDCHAR
STARTCHAR 112A
ENCODING 4394
SWIDTH 1008 0
DWIDTH 14 0
BBX 11 7 2 2
BITMAP
8BE0
8800
F940
8940
8940
8940
73E0
ENDCHAR
STARTCHAR 112B
ENCODING 4395
SWIDTH 1008 0
DWIDTH 14 0
BBX 7 10 4 0
BITMAP
82
82
FE
82
7C
00
7C
82
82
7C
ENDCHAR
STARTCHAR 112C
ENCODING 4396
SWIDTH 1008 0
DWIDTH 14 0
BBX 9 10 3 0
BITMAP
9480
9480
F780
9480
6300
0000
3E00
4100
4100
3E00
ENDCHAR
STARTCHAR 112D
ENCODING 4397
SWIDTH 1008 0
DWIDTH 14 0
BBX 10 7 2 2
BITMAP
2780
2040
2040
2040
5040
5040
8840
ENDCHAR
STARTCHAR 112E
ENCODING 4398
SWIDTH 1008 0
DWIDTH 14 0
BBX 11 7 2 2
BITMAP
2200
2200
2200
2200
5200
5200
89E0
ENDCHAR
STARTCHAR 112F
ENCODING 4399
SWIDTH 1008 0
DWIDTH 14 0
BBX 11 7 2 2
BITMAP
21E0
2200
2200
2200
5200
5200
89E0
ENDCHAR
STARTCHAR 1130
ENCODING 4400
SWIDTH 1008 0
DWIDTH 14 0
BBX 11 7 2 2
BITMAP
23C0
2020
2020
21C0
5200
5200
89E0
ENDCHAR
STARTCHAR 1131
ENCODING 4401
SWIDTH 1008 0
DWIDTH 14 0
BBX 11 7 1 2
BITMAP
23E0
2220
2220
2220
5220
5220
89C0
ENDCHAR
STARTCHAR 1132
ENCODING 4402
SWIDTH 1008 0
DWIDTH 14 0
BBX 11 7 1 2
BITMAP
2220
2220
23E0
2220
5220
5220
89C0
ENDCHAR
STARTCHAR 1133
ENCODING 4403
SWIDTH 1008 0
DWIDTH 14 0
BBX 12 7 1 2
BITMAP
24E0
2490
2790
2490
5490
5490
8B10
ENDCHAR
STARTCHAR 1134
ENCODING 4404
SWIDTH 1008 0
DWIDTH 14 0
BBX 13 8 1 1
BITMAP
2220
2220
2220
2220
2220
5550
5550
8888
ENDCHAR
STARTCHAR 1135
ENCODING 4405
SWIDTH 1008 0
DWIDTH 14 0
BBX 12 7 1 2
BITMAP
20C0
2120
2210
2210
5210
5120
88C0
ENDCHAR
STARTCHAR 1136
ENCODING 4406
SWIDTH 1008 0
DWIDTH 14 0
BBX 11 7 1 2
BITMAP
23E0
2080
2080
2080
5140
5140
8A20
ENDCHAR
STARTCHAR 1137
ENCODING 4407
SWIDTH 1008 0
DWIDTH 14 0
BBX 11 7 1 2
BITMAP
21C0
2000
23E0
2080
5140
5140
8A20
ENDCHAR
STARTCHAR 1138
ENCODING 4408
SWIDTH 1008 0
DWIDTH 14 0
BBX 10 7 2 2
BITMAP
2780
2040
2040
27C0
5040
5040
8840
ENDCHAR
STARTCHAR 1139
ENCODING 4409
SWIDTH 1008 0
DWIDTH 14 0
BBX 11 7 2 2
BITMAP
21E0
2200
2200
23E0
5200
5200
89E0
ENDCHAR
STARTCHAR 113A
ENCODING 4410
SWIDTH 1008 0
DWIDTH 14 0
BBX 12 7 1 2
BITMAP
23F0
2000
2120
2120
5120
5120
8BF0
ENDCHAR
STARTCHAR 113B
ENCODING 4411
SWIDTH 1008 0
DWIDTH 14 0
BBX 12 8 1 1
BITMAP
01C0
2000
27F0
2000
21C0
5220
5220
89C0
ENDCHAR
STARTCHAR 113C
ENCODING 4412
SWIDTH 1008 0
DWIDTH 14 0
BBX 10 7 2 2
BITMAP
0200
0500
0880
1040
2000
4000
8000
ENDCHAR
STARTCHAR 113D
ENCODING 4413
SWIDTH 1008 0
DWIDTH 14 0
BBX 13 7 1 2
BITMAP
0220
0550
0888
1100
2200
4400
8800
ENDCHAR
STARTCHAR 113E
ENCODING 4414
SWIDTH 1008 0
DWIDTH 14 0
BBX 10 7 2 2
BITMAP
1000
2800
4400
8200
0100
0080
0040
ENDCHAR
STARTCHAR 113F
ENCODING 4415
SWIDTH 1008 0
DWIDTH 14 0
BBX 13 7 1 2
BITMAP
2200
5500
8880
0440
0220
0110
0088
ENDCHAR
STARTCHAR 1140
ENCODING 4416
SWIDTH 1008 0
DWIDTH 14 0
BBX 7 7 4 2
BITMAP
10
28
28
44
44
82
FE
ENDCHAR
STARTCHAR 1141
ENCODING 4417
SWIDTH 1008 0
DWIDTH 14 0
BBX 10 7 2 2
BITMAP
3380
4840
8440
8440
8440
4840
3040
ENDCHAR
STARTCHAR 1142
ENCODING 4418
SWIDTH 1008 0
DWIDTH 14 0
BBX 11 7 2 2
BITMAP
30E0
4900
8500
8500
8500
4900
30E0
ENDCHAR
STARTCHAR 1143
ENCODING 4419
SWIDTH 1008 0
DWIDTH 14 0
BBX 12 7 1 2
BITMAP
31F0
4910
8510
8510
8510
4910
30E0
ENDCHAR
STARTCHAR 1144
ENCODING 4420
SWIDTH 1008 0
DWIDTH 14 0
BBX 12 7 1 2
BITMAP
3110
4910
85F0
8510
8510
4910
30E0
ENDCHAR
STARTCHAR 1145
ENCODING 4421
SWIDTH 1008 0
DWIDTH 14 0
BBX 11 7 2 2
BITMAP
3080
4880
8480
8480
8540
4940
3220
ENDCHAR
STARTCHAR 1146
ENCODING 4422
SWIDTH 1008 0
DWIDTH 14 0
BBX 13 7 1 2
BITMAP
3040
4840
84A0
84A0
8510
4910
33F8
ENDCHAR
STARTCHAR 1147
ENCODING 4423
SWIDTH 1008 0
DWIDTH 14 0
BBX 13 7 1 2
BITMAP
3060
4890
8508
8508
8508
4890
3060
ENDCHAR
STARTCHAR 1148
ENCODING 4424
SWIDTH 1008 0
DWIDTH 14 0
BBX 11 7 1 2
BITMAP
33E0
4880
8480
8480
8540
4940
3220
ENDCHAR
STARTCHAR 1149
ENCODING 4425
SWIDTH 1008 0
DWIDTH 14 0
BBX 11 7 2 2
BITMAP
31C0
4800
87E0
8480
8480
4940
3220
ENDCHAR
STARTCHAR 114A
ENCODING 4426
SWIDTH 1008 0
DWIDTH 14 0
BBX 12 7 1 2
BITMAP
30F0
4900
8500
85F0
8500
4900
30F0
ENDCHAR
STARTCHAR 114B
ENCODING 4427
SWIDTH 1008 0
DWIDTH 14 0
BBX 12 7 1 2
BITMAP
33F0
4800
8520
8520
8520
4920
33F0
ENDCHAR
STARTCHAR 114C
ENCODING 4428
SWIDTH 1008 0
DWIDTH 14 0
BBX 7 7 4 2
BITMAP
10
10
7C
82
82
82
7C
ENDCHAR
STARTCHAR 114D
ENCODING 4429
SWIDTH 1008 0
DWIDTH 14 0
BBX 11 7 2 2
BITMAP
F980
2240
2420
2420
5420
5240
8980
ENDCHAR
STARTCHAR 114E
ENCODING 4430
SWIDTH 1008 0
DWIDTH 14 0
BBX 9 7 2 2
BITMAP
7F80
0400
0A00
1100
2080
4000
8000
ENDCHAR
STARTCHAR 114F
ENCODING 4431
SWIDTH 1008 0
DWIDTH 14 0
BBX 12 7 1 2
BITMAP
7FF0
0880
1540
2220
4400
8800
1000
ENDCHAR
STARTCHAR 1150
ENCODING 4432
SWIDTH 1008 0
DWIDTH 14 0
BBX 9 7 3 2
BITMAP
FF00
1000
2800
4400
8200
0100
0080
ENDCHAR
STARTCHAR 1151
ENCODING 4433
SWIDTH 1008 0
DWIDTH 14 0
BBX 12 7 1 2
BITMAP
FFE0
1100
2A80
4440
0220
0110
0080
ENDCHAR
STARTCHAR 1152
ENCODING 4434
SWIDTH 1008 0
DWIDTH 14 0
BBX 11 7 2 2
BITMAP
73C0
0020
F820
23E0
5020
5020
8820
ENDCHAR
STARTCHAR 1153
ENCODING 4435
SWIDTH 1008 0
DWIDTH 14 0
BBX 11 8 2 1
BITMAP
71C0
0000
FBE0
2000
21C0
5220
5220
89C0
ENDCHAR
STARTCHAR 1154
ENCODING 4436
SWIDTH 1008 0
DWIDTH 14 0
BBX 10 9 2 0
BITMAP
0400
0400
FFC0
0400
0A00
1100
2000
4000
8000
ENDCHAR
STARTCHAR 1155
ENCODING 4437
SWIDTH 1008 0
DWIDTH 14 0
BBX 10 9 2 0
BITMAP
0800
0800
FFC0
0800
1400
2200
0100
0080
0040
ENDCHAR
STARTCHAR 1156
ENCODING 4438
SWIDTH 1008 0
DWIDTH 14 0
BBX 12 7 1 2
BITMAP
FD10
0110
49F0
4910
4910
4910
FCE0
ENDCHAR
STARTCHAR 1157
ENCODING 4439
SWIDTH 1008 0
DWIDTH 14 0
BBX 7 10 4 0
BITMAP
FE
44
44
FE
00
00
7C
82
82
7C
ENDCHAR
STARTCHAR 1158
ENCODING 4440
SWIDTH 1008 0
DWIDTH 14 0
BBX 13 8 1 1
BITMAP
38E0
0000
FFF8
0000
38E0
4510
4510
38E0
ENDCHAR
STARTCHAR 1159
ENCODING 4441
SWIDTH 1008 0
DWIDTH 14 0
BBX 11 9 2 1
BITMAP
FFE0
0000
0000
0E00
1100
2080
2080
1100
0E00
ENDCHAR
STARTCHAR 115A
ENCODING 4442
SWIDTH 1008 0
DWIDTH 14 0
BBX 0 0 0 -2
BITMAP
ENDCHAR
STARTCHAR 115B
ENCODING 4443
SWIDTH 1008 0
DWIDTH 14 0
BBX 0 0 0 -2
BITMAP
ENDCHAR
STARTCHAR 115C
ENCODING 4444
SWIDTH 1008 0
DWIDTH 14 0
BBX 0 0 0 -2
BITMAP
ENDCHAR
STARTCHAR 115D
ENCODING 4445
SWIDTH 1008 0
DWIDTH 14 0
BBX 0 0 0 -2
BITMAP
ENDCHAR
STARTCHAR 115E
ENCODING 4446
SWIDTH 1008 0
DWIDTH 14 0
BBX 0 0 0 -2
BITMAP
ENDCHAR
STARTCHAR 115F
ENCODING 4447
SWIDTH 1008 0
DWIDTH 14 0
BBX 0 0 0 -2
BITMAP
ENDCHAR
STARTCHAR 1160
ENCODING 4448
SWIDTH 1008 0
DWIDTH 14 0
BBX 0 0 0 -2
BITMAP
ENDCHAR
STARTCHAR 1161
ENCODING 4449
SWIDTH 1008 0
DWIDTH 14 0
BBX 4 12 6 -1
BITMAP
80
80
80
80
80
F0
80
80
80
80
80
80
ENDCHAR
STARTCHAR 1162
ENCODING 4450
SWIDTH 1008 0
DWIDTH 14 0
BBX 4 12 5 -1
BITMAP
90
90
90
90
90
F0
90
90
90
90
90
90
ENDCHAR
STARTCHAR 1163
ENCODING 4451
SWIDTH 1008 0
DWIDTH 14 0
BBX 4 12 6 -1
BITMAP
80
80
80
F0
80
80
80
F0
80
80
80
80
ENDCHAR
STARTCHAR 1164
ENCODING 4452
SWIDTH 1008 0
DWIDTH 14 0
BBX 4 12 5 -1
BITMAP
90
90
90
F0
90
90
90
F0
90
90
90
90
ENDCHAR
STARTCHAR 1165
ENCODING 4453
SWIDTH 1008 0
DWIDTH 14 0
BBX 5 12 4 -1
BITMAP
08
08
08
08
08
F8
08
08
08
08
08
08
ENDCHAR
STARTCHAR 1166
ENCODING 4454
SWIDTH 1008 0
DWIDTH 14 0
BBX 7 12 3 -1
BITMAP
12
12
12
12
12
F2
12
12
12
12
12
12
ENDCHAR
STARTCHAR 1167
ENCODING 4455
SWIDTH 1008 0
DWIDTH 14 0
BBX 5 12 4 -1
BITMAP
08
08
08
08
F8
08
08
F8
08
08
08
08
ENDCHAR
STARTCHAR 1168
ENCODING 4456
SWIDTH 1008 0
DWIDTH 14 0
BBX 7 12 3 -1
BITMAP
12
12
12
12
F2
12
12
F2
12
12
12
12
ENDCHAR
STARTCHAR 1169
ENCODING 4457
SWIDTH 1008 0
DWIDTH 14 0
BBX 12 6 1 2
BITMAP
0400
0400
0400
0400
0400
FFF0
ENDCHAR
STARTCHAR 116A
ENCODING 4458
SWIDTH 1008 0
DWIDTH 14 0
BBX 12 12 1 -1
BITMAP
0080
0080
1080
1080
1080
10F0
1080
1080
FE80
0080
0080
0080
ENDCHAR
STARTCHAR 116B
ENCODING 4459
SWIDTH 1008 0
DWIDTH 14 0
BBX 11 12 1 -1
BITMAP
0120
0120
0120
1120
1120
1120
11E0
1120
FD20
0120
0120
0120
ENDCHAR
STARTCHAR 116C
ENCODING 4460
SWIDTH 1008 0
DWIDTH 14 0
BBX 10 12 1 -1
BITMAP
0040
0040
0040
0840
0840
0840
0840
0840
FF40
0040
0040
0040
ENDCHAR
STARTCHAR 116D
ENCODING 4461
SWIDTH 1008 0
DWIDTH 14 0
BBX 12 6 1 2
BITMAP
1080
1080
1080
1080
1080
FFF0
ENDCHAR
STARTCHAR 116E
ENCODING 4462
SWIDTH 1008 0
DWIDTH 14 0
BBX 12 9 1 2
BITMAP
FFF0
0400
0400
0400
0400
0400
0400
0400
0400
ENDCHAR
STARTCHAR 116F
ENCODING 4463
SWIDTH 1008 0
DWIDTH 14 0
BBX 10 12 1 -1
BITMAP
0040
0040
0040
FF40
1040
1040
13C0
1040
1040
1040
2040
0040
ENDCHAR
STARTCHAR 1170
ENCODING 4464
SWIDTH 1008 0
DWIDTH 14 0
BBX 11 12 1 -1
BITMAP
0120
0120
0120
0120
FD20
2120
2F20
2120
2120
2120
4120
0120
ENDCHAR
STARTCHAR 1171
ENCODING 4465
SWIDTH 1008 0
DWIDTH 14 0
BBX 10 12 1 -1
BITMAP
0040
0040
0040
0040
FF40
1040
1040
1040
1040
1040
2040
0040
ENDCHAR
STARTCHAR 1172
ENCODING 4466
SWIDTH 1008 0
DWIDTH 14 0
BBX 12 9 1 2
BITMAP
FFF0
1080
1080
1080
1080
1080
1080
1080
2080
ENDCHAR
STARTCHAR 1173
ENCODING 4467
SWIDTH 1008 0
DWIDTH 14 0
BBX 12 1 1 6
BITMAP
FFF0
ENDCHAR
STARTCHAR 1174
ENCODING 4468
SWIDTH 1008 0
DWIDTH 14 0
BBX 10 12 1 -1
BITMAP
0040
0040
0040
0040
0040
0040
0040
FF40
0040
0040
0040
0040
ENDCHAR
STARTCHAR 1175
ENCODING 4469
SWIDTH 1008 0
DWIDTH 14 0
BBX 1 12 7 -1
BITMAP
80
80
80
80
80
80
80
80
80
80
80
80
ENDCHAR
STARTCHAR 1176
ENCODING 4470
SWIDTH 1008 0
DWIDTH 14 0
BBX 12 11 1 -1
BITMAP
0040
0040
0040
0040
0070
0040
0040
0440
0440
0400
FFF0
ENDCHAR
STARTCHAR 1177
ENCODING 4471
SWIDTH 1008 0
DWIDTH 14 0
BBX 12 12 1 -1
BITMAP
0040
0040
0040
0070
0040
0040
0040
0000
FFF0
0400
0400
0400
ENDCHAR
STARTCHAR 1178
ENCODING 4472
SWIDTH 1008 0
DWIDTH 14 0
BBX 12 11 1 -1
BITMAP
0040
0040
0040
0070
0040
0040
0070
0440
0440
0400
FFF0
ENDCHAR
STARTCHAR 1179
ENCODING 4473
SWIDTH 1008 0
DWIDTH 14 0
BBX 12 11 1 -1
BITMAP
0040
0040
0040
0070
0040
0040
0070
1140
1140
1100
FFF0
ENDCHAR
STARTCHAR 117A
ENCODING 4474
SWIDTH 1008 0
DWIDTH 14 0
BBX 12 11 1 -1
BITMAP
0040
0040
0040
0040
03C0
0040
0040
0440
0440
0400
FFF0
ENDCHAR
STARTCHAR 117B
ENCODING 4475
SWIDTH 1008 0
DWIDTH 14 0
BBX 10 12 2 -1
BITMAP
0080
0080
0080
0780
0080
0080
0080
0000
FFC0
0800
0800
0800
ENDCHAR
STARTCHAR 117C
ENCODING 4476
SWIDTH 1008 0
DWIDTH 14 0
BBX 12 11 1 -1
BITMAP
0040
0040
0040
0040
03C0
0040
0040
0040
0040
0000
FFF0
ENDCHAR
STARTCHAR 117D
ENCODING 4477
SWIDTH 1008 0
DWIDTH 14 0
BBX 12 11 1 -1
BITMAP
0040
0040
03C0
0040
03C0
0040
0040
0440
0440
0400
FFF0
ENDCHAR
STARTCHAR 117E
ENCODING 4478
SWIDTH 1008 0
DWIDTH 14 0
BBX 10 12 2 -1
BITMAP
0080
0780
0080
0080
0780
0080
0080
0000
FFC0
0800
0800
0800
ENDCHAR
STARTCHAR 117F
ENCODING 4479
SWIDTH 1008 0
DWIDTH 14 0
BBX 10 12 1 -1
BITMAP
0040
0040
0040
0040
1040
13C0
1040
1040
1040
FF40
0040
0040
ENDCHAR
STARTCHAR 1180
ENCODING 4480
SWIDTH 1008 0
DWIDTH 14 0
BBX 11 12 1 -1
BITMAP
0120
0120
0120
1120
1720
1120
1120
1120
FD20
0120
0120
0120
ENDCHAR
STARTCHAR 1181
ENCODING 4481
SWIDTH 1008 0
DWIDTH 14 0
BBX 11 12 1 -1
BITMAP
0120
0120
0120
1720
1120
1720
1120
1120
FD20
0120
0120
0120
ENDCHAR
STARTCHAR 1182
ENCODING 4482
SWIDTH 1008 0
DWIDTH 14 0
BBX 12 11 1 -1
BITMAP
0400
0400
0400
0400
FFF0
0000
0400
0400
0400
0400
FFF0
ENDCHAR
STARTCHAR 1183
ENCODING 4483
SWIDTH 1008 0
DWIDTH 14 0
BBX 12 11 1 -1
BITMAP
0400
0400
0400
FFF0
0000
0000
FFF0
0400
0400
0400
0400
ENDCHAR
STARTCHAR 1184
ENCODING 4484
SWIDTH 1008 0
DWIDTH 14 0
BBX 11 12 1 -1
BITMAP
0080
0080
0080
2480
24E0
2480
2480
24E0
FE80
0080
0080
0080
ENDCHAR
STARTCHAR 1185
ENCODING 4485
SWIDTH 1008 0
DWIDTH 14 0
BBX 11 12 1 -1
BITMAP
0120
0120
0120
2920
29E0
2920
2920
29E0
FD20
0120
0120
0120
ENDCHAR
STARTCHAR 1186
ENCODING 4486
SWIDTH 1008 0
DWIDTH 14 0
BBX 10 12 1 -1
BITMAP
0040
0040
01C0
2440
2440
25C0
2440
2440
FF40
0040
0040
0040
ENDCHAR
STARTCHAR 1187
ENCODING 4487
SWIDTH 1008 0
DWIDTH 14 0
BBX 12 10 1 0
BITMAP
1080
1080
1080
FFF0
0000
0400
0400
0400
0400
FFF0
ENDCHAR
STARTCHAR 1188
ENCODING 4488
SWIDTH 1008 0
DWIDTH 14 0
BBX 10 12 1 -1
BITMAP
0040
0040
0040
2440
2440
2440
2440
2440
FF40
0040
0040
0040
ENDCHAR
STARTCHAR 1189
ENCODING 4489
SWIDTH 1008 0
DWIDTH 14 0
BBX 12 12 1 -1
BITMAP
0080
0080
0080
0080
0080
FE80
10F0
1080
1080
1080
2080
0080
ENDCHAR
STARTCHAR 118A
ENCODING 4490
SWIDTH 1008 0
DWIDTH 14 0
BBX 11 12 1 -1
BITMAP
0120
0120
0120
0120
0120
FD20
21E0
2120
2120
2120
4120
0120
ENDCHAR
STARTCHAR 118B
ENCODING 4491
SWIDTH 1008 0
DWIDTH 14 0
BBX 10 12 1 -1
BITMAP
0040
0040
0040
FF40
1040
13C0
1040
1040
2040
0040
FF40
0040
ENDCHAR
STARTCHAR 118C
ENCODING 4492
SWIDTH 1008 0
DWIDTH 14 0
BBX 11 12 1 -1
BITMAP
0120
0120
0120
0120
FD20
2120
2720
2120
2720
2120
4120
0120
ENDCHAR
STARTCHAR 118D
ENCODING 4493
SWIDTH 1008 0
DWIDTH 14 0
BBX 12 11 1 0
BITMAP
FFF0
0400
0400
0400
0400
0000
FFF0
0400
0400
0400
0400
ENDCHAR
STARTCHAR 118E
ENCODING 4494
SWIDTH 1008 0
DWIDTH 14 0
BBX 12 12 1 -1
BITMAP
0080
0080
0080
0080
FE80
2480
24F0
2480
2480
2480
4480
0080
ENDCHAR
STARTCHAR 118F
ENCODING 4495
SWIDTH 1008 0
DWIDTH 14 0
BBX 10 12 1 -1
BITMAP
0040
0040
0040
FF40
2440
2440
25C0
2440
2440
2440
4440
0040
ENDCHAR
STARTCHAR 1190
ENCODING 4496
SWIDTH 1008 0
DWIDTH 14 0
BBX 11 12 1 -1
BITMAP
00A0
00A0
00A0
00A0
FEA0
28A0
2BA0
28A0
28A0
28A0
48A0
00A0
ENDCHAR
STARTCHAR 1191
ENCODING 4497
SWIDTH 1008 0
DWIDTH 14 0
BBX 10 12 1 -1
BITMAP
0040
0040
0040
0040
FF40
2440
25C0
2440
25C0
2440
4440
0040
ENDCHAR
STARTCHAR 1192
ENCODING 4498
SWIDTH 1008 0
DWIDTH 14 0
BBX 11 12 1 -1
BITMAP
00A0
00A0
00A0
00A0
FEA0
28A0
2BA0
28A0
2BA0
28A0
48A0
00A0
ENDCHAR
STARTCHAR 1193
ENCODING 4499
SWIDTH 1008 0
DWIDTH 14 0
BBX 12 11 1 0
BITMAP
FFF0
1100
1100
1100
0000
FFF0
0400
0400
0400
0400
0400
ENDCHAR
STARTCHAR 1194
ENCODING 4500
SWIDTH 1008 0
DWIDTH 14 0
BBX 11 12 1 -1
BITMAP
0020
0020
0020
0020
FFA0
1220
1220
1220
1220
1220
2220
0020
ENDCHAR
STARTCHAR 1195
ENCODING 4501
SWIDTH 1008 0
DWIDTH 14 0
BBX 12 9 1 1
BITMAP
FFF0
0000
0000
FFF0
0400
0400
0400
0400
0400
ENDCHAR
STARTCHAR 1196
ENCODING 4502
SWIDTH 1008 0
DWIDTH 14 0
BBX 12 5 1 2
BITMAP
FFF0
0000
0000
0000
FFF0
ENDCHAR
STARTCHAR 1197
ENCODING 4503
SWIDTH 1008 0
DWIDTH 14 0
BBX 12 12 1 -1
BITMAP
0020
0020
0020
0020
FFE0
0020
0000
FFF0
0400
0400
0400
0400
ENDCHAR
STARTCHAR 1198
ENCODING 4504
SWIDTH 1008 0
DWIDTH 14 0
BBX 7 12 5 -1
BITMAP
90
90
90
90
90
9E
90
90
90
90
90
90
ENDCHAR
STARTCHAR 1199
ENCODING 4505
SWIDTH 1008 0
DWIDTH 14 0
BBX 7 12 5 -1
BITMAP
90
90
90
90
9E
90
90
9E
90
90
90
90
ENDCHAR
STARTCHAR 119A
ENCODING 4506
SWIDTH 1008 0
DWIDTH 14 0
BBX 12 11 1 -1
BITMAP
0040
0040
0040
0040
0040
0040
0440
0440
0400
0400
FFF0
ENDCHAR
STARTCHAR 119B
ENCODING 4507
SWIDTH 1008 0
DWIDTH 14 0
BBX 12 12 1 -1
BITMAP
0040
0040
0040
0040
0040
0040
0000
FFF0
0400
0400
0400
0400
ENDCHAR
STARTCHAR 119C
ENCODING 4508
SWIDTH 1008 0
DWIDTH 14 0
BBX 12 11 1 -1
BITMAP
0040
0040
0040
0040
0040
0040
0040
0040
0040
0000
FFF0
ENDCHAR
STARTCHAR 119D
ENCODING 4509
SWIDTH 1008 0
DWIDTH 14 0
BBX 3 12 6 -1
BITMAP
40
40
40
40
40
40
40
40
00
40
E0
40
ENDCHAR
STARTCHAR 119E
ENCODING 4510
SWIDTH 1008 0
DWIDTH 14 0
BBX 3 3 6 3
BITMAP
40
E0
40
ENDCHAR
STARTCHAR 119F
ENCODING 4511
SWIDTH 1008 0
DWIDTH 14 0
BBX 7 12 2 -1
BITMAP
02
02
02
02
1E
02
42
E2
42
02
02
02
ENDCHAR
STARTCHAR 11A0
ENCODING 4512
SWIDTH 1008 0
DWIDTH 14 0
BBX 11 12 2 -1
BITMAP
0400
0E00
0400
0000
0000
FFE0
0400
0400
0400
0400
0400
0400
ENDCHAR
STARTCHAR 11A1
ENCODING 4513
SWIDTH 1008 0
DWIDTH 14 0
BBX 8 12 3 -1
BITMAP
01
01
01
01
01
41
E1
41
01
01
01
01
ENDCHAR
STARTCHAR 11A2
ENCODING 4514
SWIDTH 1008 0
DWIDTH 14 0
BBX 9 3 3 3
BITMAP
4100
E380
4100
ENDCHAR
STARTCHAR 11A3
ENCODING 4515
SWIDTH 1008 0
DWIDTH 14 0
BBX 0 0 0 -2
BITMAP
ENDCHAR
STARTCHAR 11A4
ENCODING 4516
SWIDTH 1008 0
DWIDTH 14 0
BBX 0 0 0 -2
BITMAP
ENDCHAR
STARTCHAR 11A5
ENCODING 4517
SWIDTH 1008 0
DWIDTH 14 0
BBX 0 0 0 -2
BITMAP
ENDCHAR
STARTCHAR 11A6
ENCODING 4518
SWIDTH 1008 0
DWIDTH 14 0
BBX 0 0 0 -2
BITMAP
ENDCHAR
STARTCHAR 11A7
ENCODING 4519
SWIDTH 1008 0
DWIDTH 14 0
BBX 0 0 0 -2
BITMAP
ENDCHAR
STARTCHAR 11A8
ENCODING 4520
SWIDTH 1008 0
DWIDTH 14 0
BBX 9 7 2 2
BITMAP
FF00
0080
0080
0080
0080
0080
0080
ENDCHAR
STARTCHAR 11A9
ENCODING 4521
SWIDTH 1008 0
DWIDTH 14 0
BBX 11 7 1 2
BITMAP
F3C0
0820
0820
0820
0820
0820
0820
ENDCHAR
STARTCHAR 11AA
ENCODING 4522
SWIDTH 1008 0
DWIDTH 14 0
BBX 13 7 1 2
BITMAP
F040
0840
0840
08A0
08A0
0910
0A08
ENDCHAR
STARTCHAR 11AB
ENCODING 4523
SWIDTH 1008 0
DWIDTH 14 0
BBX 9 7 3 2
BITMAP
8000
8000
8000
8000
8000
8000
7F80
ENDCHAR
STARTCHAR 11AC
ENCODING 4524
SWIDTH 1008 0
DWIDTH 14 0
BBX 11 7 2 2
BITMAP
83E0
8080
8080
8080
8140
8140
7A20
ENDCHAR
STARTCHAR 11AD
ENCODING 4525
SWIDTH 1008 0
DWIDTH 14 0
BBX 11 7 2 2
BITMAP
8380
8000
8FE0
8380
8440
8440
7B80
ENDCHAR
STARTCHAR 11AE
ENCODING 4526
SWIDTH 1008 0
DWIDTH 14 0
BBX 9 7 3 2
BITMAP
7F80
8000
8000
8000
8000
8000
7F80
ENDCHAR
STARTCHAR 11AF
ENCODING 4527
SWIDTH 1008 0
DWIDTH 14 0
BBX 9 7 3 2
BITMAP
FF00
0080
0080
7F00
8000
8000
7F80
ENDCHAR
STARTCHAR 11B0
ENCODING 4528
SWIDTH 1008 0
DWIDTH 14 0
BBX 11 7 2 2
BITMAP
F3C0
0820
0820
7020
8020
8020
7820
ENDCHAR
STARTCHAR 11B1
ENCODING 4529
SWIDTH 1008 0
DWIDTH 14 0
BBX 11 7 2 2
BITMAP
F3E0
0A20
0A20
7220
8220
8220
79C0
ENDCHAR
STARTCHAR 11B2
ENCODING 4530
SWIDTH 1008 0
DWIDTH 14 0
BBX 11 7 2 2
BITMAP
F220
0A20
0BE0
7220
8220
8220
79C0
ENDCHAR
STARTCHAR 11B3
ENCODING 4531
SWIDTH 1008 0
DWIDTH 14 0
BBX 13 7 1 2
BITMAP
F040
0840
0840
70A0
80A0
8110
7A08
ENDCHAR
STARTCHAR 11B4
ENCODING 4532
SWIDTH 1008 0
DWIDTH 14 0
BBX 11 7 2 2
BITMAP
F1E0
0A00
0A00
73E0
8200
8200
79E0
ENDCHAR
STARTCHAR 11B5
ENCODING 4533
SWIDTH 1008 0
DWIDTH 14 0
BBX 12 7 1 2
BITMAP
F3F0
0800
0920
7120
8120
8120
7BF0
ENDCHAR
STARTCHAR 11B6
ENCODING 4534
SWIDTH 1008 0
DWIDTH 14 0
BBX 12 7 1 2
BITMAP
F1C0
0800
0FF0
71C0
8220
8220
79C0
ENDCHAR
STARTCHAR 11B7
ENCODING 4535
SWIDTH 1008 0
DWIDTH 14 0
BBX 7 7 4 2
BITMAP
FE
82
82
82
82
82
7C
ENDCHAR
STARTCHAR 11B8
ENCODING 4536
SWIDTH 1008 0
DWIDTH 14 0
BBX 7 7 4 2
BITMAP
82
82
FE
82
82
82
7C
ENDCHAR
STARTCHAR 11B9
ENCODING 4537
SWIDTH 1008 0
DWIDTH 14 0
BBX 11 7 2 2
BITMAP
8880
8880
F880
8880
8940
8940
7220
ENDCHAR
STARTCHAR 11BA
ENCODING 4538
SWIDTH 1008 0
DWIDTH 14 0
BBX 11 7 2 2
BITMAP
0400
0400
0400
0A00
1100
2080
C060
ENDCHAR
STARTCHAR 11BB
ENCODING 4539
SWIDTH 1008 0
DWIDTH 14 0
BBX 10 7 2 2
BITMAP
2100
2100
2100
2100
5280
5280
8C40
ENDCHAR
STARTCHAR 11BC
ENCODING 4540
SWIDTH 1008 0
DWIDTH 14 0
BBX 8 7 3 2
BITMAP
3C
42
81
81
81
42
3C
ENDCHAR
STARTCHAR 11BD
ENCODING 4541
SWIDTH 1008 0
DWIDTH 14 0
BBX 9 7 3 2
BITMAP
7F00
0800
0800
0800
1400
2200
C180
ENDCHAR
STARTCHAR 11BE
ENCODING 4542
SWIDTH 1008 0
DWIDTH 14 0
BBX 9 8 3 1
BITMAP
1C00
0000
7F00
0800
0800
1400
2200
C180
ENDCHAR
STARTCHAR 11BF
ENCODING 4543
SWIDTH 1008 0
DWIDTH 14 0
BBX 8 7 3 2
BITMAP
FE
01
01
FF
01
01
01
ENDCHAR
STARTCHAR 11C0
ENCODING 4544
SWIDTH 1008 0
DWIDTH 14 0
BBX 8 7 3 2
BITMAP
7F
80
80
FF
80
80
7F
ENDCHAR
STARTCHAR 11C1
ENCODING 4545
SWIDTH 1008 0
DWIDTH 14 0
BBX 9 7 3 2
BITMAP
FF80
0000
2200
2200
2200
2200
FF80
ENDCHAR
STARTCHAR 11C2
ENCODING 4546
SWIDTH 1008 0
DWIDTH 14 0
BBX 11 8 2 1
BITMAP
1F00
0000
FFE0
0000
1F00
2080
2080
1F00
ENDCHAR
STARTCHAR 11C3
ENCODING 4547
SWIDTH 1008 0
DWIDTH 14 0
BBX 12 7 1 2
BITMAP
F3E0
0810
0810
09E0
0A00
0A00
09F0
ENDCHAR
STARTCHAR 11C4
ENCODING 4548
SWIDTH 1008 0
DWIDTH 14 0
BBX 12 7 1 2
BITMAP
E2E0
1210
1210
1210
1510
1510
1890
ENDCHAR
STARTCHAR 11C5
ENCODING 4549
SWIDTH 1008 0
DWIDTH 14 0
BBX 10 7 2 2
BITMAP
8780
8040
8040
8040
8040
8040
7840
ENDCHAR
STARTCHAR 11C6
ENCODING 4550
SWIDTH 1008 0
DWIDTH 14 0
BBX 11 7 2 2
BITMAP
81E0
8200
8200
8200
8200
8200
79E0
ENDCHAR
STARTCHAR 11C7
ENCODING 4551
SWIDTH 1008 0
DWIDTH 14 0
BBX 12 7 2 2
BITMAP
8080
8080
8080
8140
8140
8220
7410
ENDCHAR
STARTCHAR 11C8
ENCODING 4552
SWIDTH 1008 0
DWIDTH 14 0
BBX 11 7 2 2
BITMAP
8100
8100
8280
8280
8440
8440
7FE0
ENDCHAR
STARTCHAR 11C9
ENCODING 4553
SWIDTH 1008 0
DWIDTH 14 0
BBX 11 7 2 2
BITMAP
81E0
8200
8200
83E0
8200
8200
79E0
ENDCHAR
STARTCHAR 11CA
ENCODING 4554
SWIDTH 1008 0
DWIDTH 14 0
BBX 10 7 2 2
BITMAP
7780
8040
8040
8040
8040
8040
7840
ENDCHAR
STARTCHAR 11CB
ENCODING 4555
SWIDTH 1008 0
DWIDTH 14 0
BBX 11 7 2 2
BITMAP
77C0
8020
8020
83C0
8400
8400
73E0
ENDCHAR
STARTCHAR 11CC
ENCODING 4556
SWIDTH 1008 0
DWIDTH 14 0
BBX 12 7 1 2
BITMAP
EC40
1240
1240
6240
82A0
82A0
7310
ENDCHAR
STARTCHAR 11CD
ENCODING 4557
SWIDTH 1008 0
DWIDTH 14 0
BBX 11 7 2 2
BITMAP
F200
0A00
0A00
7200
8200
8200
79E0
ENDCHAR
STARTCHAR 11CE
ENCODING 4558
SWIDTH 1008 0
DWIDTH 14 0
BBX 11 7 2 2
BITMAP
F1E0
0A00
0A00
7200
8200
8200
79E0
ENDCHAR
STARTCHAR 11CF
ENCODING 4559
SWIDTH 1008 0
DWIDTH 14 0
BBX 13 7 1 2
BITMAP
E370
1400
14F8
6470
8488
8488
7370
ENDCHAR
STARTCHAR 11D0
ENCODING 4560
SWIDTH 1008 0
DWIDTH 14 0
BBX 11 7 2 2
BITMAP
F3C0
0820
0820
71C0
8200
8200
79E0
ENDCHAR
STARTCHAR 11D1
ENCODING 4561
SWIDTH 1008 0
DWIDTH 14 0
BBX 12 7 1 2
BITMAP
CF60
2910
2910
6910
8910
8910
6610
ENDCHAR
STARTCHAR 11D2
ENCODING 4562
SWIDTH 1008 0
DWIDTH 14 0
BBX 13 7 1 2
BITMAP
CF20
2920
2920
6920
8950
8950
6688
ENDCHAR
STARTCHAR 11D3
ENCODING 4563
SWIDTH 1008 0
DWIDTH 14 0
BBX 13 7 1 2
BITMAP
C920
2920
2920
6F20
8950
8950
6688
ENDCHAR
STARTCHAR 11D4
ENCODING 4564
SWIDTH 1008 0
DWIDTH 14 0
BBX 13 7 1 2
BITMAP
C930
2900
2978
6F30
8948
8948
6630
ENDCHAR
STARTCHAR 11D5
ENCODING 4565
SWIDTH 1008 0
DWIDTH 14 0
BBX 11 9 2 1
BITMAP
0220
F3E0
0A20
09C0
7000
81C0
8220
7A20
01C0
ENDCHAR
STARTCHAR 11D6
ENCODING 4566
SWIDTH 1008 0
DWIDTH 14 0
BBX 13 7 1 2
BITMAP
E220
1220
1220
6220
8550
8550
7888
ENDCHAR
STARTCHAR 11D7
ENCODING 4567
SWIDTH 1008 0
DWIDTH 14 0
BBX 13 7 1 2
BITMAP
F040
0840
08A0
70A0
8110
8110
7BF8
ENDCHAR
STARTCHAR 11D8
ENCODING 4568
SWIDTH 1008 0
DWIDTH 14 0
BBX 11 7 2 2
BITMAP
F3C0
0820
0820
73E0
8020
8020
7820
ENDCHAR
STARTCHAR 11D9
ENCODING 4569
SWIDTH 1008 0
DWIDTH 14 0
BBX 11 7 2 2
BITMAP
F3E0
0800
09C0
7220
8220
8220
79C0
ENDCHAR
STARTCHAR 11DA
ENCODING 4570
SWIDTH 1008 0
DWIDTH 14 0
BBX 11 7 2 2
BITMAP
FBC0
8820
8820
8820
8820
8820
7020
ENDCHAR
STARTCHAR 11DB
ENCODING 4571
SWIDTH 1008 0
DWIDTH 14 0
BBX 11 7 2 2
BITMAP
FBC0
8820
8820
89C0
8A00
8A00
71E0
ENDCHAR
STARTCHAR 11DC
ENCODING 4572
SWIDTH 1008 0
DWIDTH 14 0
BBX 11 7 2 2
BITMAP
FA20
8A20
8BE0
8A20
8A20
8A20
71C0
ENDCHAR
STARTCHAR 11DD
ENCODING 4573
SWIDTH 1008 0
DWIDTH 14 0
BBX 13 7 1 2
BITMAP
F840
8840
8840
88A0
88A0
8910
7208
ENDCHAR
STARTCHAR 11DE
ENCODING 4574
SWIDTH 1008 0
DWIDTH 14 0
BBX 13 7 1 2
BITMAP
F220
9220
9220
9220
9550
9550
6888
ENDCHAR
STARTCHAR 11DF
ENCODING 4575
SWIDTH 1008 0
DWIDTH 14 0
BBX 13 7 1 2
BITMAP
F840
8840
88A0
88A0
8910
8910
73F8
ENDCHAR
STARTCHAR 11E0
ENCODING 4576
SWIDTH 1008 0
DWIDTH 14 0
BBX 12 8 1 1
BITMAP
01C0
F800
8FF0
8880
8880
8940
8A20
7410
ENDCHAR
STARTCHAR 11E1
ENCODING 4577
SWIDTH 1008 0
DWIDTH 14 0
BBX 12 7 1 2
BITMAP
F9C0
8800
8FF0
89C0
8A20
8A20
71C0
ENDCHAR
STARTCHAR 11E2
ENCODING 4578
SWIDTH 1008 0
DWIDTH 14 0
BBX 7 10 4 0
BITMAP
FE
82
82
82
7C
00
7C
82
82
7C
ENDCHAR
STARTCHAR 11E3
ENCODING 4579
SWIDTH 1008 0
DWIDTH 14 0
BBX 11 7 2 2
BITMAP
8BC0
8820
F820
89C0
8A00
8A00
71E0
ENDCHAR
STARTCHAR 11E4
ENCODING 4580
SWIDTH 1008 0
DWIDTH 14 0
BBX 12 7 1 2
BITMAP
8BF0
8800
F920
8920
8920
8920
73F0
ENDCHAR
STARTCHAR 11E5
ENCODING 4581
SWIDTH 1008 0
DWIDTH 14 0
BBX 12 7 2 2
BITMAP
89C0
8800
FFF0
89C0
8A20
8A20
71C0
ENDCHAR
STARTCHAR 11E6
ENCODING 4582
SWIDTH 1008 0
DWIDTH 14 0
BBX 7 10 4 0
BITMAP
82
82
FE
82
7C
00
7C
82
82
7C
ENDCHAR
STARTCHAR 11E7
ENCODING 4583
SWIDTH 1008 0
DWIDTH 14 0
BBX 10 7 2 2
BITMAP
2780
2040
2040
2040
5040
5040
8840
ENDCHAR
STARTCHAR 11E8
ENCODING 4584
SWIDTH 1008 0
DWIDTH 14 0
BBX 11 7 2 2
BITMAP
21E0
2200
2200
2200
5200
5200
89E0
ENDCHAR
STARTCHAR 11E9
ENCODING 4585
SWIDTH 1008 0
DWIDTH 14 0
BBX 11 7 2 2
BITMAP
23C0
2020
2020
21C0
5200
5200
89E0
ENDCHAR
STARTCHAR 11EA
ENCODING 4586
SWIDTH 1008 0
DWIDTH 14 0
BBX 11 7 1 2
BITMAP
2220
2220
2220
23E0
5220
5220
89C0
ENDCHAR
STARTCHAR 11EB
ENCODING 4587
SWIDTH 1008 0
DWIDTH 14 0
BBX 7 7 4 2
BITMAP
10
28
28
44
44
82
FE
ENDCHAR
STARTCHAR 11EC
ENCODING 4588
SWIDTH 1008 0
DWIDTH 14 0
BBX 11 7 2 2
BITMAP
73C0
8820
8820
8820
8820
8820
7020
ENDCHAR
STARTCHAR 11ED
ENCODING 4589
SWIDTH 1008 0
DWIDTH 14 0
BBX 12 7 1 2
BITMAP
7660
8910
8910
8910
8910
8910
7110
ENDCHAR
STARTCHAR 11EE
ENCODING 4590
SWIDTH 1008 0
DWIDTH 14 0
BBX 11 7 2 2
BITMAP
71C0
8A20
8A20
8A20
8A20
8A20
71C0
ENDCHAR
STARTCHAR 11EF
ENCODING 4591
SWIDTH 1008 0
DWIDTH 14 0
BBX 11 7 2 2
BITMAP
73C0
8820
8820
8BE0
8820
8820
7020
ENDCHAR
STARTCHAR 11F0
ENCODING 4592
SWIDTH 1008 0
DWIDTH 14 0
BBX 7 8 4 1
BITMAP
10
10
7C
82
82
82
82
7C
ENDCHAR
STARTCHAR 11F1
ENCODING 4593
SWIDTH 1008 0
DWIDTH 14 0
BBX 10 8 2 1
BITMAP
2000
2100
7100
8900
8900
8A80
8A80
7440
ENDCHAR
STARTCHAR 11F2
ENCODING 4594
SWIDTH 1008 0
DWIDTH 14 0
BBX 13 8 1 1
BITMAP
2000
2040
70A0
88A0
8910
8910
8A08
73F8
ENDCHAR
STARTCHAR 11F3
ENCODING 4595
SWIDTH 1008 0
DWIDTH 14 0
BBX 12 7 1 2
BITMAP
FD10
0110
49F0
4910
4910
4910
FCE0
ENDCHAR
STARTCHAR 11F4
ENCODING 4596
SWIDTH 1008 0
DWIDTH 14 0
BBX 7 10 4 0
BITMAP
FE
44
44
FE
00
00
7C
82
82
7C
ENDCHAR
STARTCHAR 11F5
ENCODING 4597
SWIDTH 1008 0
DWIDTH 14 0
BBX 12 7 1 2
BITMAP
3900
0100
FF00
3900
4500
4500
38F0
ENDCHAR
STARTCHAR 11F6
ENCODING 4598
SWIDTH 1008 0
DWIDTH 14 0
BBX 12 7 1 2
BITMAP
39E0
0010
FE10
38E0
4500
4500
38F0
ENDCHAR
STARTCHAR 11F7
ENCODING 4599
SWIDTH 1008 0
DWIDTH 14 0
BBX 12 7 1 2
BITMAP
39F0
0110
FF10
3910
4510
4510
38E0
ENDCHAR
STARTCHAR 11F8
ENCODING 4600
SWIDTH 1008 0
DWIDTH 14 0
BBX 12 7 1 2
BITMAP
3910
0110
FF10
39F0
4510
4510
38E0
ENDCHAR
STARTCHAR 11F9
ENCODING 4601
SWIDTH 1008 0
DWIDTH 14 0
BBX 11 9 2 1
BITMAP
FFE0
0000
0000
0E00
1100
2080
2080
1100
0E00
ENDCHAR
STARTCHAR 1E80
ENCODING 7808
SWIDTH 936 0
DWIDTH 13 0
BBX 11 12 1 0
BITMAP
0400
0200
8420
8420
8A20
4A40
4A40
5140
5140
3180
2080
2080
ENDCHAR
STARTCHAR 1E81
ENCODING 7809
SWIDTH 792 0
DWIDTH 11 0
BBX 9 11 1 0
BITMAP
0800
0400
0000
8880
8880
8880
5500
5500
5500
2200
2200
ENDCHAR
STARTCHAR 1E82
ENCODING 7810
SWIDTH 936 0
DWIDTH 13 0
BBX 11 12 1 0
BITMAP
0400
0800
8420
8420
8A20
4A40
4A40
5140
5140
3180
2080
2080
ENDCHAR
STARTCHAR 1E83
ENCODING 7811
SWIDTH 792 0
DWIDTH 11 0
BBX 9 11 1 0
BITMAP
0800
1000
0000
8880
8880
8880
5500
5500
5500
2200
2200
ENDCHAR
STARTCHAR 1E84
ENCODING 7812
SWIDTH 936 0
DWIDTH 13 0
BBX 11 12 1 0
BITMAP
0A00
0000
8420
8420
8A20
4A40
4A40
5140
5140
3180
2080
2080
ENDCHAR
STARTCHAR 1E85
ENCODING 7813
SWIDTH 792 0
DWIDTH 11 0
BBX 9 10 1 0
BITMAP
1400
0000
8880
8880
8880
5500
5500
5500
2200
2200
ENDCHAR
STARTCHAR 1EF2
ENCODING 7922
SWIDTH 648 0
DWIDTH 9 0
BBX 7 12 1 0
BITMAP
20
10
82
82
44
44
28
10
10
10
10
10
ENDCHAR
STARTCHAR 1EF3
ENCODING 7923
SWIDTH 504 0
DWIDTH 7 0
BBX 6 13 1 -2
BITMAP
20
10
00
84
84
84
48
48
50
30
20
20
C0
ENDCHAR
STARTCHAR 2013
ENCODING 8211
SWIDTH 504 0
DWIDTH 7 0
BBX 7 1 0 5
BITMAP
FE
ENDCHAR
STARTCHAR 2014
ENCODING 8212
SWIDTH 1008 0
DWIDTH 14 0
BBX 14 1 0 5
BITMAP
FFFC
ENDCHAR
STARTCHAR 2015
ENCODING 8213
SWIDTH 648 0
DWIDTH 9 0
BBX 9 1 0 5
BITMAP
FF80
ENDCHAR
STARTCHAR 2017
ENCODING 8215
SWIDTH 504 0
DWIDTH 7 0
BBX 7 3 0 -2
BITMAP
FE
00
FE
ENDCHAR
STARTCHAR 2018
ENCODING 8216
SWIDTH 288 0
DWIDTH 4 0
BBX 2 3 1 8
BITMAP
40
80
80
ENDCHAR
STARTCHAR 2019
ENCODING 8217
SWIDTH 288 0
DWIDTH 4 0
BBX 2 3 1 8
BITMAP
40
40
80
ENDCHAR
STARTCHAR 201A
ENCODING 8218
SWIDTH 288 0
DWIDTH 4 0
BBX 2 3 1 -1
BITMAP
40
40
80
ENDCHAR
STARTCHAR 201B
ENCODING 8219
SWIDTH 288 0
DWIDTH 4 0
BBX 2 3 1 8
BITMAP
80
80
40
ENDCHAR
STARTCHAR 201C
ENCODING 8220
SWIDTH 432 0
DWIDTH 6 0
BBX 5 3 1 8
BITMAP
48
90
90
ENDCHAR
STARTCHAR 201D
ENCODING 8221
SWIDTH 432 0
DWIDTH 6 0
BBX 5 3 1 8
BITMAP
48
48
90
ENDCHAR
STARTCHAR 201E
ENCODING 8222
SWIDTH 432 0
DWIDTH 6 0
BBX 5 3 1 -1
BITMAP
48
48
90
ENDCHAR
STARTCHAR 2020
ENCODING 8224
SWIDTH 504 0
DWIDTH 7 0
BBX 7 12 0 -1
BITMAP
10
10
10
FE
10
10
10
10
10
10
10
10
ENDCHAR
STARTCHAR 2021
ENCODING 8225
SWIDTH 504 0
DWIDTH 7 0
BBX 7 12 0 -1
BITMAP
10
10
10
FE
10
10
10
10
FE
10
10
10
ENDCHAR
STARTCHAR 2022
ENCODING 8226
SWIDTH 432 0
DWIDTH 6 0
BBX 4 4 1 3
BITMAP
60
F0
F0
60
ENDCHAR
STARTCHAR 2025
ENCODING 8229
SWIDTH 1008 0
DWIDTH 14 0
BBX 9 2 3 5
BITMAP
C180
C180
ENDCHAR
STARTCHAR 2026
ENCODING 8230
SWIDTH 1008 0
DWIDTH 14 0
BBX 9 1 3 5
BITMAP
8880
ENDCHAR
STARTCHAR 2030
ENCODING 8240
SWIDTH 1008 0
DWIDTH 14 0
BBX 13 10 1 0
BITMAP
6080
9100
9200
9400
6800
1630
2948
4948
8948
0630
ENDCHAR
STARTCHAR 2032
ENCODING 8242
SWIDTH 288 0
DWIDTH 4 0
BBX 2 2 1 8
BITMAP
40
80
ENDCHAR
STARTCHAR 2033
ENCODING 8243
SWIDTH 504 0
DWIDTH 7 0
BBX 4 2 2 8
BITMAP
50
A0
ENDCHAR
STARTCHAR 2039
ENCODING 8249
SWIDTH 360 0
DWIDTH 5 0
BBX 2 3 2 4
BITMAP
40
80
40
ENDCHAR
STARTCHAR 203A
ENCODING 8250
SWIDTH 360 0
DWIDTH 5 0
BBX 2 3 2 4
BITMAP
80
40
80
ENDCHAR
STARTCHAR 203B
ENCODING 8251
SWIDTH 1008 0
DWIDTH 14 0
BBX 9 9 3 1
BITMAP
8880
4900
2200
1400
C980
1400
2200
4900
8880
ENDCHAR
STARTCHAR 203C
ENCODING 8252
SWIDTH 576 0
DWIDTH 8 0
BBX 4 12 2 -1
BITMAP
90
90
90
90
90
90
90
90
00
00
90
90
ENDCHAR
STARTCHAR 203E
ENCODING 8254
SWIDTH 504 0
DWIDTH 7 0
BBX 7 1 0 10
BITMAP
FE
ENDCHAR
STARTCHAR 2044
ENCODING 8260
SWIDTH 504 0
DWIDTH 7 0
BBX 5 10 1 0
BITMAP
08
08
10
10
20
20
40
40
80
80
ENDCHAR
STARTCHAR 2074
ENCODING 8308
SWIDTH 1008 0
DWIDTH 14 0
BBX 5 7 1 -1
BITMAP
30
50
50
90
F8
10
10
ENDCHAR
STARTCHAR 207F
ENCODING 8319
SWIDTH 504 0
DWIDTH 7 0
BBX 4 5 1 4
BITMAP
E0
90
90
90
90
ENDCHAR
STARTCHAR 2081
ENCODING 8321
SWIDTH 1008 0
DWIDTH 14 0
BBX 2 7 2 4
BITMAP
40
C0
40
40
40
40
40
ENDCHAR
STARTCHAR 2082
ENCODING 8322
SWIDTH 1008 0
DWIDTH 14 0
BBX 4 7 1 4
BITMAP
60
90
10
20
40
80
F0
ENDCHAR
STARTCHAR 2083
ENCODING 8323
SWIDTH 1008 0
DWIDTH 14 0
BBX 4 7 1 4
BITMAP
60
90
10
60
10
90
60
ENDCHAR
STARTCHAR 2084
ENCODING 8324
SWIDTH 1008 0
DWIDTH 14 0
BBX 5 7 1 4
BITMAP
30
50
50
90
F8
10
10
ENDCHAR
STARTCHAR 20A3
ENCODING 8355
SWIDTH 576 0
DWIDTH 8 0
BBX 8 10 0 0
BITMAP
7F
40
40
FE
40
FE
40
40
40
40
ENDCHAR
STARTCHAR 20A4
ENCODING 8356
SWIDTH 576 0
DWIDTH 8 0
BBX 6 10 1 0
BITMAP
38
44
40
FC
40
FC
20
60
A4
58
ENDCHAR
STARTCHAR 20A7
ENCODING 8359
SWIDTH 648 0
DWIDTH 9 0
BBX 9 10 0 0
BITMAP
7C00
4200
4100
FF80
4100
4200
7C00
4000
4000
4000
ENDCHAR
STARTCHAR 20A9
ENCODING 8361
SWIDTH 1008 0
DWIDTH 14 0
BBX 13 11 1 0
BITMAP
4210
4210
4210
4510
FFF8
2520
28A0
28A0
18C0
1040
1040
ENDCHAR
STARTCHAR 20AC
ENCODING 8364
SWIDTH 720 0
DWIDTH 10 0
BBX 9 10 1 0
BITMAP
1E00
2100
4080
4000
FE00
4000
FE00
4080
2100
1E00
ENDCHAR
STARTCHAR 2103
ENCODING 8451
SWIDTH 1008 0
DWIDTH 14 0
BBX 12 12 1 -1
BITMAP
6000
9000
93C0
6420
0810
0800
0800
0800
0800
0810
0420
03C0
ENDCHAR
STARTCHAR 2105
ENCODING 8453
SWIDTH 792 0
DWIDTH 11 0
BBX 10 10 1 0
BITMAP
6000
9080
8100
9200
6400
0980
1240
2240
4240
0180
ENDCHAR
STARTCHAR 2109
ENCODING 8457
SWIDTH 1008 0
DWIDTH 14 0
BBX 12 11 1 0
BITMAP
63F0
9200
9200
6200
0200
03E0
0200
0200
0200
0200
0200
ENDCHAR
STARTCHAR 2113
ENCODING 8467
SWIDTH 504 0
DWIDTH 7 0
BBX 5 10 1 0
BITMAP
10
28
28
48
50
50
60
60
48
B0
ENDCHAR
STARTCHAR 2116
ENCODING 8470
SWIDTH 1008 0
DWIDTH 14 0
BBX 12 10 1 0
BITMAP
8400
C400
C400
A4E0
A510
9510
9510
8D10
8CE0
85F0
ENDCHAR
STARTCHAR 2121
ENCODING 8481
SWIDTH 1008 0
DWIDTH 14 0
BBX 13 11 1 -1
BITMAP
F808
2008
2008
2008
2388
2448
2448
27C8
2408
2448
2388
ENDCHAR
STARTCHAR 2122
ENCODING 8482
SWIDTH 936 0
DWIDTH 13 0
BBX 11 5 1 6
BITMAP
FA20
2360
2360
22A0
22A0
ENDCHAR
STARTCHAR 2126
ENCODING 8486
SWIDTH 720 0
DWIDTH 10 0
BBX 8 10 1 0
BITMAP
3C
42
81
81
81
81
42
A5
A5
E7
ENDCHAR
STARTCHAR 212B
ENCODING 8491
SWIDTH 1008 0
DWIDTH 14 0
BBX 9 13 3 -1
BITMAP
0800
1400
0800
0000
0800
1400
1400
2200
2200
7F00
4100
8080
8080
ENDCHAR
STARTCHAR 212E
ENCODING 8494
SWIDTH 720 0
DWIDTH 10 0
BBX 9 8 1 0
BITMAP
3E00
6300
C180
FF80
C000
C000
6180
3F00
ENDCHAR
STARTCHAR 2153
ENCODING 8531
SWIDTH 1008 0
DWIDTH 14 0
BBX 11 12 2 -1
BITMAP
4000
C040
4080
4100
4200
44C0
4920
1020
20C0
4020
8120
00C0
ENDCHAR
STARTCHAR 2154
ENCODING 8532
SWIDTH 1008 0
DWIDTH 14 0
BBX 12 12 1 -1
BITMAP
6000
9020
1040
2080
4100
8260
F490
0810
1060
2010
4090
0060
ENDCHAR
STARTCHAR 215B
ENCODING 8539
SWIDTH 504 0
DWIDTH 7 0
BBX 6 11 1 -2
BITMAP
10
30
10
10
10
FC
30
48
30
48
30
ENDCHAR
STARTCHAR 215C
ENCODING 8540
SWIDTH 504 0
DWIDTH 7 0
BBX 6 11 1 -2
BITMAP
30
48
10
48
30
FC
30
48
30
48
30
ENDCHAR
STARTCHAR 215D
ENCODING 8541
SWIDTH 504 0
DWIDTH 7 0
BBX 6 11 1 -2
BITMAP
70
40
70
08
70
FC
30
48
30
48
30
ENDCHAR
STARTCHAR 215E
ENCODING 8542
SWIDTH 504 0
DWIDTH 7 0
BBX 6 11 1 -2
BITMAP
78
08
10
20
20
FC
30
48
30
48
30
ENDCHAR
STARTCHAR 2160
ENCODING 8544
SWIDTH 1008 0
DWIDTH 14 0
BBX 1 10 7 0
BITMAP
80
80
80
80
80
80
80
80
80
80
ENDCHAR
STARTCHAR 2161
ENCODING 8545
SWIDTH 1008 0
DWIDTH 14 0
BBX 6 10 5 0
BITMAP
84
84
84
84
84
84
84
84
84
84
ENDCHAR
STARTCHAR 2162
ENCODING 8546
SWIDTH 1008 0
DWIDTH 14 0
BBX 7 10 4 0
BITMAP
92
92
92
92
92
92
92
92
92
92
ENDCHAR
STARTCHAR 2163
ENCODING 8547
SWIDTH 1008 0
DWIDTH 14 0
BBX 8 10 4 0
BITMAP
91
91
91
91
8A
8A
8A
84
84
84
ENDCHAR
STARTCHAR 2164
ENCODING 8548
SWIDTH 1008 0
DWIDTH 14 0
BBX 5 10 5 0
BITMAP
88
88
88
88
50
50
50
20
20
20
ENDCHAR
STARTCHAR 2165
ENCODING 8549
SWIDTH 1008 0
DWIDTH 14 0
BBX 8 10 3 0
BITMAP
89
89
89
89
51
51
51
21
21
21
ENDCHAR
STARTCHAR 2166
ENCODING 8550
SWIDTH 1008 0
DWIDTH 14 0
BBX 10 10 2 0
BITMAP
8A40
8A40
8A40
8A40
5240
5240
5240
2240
2240
2240
ENDCHAR
STARTCHAR 2167
ENCODING 8551
SWIDTH 1008 0
DWIDTH 14 0
BBX 11 10 2 0
BITMAP
8AA0
8AA0
8AA0
8AA0
52A0
52A0
52A0
22A0
22A0
22A0
ENDCHAR
STARTCHAR 2168
ENCODING 8552
SWIDTH 1008 0
DWIDTH 14 0
BBX 8 10 3 0
BITMAP
91
91
8A
8A
84
84
8A
8A
91
91
ENDCHAR
STARTCHAR 2169
ENCODING 8553
SWIDTH 1008 0
DWIDTH 14 0
BBX 5 10 5 0
BITMAP
88
88
50
50
20
20
50
50
88
88
ENDCHAR
STARTCHAR 2170
ENCODING 8560
SWIDTH 1008 0
DWIDTH 14 0
BBX 1 10 7 0
BITMAP
80
80
00
00
80
80
80
80
80
80
ENDCHAR
STARTCHAR 2171
ENCODING 8561
SWIDTH 1008 0
DWIDTH 14 0
BBX 5 10 5 0
BITMAP
88
88
00
00
88
88
88
88
88
88
ENDCHAR
STARTCHAR 2172
ENCODING 8562
SWIDTH 1008 0
DWIDTH 14 0
BBX 7 10 4 0
BITMAP
92
92
00
00
92
92
92
92
92
92
ENDCHAR
STARTCHAR 2173
ENCODING 8563
SWIDTH 1008 0
DWIDTH 14 0
BBX 8 10 4 0
BITMAP
80
80
00
00
91
91
8A
8A
84
84
ENDCHAR
STARTCHAR 2174
ENCODING 8564
SWIDTH 1008 0
DWIDTH 14 0
BBX 5 6 5 4
BITMAP
88
88
50
50
20
20
ENDCHAR
STARTCHAR 2175
ENCODING 8565
SWIDTH 1008 0
DWIDTH 14 0
BBX 8 10 4 0
BITMAP
01
01
00
00
89
89
51
51
21
21
ENDCHAR
STARTCHAR 2176
ENCODING 8566
SWIDTH 1008 0
DWIDTH 14 0
BBX 10 10 2 0
BITMAP
0240
0240
0000
0000
8A40
8A40
5240
5240
2240
2240
ENDCHAR
STARTCHAR 2177
ENCODING 8567
SWIDTH 1008 0
DWIDTH 14 0
BBX 11 10 2 0
BITMAP
02A0
02A0
0000
0000
8AA0
8AA0
52A0
52A0
22A0
22A0
ENDCHAR
STARTCHAR 2178
ENCODING 8568
SWIDTH 1008 0
DWIDTH 14 0
BBX 8 10 4 0
BITMAP
80
80
00
00
A1
92
8C
8C
92
A1
ENDCHAR
STARTCHAR 2179
ENCODING 8569
SWIDTH 1008 0
DWIDTH 14 0
BBX 6 6 4 4
BITMAP
84
48
30
30
48
84
ENDCHAR
STARTCHAR 2190
ENCODING 8592
SWIDTH 1008 0
DWIDTH 14 0
BBX 12 5 1 3
BITMAP
2000
4000
FFF0
4000
2000
ENDCHAR
STARTCHAR 2191
ENCODING 8593
SWIDTH 720 0
DWIDTH 10 0
BBX 5 12 3 -1
BITMAP
20
70
A8
20
20
20
20
20
20
20
20
20
ENDCHAR
STARTCHAR 2192
ENCODING 8594
SWIDTH 1008 0
DWIDTH 14 0
BBX 12 5 1 3
BITMAP
0040
0020
FFF0
0020
0040
ENDCHAR
STARTCHAR 2193
ENCODING 8595
SWIDTH 720 0
DWIDTH 10 0
BBX 5 12 3 -1
BITMAP
20
20
20
20
20
20
20
20
20
A8
70
20
ENDCHAR
STARTCHAR 2194
ENCODING 8596
SWIDTH 1008 0
DWIDTH 14 0
BBX 12 5 1 3
BITMAP
2040
4020
FFF0
4020
2040
ENDCHAR
STARTCHAR 2195
ENCODING 8597
SWIDTH 720 0
DWIDTH 10 0
BBX 5 12 3 -1
BITMAP
20
70
A8
20
20
20
20
20
20
A8
70
20
ENDCHAR
STARTCHAR 2196
ENCODING 8598
SWIDTH 1008 0
DWIDTH 14 0
BBX 11 11 2 -1
BITMAP
F800
C000
A000
9000
8800
0400
0200
0100
0080
0040
0020
ENDCHAR
STARTCHAR 2197
ENCODING 8599
SWIDTH 1008 0
DWIDTH 14 0
BBX 11 11 2 -1
BITMAP
03E0
0060
00A0
0120
0220
0400
0800
1000
2000
4000
8000
ENDCHAR
STARTCHAR 2198
ENCODING 8600
SWIDTH 1008 0
DWIDTH 14 0
BBX 11 11 2 -1
BITMAP
8000
4000
2000
1000
0800
0400
0220
0120
00A0
0060
03E0
ENDCHAR
STARTCHAR 2199
ENCODING 8601
SWIDTH 1008 0
DWIDTH 14 0
BBX 11 11 2 -1
BITMAP
0020
0040
0080
0100
0200
0400
8800
9000
A000
C000
F800
ENDCHAR
STARTCHAR 21A8
ENCODING 8616
SWIDTH 720 0
DWIDTH 10 0
BBX 5 12 3 -1
BITMAP
20
70
A8
20
20
20
20
20
A8
70
20
F8
ENDCHAR
STARTCHAR 21D2
ENCODING 8658
SWIDTH 1008 0
DWIDTH 14 0
BBX 12 10 1 0
BITMAP
0100
0080
0040
FFE0
0010
0010
FFE0
0040
0080
0100
ENDCHAR
STARTCHAR 21D4
ENCODING 8660
SWIDTH 1008 0
DWIDTH 14 0
BBX 13 8 1 1
BITMAP
1040
2020
7FF0
8008
8008
7FF0
2020
1040
ENDCHAR
STARTCHAR 2200
ENCODING 8704
SWIDTH 1008 0
DWIDTH 14 0
BBX 11 12 2 -1
BITMAP
8020
8020
4040
7FC0
2080
2080
1100
1100
0A00
0A00
0400
0400
ENDCHAR
STARTCHAR 2202
ENCODING 8706
SWIDTH 504 0
DWIDTH 7 0
BBX 6 10 1 0
BITMAP
18
24
04
04
34
4C
88
88
90
60
ENDCHAR
STARTCHAR 2203
ENCODING 8707
SWIDTH 1008 0
DWIDTH 14 0
BBX 9 11 3 -1
BITMAP
FF80
0080
0080
0080
0080
FF80
0080
0080
0080
0080
FF80
ENDCHAR
STARTCHAR 2206
ENCODING 8710
SWIDTH 576 0
DWIDTH 8 0
BBX 7 10 1 0
BITMAP
10
10
28
28
44
44
82
82
82
FE
ENDCHAR
STARTCHAR 2207
ENCODING 8711
SWIDTH 1008 0
DWIDTH 14 0
BBX 13 12 1 -1
BITMAP
FFF8
4010
4010
2020
2020
1040
1040
0880
0880
0500
0500
0200
ENDCHAR
STARTCHAR 2208
ENCODING 8712
SWIDTH 1008 0
DWIDTH 14 0
BBX 10 9 2 0
BITMAP
3FC0
4000
8000
8000
FFC0
8000
8000
4000
3FC0
ENDCHAR
STARTCHAR 220B
ENCODING 8715
SWIDTH 1008 0
DWIDTH 14 0
BBX 10 9 2 0
BITMAP
FF00
0080
0040
0040
FFC0
0040
0040
0080
FF00
ENDCHAR
STARTCHAR 220F
ENCODING 8719
SWIDTH 648 0
DWIDTH 9 0
BBX 9 12 0 -2
BITMAP
FF80
2200
2200
2200
2200
2200
2200
2200
2200
2200
2200
2200
ENDCHAR
STARTCHAR 2211
ENCODING 8721
SWIDTH 792 0
DWIDTH 11 0
BBX 10 12 1 -2
BITMAP
FFC0
C000
6000
3000
1800
0C00
0C00
1800
3000
6000
C000
FFC0
ENDCHAR
STARTCHAR 2212
ENCODING 8722
SWIDTH 864 0
DWIDTH 12 0
BBX 9 1 2 5
BITMAP
FF80
ENDCHAR
STARTCHAR 2215
ENCODING 8725
SWIDTH 432 0
DWIDTH 6 0
BBX 6 12 0 -1
BITMAP
04
04
08
08
10
10
20
20
40
40
80
80
ENDCHAR
STARTCHAR 2219
ENCODING 8729
SWIDTH 288 0
DWIDTH 4 0
BBX 1 1 2 5
BITMAP
80
ENDCHAR
STARTCHAR 221A
ENCODING 8730
SWIDTH 504 0
DWIDTH 7 0
BBX 6 12 1 -1
BITMAP
04
04
04
04
08
08
48
48
A8
30
10
10
ENDCHAR
STARTCHAR 221D
ENCODING 8733
SWIDTH 1008 0
DWIDTH 14 0
BBX 11 6 1 2
BITMAP
30E0
4900
8600
8600
4900
30E0
ENDCHAR
STARTCHAR 221E
ENCODING 8734
SWIDTH 864 0
DWIDTH 12 0
BBX 11 5 1 3
BITMAP
71C0
8A20
8420
8A20
71C0
ENDCHAR
STARTCHAR 221F
ENCODING 8735
SWIDTH 936 0
DWIDTH 13 0
BBX 11 9 1 0
BITMAP
8000
8000
8000
8000
8000
8000
8000
8000
FFE0
ENDCHAR
STARTCHAR 2220
ENCODING 8736
SWIDTH 1008 0
DWIDTH 14 0
BBX 10 10 2 0
BITMAP
0040
0080
0100
0200
0400
0800
1000
2000
4000
FFC0
ENDCHAR
STARTCHAR 2225
ENCODING 8741
SWIDTH 1008 0
DWIDTH 14 0
BBX 4 10 5 0
BITMAP
90
90
90
90
90
90
90
90
90
90
ENDCHAR
STARTCHAR 2227
ENCODING 8743
SWIDTH 1008 0
DWIDTH 14 0
BBX 9 10 3 0
BITMAP
0800
0800
1400
1400
2200
2200
4100
4100
8080
8080
ENDCHAR
STARTCHAR 2228
ENCODING 8744
SWIDTH 1008 0
DWIDTH 14 0
BBX 9 10 3 0
BITMAP
8080
8080
4100
4100
2200
2200
1400
1400
0800
0800
ENDCHAR
STARTCHAR 2229
ENCODING 8745
SWIDTH 720 0
DWIDTH 10 0
BBX 8 10 1 0
BITMAP
3C
42
81
81
81
81
81
81
81
81
ENDCHAR
STARTCHAR 222A
ENCODING 8746
SWIDTH 1008 0
DWIDTH 14 0
BBX 8 10 3 0
BITMAP
81
81
81
81
81
81
81
81
42
3C
ENDCHAR
STARTCHAR 222B
ENCODING 8747
SWIDTH 360 0
DWIDTH 5 0
BBX 3 12 1 -1
BITMAP
20
40
40
40
40
40
40
40
40
40
40
80
ENDCHAR
STARTCHAR 222C
ENCODING 8748
SWIDTH 1008 0
DWIDTH 14 0
BBX 9 13 3 -1
BITMAP
0900
1680
1200
1200
1200
1200
2400
2400
2400
2400
2400
B400
4800
ENDCHAR
STARTCHAR 222E
ENCODING 8750
SWIDTH 1008 0
DWIDTH 14 0
BBX 7 13 4 -2
BITMAP
0C
12
10
10
38
54
54
38
10
10
10
90
60
ENDCHAR
STARTCHAR 2234
ENCODING 8756
SWIDTH 1008 0
DWIDTH 14 0
BBX 10 7 2 2
BITMAP
0C00
0C00
0000
0000
0000
C0C0
C0C0
ENDCHAR
STARTCHAR 2235
ENCODING 8757
SWIDTH 1008 0
DWIDTH 14 0
BBX 10 7 2 1
BITMAP
C0C0
C0C0
0000
0000
0000
0C00
0C00
ENDCHAR
STARTCHAR 223C
ENCODING 8764
SWIDTH 1008 0
DWIDTH 14 0
BBX 10 2 2 4
BITMAP
7840
8780
ENDCHAR
STARTCHAR 223D
ENCODING 8765
SWIDTH 1008 0
DWIDTH 14 0
BBX 12 6 1 2
BITMAP
30C0
4120
8210
8410
4820
30C0
ENDCHAR
STARTCHAR 2248
ENCODING 8776
SWIDTH 864 0
DWIDTH 12 0
BBX 8 5 2 3
BITMAP
71
8E
00
71
8E
ENDCHAR
STARTCHAR 2252
ENCODING 8786
SWIDTH 1008 0
DWIDTH 14 0
BBX 11 12 2 -1
BITMAP
3000
3000
0000
0000
FFE0
0000
0000
FFE0
0000
0000
0180
0180
ENDCHAR
STARTCHAR 2260
ENCODING 8800
SWIDTH 864 0
DWIDTH 12 0
BBX 9 8 2 1
BITMAP
0400
0400
FF80
0800
0800
FF80
1000
1000
ENDCHAR
STARTCHAR 2261
ENCODING 8801
SWIDTH 864 0
DWIDTH 12 0
BBX 9 5 2 3
BITMAP
FF80
0000
FF80
0000
FF80
ENDCHAR
STARTCHAR 2264
ENCODING 8804
SWIDTH 864 0
DWIDTH 12 0
BBX 9 9 2 1
BITMAP
0380
0C00
3000
C000
3000
0C00
0380
0000
FF80
ENDCHAR
STARTCHAR 2265
ENCODING 8805
SWIDTH 864 0
DWIDTH 12 0
BBX 9 9 2 1
BITMAP
E000
1800
0600
0180
0600
1800
E000
0000
FF80
ENDCHAR
STARTCHAR 226A
ENCODING 8810
SWIDTH 1008 0
DWIDTH 14 0
BBX 12 9 1 1
BITMAP
00C0
0330
0CC0
3300
CC00
3300
0CC0
0330
00C0
ENDCHAR
STARTCHAR 226B
ENCODING 8811
SWIDTH 1008 0
DWIDTH 14 0
BBX 12 9 1 1
BITMAP
3000
CC00
3300
0CC0
0330
0CC0
3300
CC00
3000
ENDCHAR
STARTCHAR 2282
ENCODING 8834
SWIDTH 1008 0
DWIDTH 14 0
BBX 10 8 2 1
BITMAP
3FC0
4000
8000
8000
8000
8000
4000
3FC0
ENDCHAR
STARTCHAR 2283
ENCODING 8835
SWIDTH 1008 0
DWIDTH 14 0
BBX 10 8 2 1
BITMAP
FF00
0080
0040
0040
0040
0040
0080
FF00
ENDCHAR
STARTCHAR 2286
ENCODING 8838
SWIDTH 1008 0
DWIDTH 14 0
BBX 10 10 2 0
BITMAP
3FC0
4000
8000
8000
8000
4000
3FC0
0000
0000
FFC0
ENDCHAR
STARTCHAR 2287
ENCODING 8839
SWIDTH 1008 0
DWIDTH 14 0
BBX 10 10 2 0
BITMAP
FF00
0080
0040
0040
0040
0080
FF00
0000
0000
FFC0
ENDCHAR
STARTCHAR 2299
ENCODING 8857
SWIDTH 1008 0
DWIDTH 14 0
BBX 12 12 1 -1
BITMAP
0F00
30C0
4020
4020
8610
8F10
8F10
8610
4020
4020
30C0
0F00
ENDCHAR
STARTCHAR 22A5
ENCODING 8869
SWIDTH 1008 0
DWIDTH 14 0
BBX 11 10 2 0
BITMAP
0400
0400
0400
0400
0400
0400
0400
0400
0400
FFE0
ENDCHAR
STARTCHAR 2302
ENCODING 8962
SWIDTH 576 0
DWIDTH 8 0
BBX 7 8 1 1
BITMAP
10
28
44
82
82
82
82
FE
ENDCHAR
STARTCHAR 2310
ENCODING 8976
SWIDTH 648 0
DWIDTH 9 0
BBX 8 4 1 3
BITMAP
FF
80
80
80
ENDCHAR
STARTCHAR 2312
ENCODING 8978
SWIDTH 1008 0
DWIDTH 14 0
BBX 7 3 4 8
BITMAP
38
44
82
ENDCHAR
STARTCHAR 2320
ENCODING 8992
SWIDTH 576 0
DWIDTH 8 0
BBX 2 14 4 -2
BITMAP
40
80
80
80
80
80
80
80
80
80
80
80
80
80
ENDCHAR
STARTCHAR 2321
ENCODING 8993
SWIDTH 576 0
DWIDTH 8 0
BBX 2 14 3 -2
BITMAP
40
40
40
40
40
40
40
40
40
40
40
40
40
80
ENDCHAR
STARTCHAR 2460
ENCODING 9312
SWIDTH 1008 0
DWIDTH 14 0
BBX 13 13 1 -2
BITMAP
0700
18C0
2020
4210
4610
8208
8208
8208
4210
4210
2020
18C0
0700
ENDCHAR
STARTCHAR 2461
ENCODING 9313
SWIDTH 1008 0
DWIDTH 14 0
BBX 13 13 1 -2
BITMAP
0700
18C0
2020
4610
4910
8108
8208
8408
4810
4F10
2020
18C0
0700
ENDCHAR
STARTCHAR 2462
ENCODING 9314
SWIDTH 1008 0
DWIDTH 14 0
BBX 13 13 1 -2
BITMAP
0700
18C0
2020
4610
4910
8108
8608
8108
4910
4610
2020
18C0
0700
ENDCHAR
STARTCHAR 2463
ENCODING 9315
SWIDTH 1008 0
DWIDTH 14 0
BBX 13 13 1 -2
BITMAP
0700
18C0
2020
4310
4510
8508
8908
8F88
4110
4110
2020
18C0
0700
ENDCHAR
STARTCHAR 2464
ENCODING 9316
SWIDTH 1008 0
DWIDTH 14 0
BBX 13 13 1 -2
BITMAP
0700
18C0
2020
4790
4410
8708
8488
8088
4490
4310
2020
18C0
0700
ENDCHAR
STARTCHAR 2465
ENCODING 9317
SWIDTH 1008 0
DWIDTH 14 0
BBX 13 13 1 -2
BITMAP
0700
18C0
2020
4310
4490
8408
8708
8488
4490
4310
2020
18C0
0700
ENDCHAR
STARTCHAR 2466
ENCODING 9318
SWIDTH 1008 0
DWIDTH 14 0
BBX 13 13 1 -2
BITMAP
0700
18C0
2020
4790
4090
8108
8108
8208
4210
4210
2020
18C0
0700
ENDCHAR
STARTCHAR 2467
ENCODING 9319
SWIDTH 1008 0
DWIDTH 14 0
BBX 13 13 1 -2
BITMAP
0700
18C0
2020
4310
4490
8488
8308
8488
4490
4310
2020
18C0
0700
ENDCHAR
STARTCHAR 2468
ENCODING 9320
SWIDTH 1008 0
DWIDTH 14 0
BBX 13 13 1 -2
BITMAP
0700
18C0
2020
4310
4490
8488
8388
8088
4490
4310
2020
18C0
0700
ENDCHAR
STARTCHAR 2469
ENCODING 9321
SWIDTH 1008 0
DWIDTH 14 0
BBX 13 13 1 -2
BITMAP
0700
18C0
2020
4990
5A50
8A48
8A48
8A48
4A50
4990
2020
18C0
0700
ENDCHAR
STARTCHAR 246A
ENCODING 9322
SWIDTH 1008 0
DWIDTH 14 0
BBX 13 13 1 -2
BITMAP
0700
18C0
2020
4490
4D90
8488
8488
8488
4490
4490
2020
18C0
0700
ENDCHAR
STARTCHAR 246B
ENCODING 9323
SWIDTH 1008 0
DWIDTH 14 0
BBX 13 13 1 -2
BITMAP
0700
18C0
2020
4990
5A50
8848
8888
8908
4A10
4BD0
2020
18C0
0700
ENDCHAR
STARTCHAR 246C
ENCODING 9324
SWIDTH 1008 0
DWIDTH 14 0
BBX 13 13 1 -2
BITMAP
0700
18C0
2020
4990
5A50
8848
8988
8848
4A50
4990
2020
18C0
0700
ENDCHAR
STARTCHAR 246D
ENCODING 9325
SWIDTH 1008 0
DWIDTH 14 0
BBX 13 13 1 -2
BITMAP
0700
18C0
2020
4990
5990
8A88
8A88
8BC8
4890
4890
2020
18C0
0700
ENDCHAR
STARTCHAR 246E
ENCODING 9326
SWIDTH 1008 0
DWIDTH 14 0
BBX 13 13 1 -2
BITMAP
0700
18C0
2020
4BD0
5A10
8B88
8A48
8848
4A50
4990
2020
18C0
0700
ENDCHAR
STARTCHAR 2474
ENCODING 9332
SWIDTH 1008 0
DWIDTH 14 0
BBX 13 11 1 -1
BITMAP
1040
2020
4210
4610
8208
8208
8208
4210
4210
2020
1040
ENDCHAR
STARTCHAR 2475
ENCODING 9333
SWIDTH 1008 0
DWIDTH 14 0
BBX 13 11 1 -1
BITMAP
1040
2020
4610
4910
8108
8208
8408
4810
4F10
2020
1040
ENDCHAR
STARTCHAR 2476
ENCODING 9334
SWIDTH 1008 0
DWIDTH 14 0
BBX 13 11 1 -1
BITMAP
1040
2020
4610
4910
8108
8608
8108
4910
4610
2020
1040
ENDCHAR
STARTCHAR 2477
ENCODING 9335
SWIDTH 1008 0
DWIDTH 14 0
BBX 13 11 1 -1
BITMAP
1040
2020
4310
4510
8508
8908
8F88
4110
4110
2020
1040
ENDCHAR
STARTCHAR 2478
ENCODING 9336
SWIDTH 1008 0
DWIDTH 14 0
BBX 13 11 1 -1
BITMAP
1040
2020
4790
4410
8708
8488
8088
4490
4310
2020
1040
ENDCHAR
STARTCHAR 2479
ENCODING 9337
SWIDTH 1008 0
DWIDTH 14 0
BBX 13 11 1 -1
BITMAP
1040
2020
4310
4490
8408
8708
8488
4490
4310
2020
1040
ENDCHAR
STARTCHAR 247A
ENCODING 9338
SWIDTH 1008 0
DWIDTH 14 0
BBX 13 11 1 -1
BITMAP
1040
2020
4790
4090
8108
8108
8208
4210
4210
2020
1040
ENDCHAR
STARTCHAR 247B
ENCODING 9339
SWIDTH 1008 0
DWIDTH 14 0
BBX 13 11 1 -1
BITMAP
1040
2020
4310
4490
8488
8308
8488
4490
4310
2020
1040
ENDCHAR
STARTCHAR 247C
ENCODING 9340
SWIDTH 1008 0
DWIDTH 14 0
BBX 13 11 1 -1
BITMAP
1040
2020
4310
4490
8488
8388
8088
4490
4310
2020
1040
ENDCHAR
STARTCHAR 247D
ENCODING 9341
SWIDTH 1008 0
DWIDTH 14 0
BBX 13 11 1 -1
BITMAP
1040
2020
4990
5A50
8A48
8A48
8A48
4A50
4990
2020
1040
ENDCHAR
STARTCHAR 247E
ENCODING 9342
SWIDTH 1008 0
DWIDTH 14 0
BBX 13 11 1 -1
BITMAP
1040
2020
4490
4D90
8488
8488
8488
4490
4490
2020
1040
ENDCHAR
STARTCHAR 247F
ENCODING 9343
SWIDTH 1008 0
DWIDTH 14 0
BBX 13 11 1 -1
BITMAP
1040
2020
4990
5A50
8848
8888
8908
4A10
4BD0
2020
1040
ENDCHAR
STARTCHAR 2480
ENCODING 9344
SWIDTH 1008 0
DWIDTH 14 0
BBX 13 11 1 -1
BITMAP
1040
2020
4990
5A50
8848
8988
8848
4A50
4990
2020
1040
ENDCHAR
STARTCHAR 2481
ENCODING 9345
SWIDTH 1008 0
DWIDTH 14 0
BBX 13 11 1 -1
BITMAP
1040
2020
4890
5990
8988
8A88
8A88
4BD0
4890
2020
1040
ENDCHAR
STARTCHAR 2482
ENCODING 9346
SWIDTH 1008 0
DWIDTH 14 0
BBX 13 11 1 -1
BITMAP
1040
2020
4BD0
5A10
8B88
8A48
8848
4A50
4990
2020
1040
ENDCHAR
STARTCHAR 249C
ENCODING 9372
SWIDTH 1008 0
DWIDTH 14 0
BBX 13 11 1 -1
BITMAP
1040
2020
4010
4610
8908
8708
8908
4910
4690
2020
1040
ENDCHAR
STARTCHAR 249D
ENCODING 9373
SWIDTH 1008 0
DWIDTH 14 0
BBX 13 11 1 -1
BITMAP
1040
2020
4410
4410
8708
8488
8488
4490
4710
2020
1040
ENDCHAR
STARTCHAR 249E
ENCODING 9374
SWIDTH 1008 0
DWIDTH 14 0
BBX 13 11 1 -1
BITMAP
1040
2020
4010
4610
8908
8808
8808
4910
4610
2020
1040
ENDCHAR
STARTCHAR 249F
ENCODING 9375
SWIDTH 1008 0
DWIDTH 14 0
BBX 13 11 1 -1
BITMAP
1040
2020
4110
4110
8708
8908
8908
4910
4710
2020
1040
ENDCHAR
STARTCHAR 24A0
ENCODING 9376
SWIDTH 1008 0
DWIDTH 14 0
BBX 13 11 1 -1
BITMAP
1040
2020
4010
4610
8908
8F08
8808
4910
4610
2020
1040
ENDCHAR
STARTCHAR 24A1
ENCODING 9377
SWIDTH 1008 0
DWIDTH 14 0
BBX 13 11 1 -1
BITMAP
1040
2020
4310
4410
8408
8F08
8408
4410
4410
2420
1040
ENDCHAR
STARTCHAR 24A2
ENCODING 9378
SWIDTH 1008 0
DWIDTH 14 0
BBX 13 11 1 -1
BITMAP
1040
2020
4710
4910
8908
8908
8708
4110
4E10
2020
1040
ENDCHAR
STARTCHAR 24A3
ENCODING 9379
SWIDTH 1008 0
DWIDTH 14 0
BBX 13 11 1 -1
BITMAP
1040
2420
4410
4710
8488
8488
8488
4490
4010
2020
1040
ENDCHAR
STARTCHAR 24A4
ENCODING 9380
SWIDTH 1008 0
DWIDTH 14 0
BBX 13 11 1 -1
BITMAP
1040
2220
4210
4010
8208
8208
8208
4210
4210
2020
1040
ENDCHAR
STARTCHAR 24A5
ENCODING 9381
SWIDTH 1008 0
DWIDTH 14 0
BBX 13 11 1 -1
BITMAP
1040
2220
4210
4010
8208
8208
8208
4210
4210
2C20
1040
ENDCHAR
STARTCHAR 24A6
ENCODING 9382
SWIDTH 1008 0
DWIDTH 14 0
BBX 13 11 1 -1
BITMAP
1040
2420
4410
4490
8508
8608
8608
4510
4490
2020
1040
ENDCHAR
STARTCHAR 24A7
ENCODING 9383
SWIDTH 1008 0
DWIDTH 14 0
BBX 13 11 1 -1
BITMAP
1040
2220
4210
4210
8208
8208
8208
4210
4210
2020
1040
ENDCHAR
STARTCHAR 24A8
ENCODING 9384
SWIDTH 1008 0
DWIDTH 14 0
BBX 13 11 1 -1
BITMAP
1040
2020
4D10
4A90
8A88
8A88
8A88
4A90
4010
2020
1040
ENDCHAR
STARTCHAR 24A9
ENCODING 9385
SWIDTH 1008 0
DWIDTH 14 0
BBX 13 11 1 -1
BITMAP
1040
2020
4710
4490
8488
8488
8488
4490
4010
2020
1040
ENDCHAR
STARTCHAR 24AA
ENCODING 9386
SWIDTH 1008 0
DWIDTH 14 0
BBX 13 11 1 -1
BITMAP
1040
2020
4710
4890
8888
8888
8888
4710
4010
2020
1040
ENDCHAR
STARTCHAR 24AB
ENCODING 9387
SWIDTH 1008 0
DWIDTH 14 0
BBX 13 11 1 -1
BITMAP
1040
2020
4710
4490
8488
8488
8708
4410
4410
2020
1040
ENDCHAR
STARTCHAR 24AC
ENCODING 9388
SWIDTH 1008 0
DWIDTH 14 0
BBX 13 11 1 -1
BITMAP
1040
2020
4710
4910
8908
8908
8708
4110
4110
2020
1040
ENDCHAR
STARTCHAR 24AD
ENCODING 9389
SWIDTH 1008 0
DWIDTH 14 0
BBX 13 11 1 -1
BITMAP
1040
2020
4010
4590
8608
8408
8408
4410
4410
2020
1040
ENDCHAR
STARTCHAR 24AE
ENCODING 9390
SWIDTH 1008 0
DWIDTH 14 0
BBX 13 11 1 -1
BITMAP
1040
2020
4010
4610
8908
8408
8208
4910
4610
2020
1040
ENDCHAR
STARTCHAR 24AF
ENCODING 9391
SWIDTH 1008 0
DWIDTH 14 0
BBX 13 11 1 -1
BITMAP
1040
2020
4410
4410
8F08
8408
8408
4410
4310
2020
1040
ENDCHAR
STARTCHAR 24B0
ENCODING 9392
SWIDTH 1008 0
DWIDTH 14 0
BBX 13 11 1 -1
BITMAP
1040
2020
4010
4890
8888
8888
8888
4890
4790
2020
1040
ENDCHAR
STARTCHAR 24B1
ENCODING 9393
SWIDTH 1008 0
DWIDTH 14 0
BBX 13 11 1 -1
BITMAP
1040
2020
4010
4890
8888
8508
8508
4210
4210
2020
1040
ENDCHAR
STARTCHAR 24B2
ENCODING 9394
SWIDTH 1008 0
DWIDTH 14 0
BBX 13 11 1 -1
BITMAP
1040
2020
4010
5250
9248
9548
8D88
4890
4890
2020
1040
ENDCHAR
STARTCHAR 24B3
ENCODING 9395
SWIDTH 1008 0
DWIDTH 14 0
BBX 13 11 1 -1
BITMAP
1040
2020
4010
4890
8508
8208
8208
4510
4890
2020
1040
ENDCHAR
STARTCHAR 24B4
ENCODING 9396
SWIDTH 1008 0
DWIDTH 14 0
BBX 13 11 1 -1
BITMAP
1040
2020
4010
4890
8888
8508
8508
4210
4210
2C20
1040
ENDCHAR
STARTCHAR 24B5
ENCODING 9397
SWIDTH 1008 0
DWIDTH 14 0
BBX 13 11 1 -1
BITMAP
1040
2020
4010
4F10
8108
8208
8408
4810
4F10
2020
1040
ENDCHAR
STARTCHAR 24D0
ENCODING 9424
SWIDTH 1008 0
DWIDTH 14 0
BBX 13 13 1 -2
BITMAP
0700
18C0
2020
4610
4910
8708
8908
8908
4690
4010
2020
18C0
0700
ENDCHAR
STARTCHAR 24D1
ENCODING 9425
SWIDTH 1008 0
DWIDTH 14 0
BBX 13 13 1 -2
BITMAP
0700
18C0
2420
4410
4710
8488
8488
8488
4710
4010
2020
18C0
0700
ENDCHAR
STARTCHAR 24D2
ENCODING 9426
SWIDTH 1008 0
DWIDTH 14 0
BBX 13 13 1 -2
BITMAP
0700
18C0
2020
4610
4910
8808
8808
8908
4610
4010
2020
18C0
0700
ENDCHAR
STARTCHAR 24D3
ENCODING 9427
SWIDTH 1008 0
DWIDTH 14 0
BBX 13 13 1 -2
BITMAP
0700
18C0
2120
4110
4710
8908
8908
8908
4710
4010
2020
18C0
0700
ENDCHAR
STARTCHAR 24D4
ENCODING 9428
SWIDTH 1008 0
DWIDTH 14 0
BBX 13 13 1 -2
BITMAP
0700
18C0
2020
4610
4910
8908
8F08
8808
4710
4010
2020
18C0
0700
ENDCHAR
STARTCHAR 24D5
ENCODING 9429
SWIDTH 1008 0
DWIDTH 14 0
BBX 13 13 1 -2
BITMAP
0700
18C0
2320
4410
4410
8F08
8408
8408
4410
4410
2020
18C0
0700
ENDCHAR
STARTCHAR 24D6
ENCODING 9430
SWIDTH 1008 0
DWIDTH 14 0
BBX 13 13 1 -2
BITMAP
0700
18C0
2020
4710
4910
8908
8908
8708
4110
4E10
2020
18C0
0700
ENDCHAR
STARTCHAR 24D7
ENCODING 9431
SWIDTH 1008 0
DWIDTH 14 0
BBX 13 13 1 -2
BITMAP
0700
18C0
2420
4410
4710
8488
8488
8488
4490
4010
2020
18C0
0700
ENDCHAR
STARTCHAR 24D8
ENCODING 9432
SWIDTH 1008 0
DWIDTH 14 0
BBX 13 13 1 -2
BITMAP
0700
18C0
2220
4210
4010
8208
8208
8208
4210
4210
2020
18C0
0700
ENDCHAR
STARTCHAR 24D9
ENCODING 9433
SWIDTH 1008 0
DWIDTH 14 0
BBX 13 13 1 -2
BITMAP
0700
18C0
2220
4210
4010
8208
8208
8208
4210
4210
2C20
18C0
0700
ENDCHAR
STARTCHAR 24DA
ENCODING 9434
SWIDTH 1008 0
DWIDTH 14 0
BBX 13 13 1 -2
BITMAP
0700
18C0
2420
4410
4490
8508
8608
8608
4510
4490
2020
18C0
0700
ENDCHAR
STARTCHAR 24DB
ENCODING 9435
SWIDTH 1008 0
DWIDTH 14 0
BBX 13 13 1 -2
BITMAP
0700
18C0
2220
4210
4210
8208
8208
8208
4210
4210
2020
18C0
0700
ENDCHAR
STARTCHAR 24DC
ENCODING 9436
SWIDTH 1008 0
DWIDTH 14 0
BBX 13 13 1 -2
BITMAP
0700
18C0
2020
4D10
4A90
8A88
8A88
8A88
4A90
4010
2020
18C0
0700
ENDCHAR
STARTCHAR 24DD
ENCODING 9437
SWIDTH 1008 0
DWIDTH 14 0
BBX 13 13 1 -2
BITMAP
0700
18C0
2020
4710
4490
8488
8488
8488
4490
4010
2020
18C0
0700
ENDCHAR
STARTCHAR 24DE
ENCODING 9438
SWIDTH 1008 0
DWIDTH 14 0
BBX 13 13 1 -2
BITMAP
0700
18C0
2020
4310
4490
8488
8488
8488
4310
4010
2020
18C0
0700
ENDCHAR
STARTCHAR 24DF
ENCODING 9439
SWIDTH 1008 0
DWIDTH 14 0
BBX 13 13 1 -2
BITMAP
0700
18C0
2020
4710
4490
8488
8488
8708
4410
4410
2020
18C0
0700
ENDCHAR
STARTCHAR 24E0
ENCODING 9440
SWIDTH 1008 0
DWIDTH 14 0
BBX 13 13 1 -2
BITMAP
0700
18C0
2020
4710
4910
8908
8908
8708
4110
4110
2020
18C0
0700
ENDCHAR
STARTCHAR 24E1
ENCODING 9441
SWIDTH 1008 0
DWIDTH 14 0
BBX 13 13 1 -2
BITMAP
0700
18C0
2020
4590
4610
8408
8408
8408
4410
4010
2020
18C0
0700
ENDCHAR
STARTCHAR 24E2
ENCODING 9442
SWIDTH 1008 0
DWIDTH 14 0
BBX 13 13 1 -2
BITMAP
0700
18C0
2020
4610
4910
8408
8208
8908
4610
4010
2020
18C0
0700
ENDCHAR
STARTCHAR 24E3
ENCODING 9443
SWIDTH 1008 0
DWIDTH 14 0
BBX 13 13 1 -2
BITMAP
0700
18C0
2420
4410
4F10
8408
8408
8408
4410
4310
2020
18C0
0700
ENDCHAR
STARTCHAR 24E4
ENCODING 9444
SWIDTH 1008 0
DWIDTH 14 0
BBX 13 13 1 -2
BITMAP
0700
18C0
2020
4910
4910
8908
8908
8908
4710
4010
2020
18C0
0700
ENDCHAR
STARTCHAR 24E5
ENCODING 9445
SWIDTH 1008 0
DWIDTH 14 0
BBX 13 13 1 -2
BITMAP
0700
18C0
2020
4890
4890
8508
8508
8208
4210
4010
2020
18C0
0700
ENDCHAR
STARTCHAR 24E6
ENCODING 9446
SWIDTH 1008 0
DWIDTH 14 0
BBX 13 13 1 -2
BITMAP
0700
18C0
2020
5250
5250
9548
8D88
8888
4890
4010
2020
18C0
0700
ENDCHAR
STARTCHAR 24E7
ENCODING 9447
SWIDTH 1008 0
DWIDTH 14 0
BBX 13 13 1 -2
BITMAP
0700
18C0
2020
4890
4510
8208
8208
8508
4890
4010
2020
18C0
0700
ENDCHAR
STARTCHAR 24E8
ENCODING 9448
SWIDTH 1008 0
DWIDTH 14 0
BBX 13 13 1 -2
BITMAP
0700
18C0
2020
4890
4890
8508
8508
8208
4210
4C10
2020
18C0
0700
ENDCHAR
STARTCHAR 24E9
ENCODING 9449
SWIDTH 1008 0
DWIDTH 14 0
BBX 13 13 1 -2
BITMAP
0700
18C0
2020
4F10
4110
8208
8408
8808
4F10
4010
2020
18C0
0700
ENDCHAR
STARTCHAR 2500
ENCODING 9472
SWIDTH 1008 0
DWIDTH 14 0
BBX 14 1 0 5
BITMAP
FFFC
ENDCHAR
STARTCHAR 2501
ENCODING 9473
SWIDTH 1008 0
DWIDTH 14 0
BBX 14 2 0 4
BITMAP
FFFC
FFFC
ENDCHAR
STARTCHAR 2502
ENCODING 9474
SWIDTH 1008 0
DWIDTH 14 0
BBX 1 14 7 -2
BITMAP
80
80
80
80
80
80
80
80
80
80
80
80
80
80
ENDCHAR
STARTCHAR 2503
ENCODING 9475
SWIDTH 1008 0
DWIDTH 14 0
BBX 2 14 6 -2
BITMAP
C0
C0
C0
C0
C0
C0
C0
C0
C0
C0
C0
C0
C0
C0
ENDCHAR
STARTCHAR 250C
ENCODING 9484
SWIDTH 1008 0
DWIDTH 14 0
BBX 7 8 7 -2
BITMAP
FE
80
80
80
80
80
80
80
ENDCHAR
STARTCHAR 250D
ENCODING 9485
SWIDTH 1008 0
DWIDTH 14 0
BBX 7 8 7 4
BITMAP
FE
FE
80
80
80
80
80
80
ENDCHAR
STARTCHAR 250E
ENCODING 9486
SWIDTH 1008 0
DWIDTH 14 0
BBX 8 8 6 4
BITMAP
FF
C0
C0
C0
C0
C0
C0
C0
ENDCHAR
STARTCHAR 250F
ENCODING 9487
SWIDTH 1008 0
DWIDTH 14 0
BBX 8 8 6 4
BITMAP
FF
FF
C0
C0
C0
C0
C0
C0
ENDCHAR
STARTCHAR 2510
ENCODING 9488
SWIDTH 1008 0
DWIDTH 14 0
BBX 8 8 0 -2
BITMAP
FF
01
01
01
01
01
01
01
ENDCHAR
STARTCHAR 2511
ENCODING 9489
SWIDTH 1008 0
DWIDTH 14 0
BBX 8 8 0 4
BITMAP
FF
FF
01
01
01
01
01
01
ENDCHAR
STARTCHAR 2512
ENCODING 9490
SWIDTH 1008 0
DWIDTH 14 0
BBX 8 8 0 4
BITMAP
FF
03
03
03
03
03
03
03
ENDCHAR
STARTCHAR 2513
ENCODING 9491
SWIDTH 1008 0
DWIDTH 14 0
BBX 8 8 0 4
BITMAP
FF
FF
03
03
03
03
03
03
ENDCHAR
STARTCHAR 2514
ENCODING 9492
SWIDTH 1008 0
DWIDTH 14 0
BBX 7 7 7 5
BITMAP
80
80
80
80
80
80
FE
ENDCHAR
STARTCHAR 2515
ENCODING 9493
SWIDTH 1008 0
DWIDTH 14 0
BBX 7 8 7 -2
BITMAP
80
80
80
80
80
80
FE
FE
ENDCHAR
STARTCHAR 2516
ENCODING 9494
SWIDTH 1008 0
DWIDTH 14 0
BBX 8 7 6 -2
BITMAP
C0
C0
C0
C0
C0
C0
FF
ENDCHAR
STARTCHAR 2517
ENCODING 9495
SWIDTH 1008 0
DWIDTH 14 0
BBX 8 8 6 -2
BITMAP
C0
C0
C0
C0
C0
C0
FF
FF
ENDCHAR
STARTCHAR 2518
ENCODING 9496
SWIDTH 1008 0
DWIDTH 14 0
BBX 8 7 0 5
BITMAP
01
01
01
01
01
01
FF
ENDCHAR
STARTCHAR 2519
ENCODING 9497
SWIDTH 1008 0
DWIDTH 14 0
BBX 8 8 0 -2
BITMAP
01
01
01
01
01
01
FF
FF
ENDCHAR
STARTCHAR 251A
ENCODING 9498
SWIDTH 1008 0
DWIDTH 14 0
BBX 8 7 0 -2
BITMAP
03
03
03
03
03
03
FF
ENDCHAR
STARTCHAR 251B
ENCODING 9499
SWIDTH 1008 0
DWIDTH 14 0
BBX 8 8 0 -2
BITMAP
03
03
03
03
03
03
FF
FF
ENDCHAR
STARTCHAR 251C
ENCODING 9500
SWIDTH 1008 0
DWIDTH 14 0
BBX 7 14 7 -2
BITMAP
80
80
80
80
80
80
FE
80
80
80
80
80
80
80
ENDCHAR
STARTCHAR 251D
ENCODING 9501
SWIDTH 1008 0
DWIDTH 14 0
BBX 7 14 7 -2
BITMAP
80
80
80
80
80
80
FE
FE
80
80
80
80
80
80
ENDCHAR
STARTCHAR 251E
ENCODING 9502
SWIDTH 1008 0
DWIDTH 14 0
BBX 8 14 6 -2
BITMAP
C0
C0
C0
C0
C0
C0
FF
40
40
40
40
40
40
40
ENDCHAR
STARTCHAR 251F
ENCODING 9503
SWIDTH 1008 0
DWIDTH 14 0
BBX 8 14 6 -2
BITMAP
40
40
40
40
40
40
FF
C0
C0
C0
C0
C0
C0
C0
ENDCHAR
STARTCHAR 2520
ENCODING 9504
SWIDTH 1008 0
DWIDTH 14 0
BBX 8 14 6 -2
BITMAP
C0
C0
C0
C0
C0
C0
FF
C0
C0
C0
C0
C0
C0
C0
ENDCHAR
STARTCHAR 2521
ENCODING 9505
SWIDTH 1008 0
DWIDTH 14 0
BBX 8 14 6 -2
BITMAP
C0
C0
C0
C0
C0
C0
FF
FF
40
40
40
40
40
40
ENDCHAR
STARTCHAR 2522
ENCODING 9506
SWIDTH 1008 0
DWIDTH 14 0
BBX 8 14 6 -2
BITMAP
40
40
40
40
40
40
FF
FF
C0
C0
C0
C0
C0
C0
ENDCHAR
STARTCHAR 2523
ENCODING 9507
SWIDTH 1008 0
DWIDTH 14 0
BBX 8 14 6 -2
BITMAP
C0
C0
C0
C0
C0
C0
FF
FF
C0
C0
C0
C0
C0
C0
ENDCHAR
STARTCHAR 2524
ENCODING 9508
SWIDTH 1008 0
DWIDTH 14 0
BBX 8 14 0 -2
BITMAP
01
01
01
01
01
01
FF
01
01
01
01
01
01
01
ENDCHAR
STARTCHAR 2525
ENCODING 9509
SWIDTH 1008 0
DWIDTH 14 0
BBX 8 14 0 -2
BITMAP
01
01
01
01
01
01
FF
FF
01
01
01
01
01
01
ENDCHAR
STARTCHAR 2526
ENCODING 9510
SWIDTH 1008 0
DWIDTH 14 0
BBX 8 14 0 -2
BITMAP
03
03
03
03
03
03
FF
01
01
01
01
01
01
01
ENDCHAR
STARTCHAR 2527
ENCODING 9511
SWIDTH 1008 0
DWIDTH 14 0
BBX 8 14 0 -2
BITMAP
01
01
01
01
01
01
FF
03
03
03
03
03
03
03
ENDCHAR
STARTCHAR 2528
ENCODING 9512
SWIDTH 1008 0
DWIDTH 14 0
BBX 8 14 0 -2
BITMAP
03
03
03
03
03
03
FF
03
03
03
03
03
03
03
ENDCHAR
STARTCHAR 2529
ENCODING 9513
SWIDTH 1008 0
DWIDTH 14 0
BBX 8 14 0 -2
BITMAP
03
03
03
03
03
03
FF
FF
01
01
01
01
01
01
ENDCHAR
STARTCHAR 252A
ENCODING 9514
SWIDTH 1008 0
DWIDTH 14 0
BBX 8 14 0 -2
BITMAP
01
01
01
01
01
01
FF
FF
03
03
03
03
03
03
ENDCHAR
STARTCHAR 252B
ENCODING 9515
SWIDTH 1008 0
DWIDTH 14 0
BBX 8 14 0 -2
BITMAP
03
03
03
03
03
03
FF
FF
03
03
03
03
03
03
ENDCHAR
STARTCHAR 252C
ENCODING 9516
SWIDTH 1008 0
DWIDTH 14 0
BBX 14 8 0 -2
BITMAP
FFFC
0100
0100
0100
0100
0100
0100
0100
ENDCHAR
STARTCHAR 252D
ENCODING 9517
SWIDTH 1008 0
DWIDTH 14 0
BBX 14 8 0 4
BITMAP
FFFC
FF00
0100
0100
0100
0100
0100
0100
ENDCHAR
STARTCHAR 252E
ENCODING 9518
SWIDTH 1008 0
DWIDTH 14 0
BBX 14 8 0 4
BITMAP
FFFC
01FC
0100
0100
0100
0100
0100
0100
ENDCHAR
STARTCHAR 252F
ENCODING 9519
SWIDTH 1008 0
DWIDTH 14 0
BBX 14 8 0 4
BITMAP
FFFC
FFFC
0100
0100
0100
0100
0100
0100
ENDCHAR
STARTCHAR 2530
ENCODING 9520
SWIDTH 1008 0
DWIDTH 14 0
BBX 14 8 0 4
BITMAP
FFFC
0300
0300
0300
0300
0300
0300
0300
ENDCHAR
STARTCHAR 2531
ENCODING 9521
SWIDTH 1008 0
DWIDTH 14 0
BBX 14 8 0 4
BITMAP
FFFC
FF00
0300
0300
0300
0300
0300
0300
ENDCHAR
STARTCHAR 2532
ENCODING 9522
SWIDTH 1008 0
DWIDTH 14 0
BBX 14 8 0 4
BITMAP
FFFC
03FC
0300
0300
0300
0300
0300
0300
ENDCHAR
STARTCHAR 2533
ENCODING 9523
SWIDTH 1008 0
DWIDTH 14 0
BBX 14 8 0 4
BITMAP
FFFC
FFFC
0300
0300
0300
0300
0300
0300
ENDCHAR
STARTCHAR 2534
ENCODING 9524
SWIDTH 1008 0
DWIDTH 14 0
BBX 14 7 0 5
BITMAP
0100
0100
0100
0100
0100
0100
FFFC
ENDCHAR
STARTCHAR 2535
ENCODING 9525
SWIDTH 1008 0
DWIDTH 14 0
BBX 14 8 0 -2
BITMAP
0100
0100
0100
0100
0100
0100
FFFC
FF00
ENDCHAR
STARTCHAR 2536
ENCODING 9526
SWIDTH 1008 0
DWIDTH 14 0
BBX 14 8 0 -2
BITMAP
0100
0100
0100
0100
0100
0100
FFFC
01FC
ENDCHAR
STARTCHAR 2537
ENCODING 9527
SWIDTH 1008 0
DWIDTH 14 0
BBX 14 8 0 -2
BITMAP
0100
0100
0100
0100
0100
0100
FFFC
FFFC
ENDCHAR
STARTCHAR 2538
ENCODING 9528
SWIDTH 1008 0
DWIDTH 14 0
BBX 14 7 0 -2
BITMAP
0300
0300
0300
0300
0300
0300
FFFC
ENDCHAR
STARTCHAR 2539
ENCODING 9529
SWIDTH 1008 0
DWIDTH 14 0
BBX 14 8 0 -2
BITMAP
0300
0300
0300
0300
0300
0300
FFFC
FF00
ENDCHAR
STARTCHAR 253A
ENCODING 9530
SWIDTH 1008 0
DWIDTH 14 0
BBX 14 8 0 -2
BITMAP
0300
0300
0300
0300
0300
0300
FFFC
03FC
ENDCHAR
STARTCHAR 253B
ENCODING 9531
SWIDTH 1008 0
DWIDTH 14 0
BBX 14 8 0 -2
BITMAP
0300
0300
0300
0300
0300
0300
FFFC
FFFC
ENDCHAR
STARTCHAR 253C
ENCODING 9532
SWIDTH 1008 0
DWIDTH 14 0
BBX 14 14 0 -2
BITMAP
0100
0100
0100
0100
0100
0100
FFFC
0100
0100
0100
0100
0100
0100
0100
ENDCHAR
STARTCHAR 253D
ENCODING 9533
SWIDTH 1008 0
DWIDTH 14 0
BBX 14 14 0 -2
BITMAP
0100
0100
0100
0100
0100
0100
FFFC
FF00
0100
0100
0100
0100
0100
0100
ENDCHAR
STARTCHAR 253E
ENCODING 9534
SWIDTH 1008 0
DWIDTH 14 0
BBX 14 14 0 -2
BITMAP
0100
0100
0100
0100
0100
0100
FFFC
01FC
0100
0100
0100
0100
0100
0100
ENDCHAR
STARTCHAR 253F
ENCODING 9535
SWIDTH 1008 0
DWIDTH 14 0
BBX 14 14 0 -2
BITMAP
0100
0100
0100
0100
0100
0100
FFFC
FFFC
0100
0100
0100
0100
0100
0100
ENDCHAR
STARTCHAR 2540
ENCODING 9536
SWIDTH 1008 0
DWIDTH 14 0
BBX 14 14 0 -2
BITMAP
0300
0300
0300
0300
0300
0300
FFFC
0100
0100
0100
0100
0100
0100
0100
ENDCHAR
STARTCHAR 2541
ENCODING 9537
SWIDTH 1008 0
DWIDTH 14 0
BBX 14 14 0 -2
BITMAP
0100
0100
0100
0100
0100
0100
FFFC
0300
0300
0300
0300
0300
0300
0300
ENDCHAR
STARTCHAR 2542
ENCODING 9538
SWIDTH 1008 0
DWIDTH 14 0
BBX 14 14 0 -2
BITMAP
0300
0300
0300
0300
0300
0300
FFFC
0300
0300
0300
0300
0300
0300
0300
ENDCHAR
STARTCHAR 2543
ENCODING 9539
SWIDTH 1008 0
DWIDTH 14 0
BBX 14 14 0 -2
BITMAP
0300
0300
0300
0300
0300
0300
FFFC
FF00
0100
0100
0100
0100
0100
0100
ENDCHAR
STARTCHAR 2544
ENCODING 9540
SWIDTH 1008 0
DWIDTH 14 0
BBX 14 14 0 -2
BITMAP
0300
0300
0300
0300
0300
0300
FFFC
03FC
0100
0100
0100
0100
0100
0100
ENDCHAR
STARTCHAR 2545
ENCODING 9541
SWIDTH 1008 0
DWIDTH 14 0
BBX 8 14 0 -2
BITMAP
01
01
01
01
01
01
FF
FF
03
03
03
03
03
03
ENDCHAR
STARTCHAR 2546
ENCODING 9542
SWIDTH 1008 0
DWIDTH 14 0
BBX 14 14 0 -2
BITMAP
0100
0100
0100
0100
0100
0100
FFFC
03FC
0300
0300
0300
0300
0300
0300
ENDCHAR
STARTCHAR 2547
ENCODING 9543
SWIDTH 1008 0
DWIDTH 14 0
BBX 14 14 0 -2
BITMAP
0300
0300
0300
0300
0300
0300
FFFC
FFFC
0100
0100
0100
0100
0100
0100
ENDCHAR
STARTCHAR 2548
ENCODING 9544
SWIDTH 1008 0
DWIDTH 14 0
BBX 14 14 0 -2
BITMAP
0100
0100
0100
0100
0100
0100
FFFC
FFFC
0300
0300
0300
0300
0300
0300
ENDCHAR
STARTCHAR 2549
ENCODING 9545
SWIDTH 1008 0
DWIDTH 14 0
BBX 14 14 0 -2
BITMAP
0300
0300
0300
0300
0300
0300
FFFC
FF00
0300
0300
0300
0300
0300
0300
ENDCHAR
STARTCHAR 254A
ENCODING 9546
SWIDTH 1008 0
DWIDTH 14 0
BBX 14 14 0 -2
BITMAP
0300
0300
0300
0300
0300
0300
FFFC
03FC
0300
0300
0300
0300
0300
0300
ENDCHAR
STARTCHAR 254B
ENCODING 9547
SWIDTH 1008 0
DWIDTH 14 0
BBX 14 14 0 -2
BITMAP
0300
0300
0300
0300
0300
0300
FFFC
FFFC
0300
0300
0300
0300
0300
0300
ENDCHAR
STARTCHAR 2550
ENCODING 9552
SWIDTH 1008 0
DWIDTH 14 0
BBX 14 3 0 4
BITMAP
FFFC
0000
FFFC
ENDCHAR
STARTCHAR 2551
ENCODING 9553
SWIDTH 1008 0
DWIDTH 14 0
BBX 3 14 6 -2
BITMAP
A0
A0
A0
A0
A0
A0
A0
A0
A0
A0
A0
A0
A0
A0
ENDCHAR
STARTCHAR 2552
ENCODING 9554
SWIDTH 1008 0
DWIDTH 14 0
BBX 7 9 7 -2
BITMAP
FE
80
FE
80
80
80
80
80
80
ENDCHAR
STARTCHAR 2553
ENCODING 9555
SWIDTH 1008 0
DWIDTH 14 0
BBX 8 8 6 -2
BITMAP
FF
A0
A0
A0
A0
A0
A0
A0
ENDCHAR
STARTCHAR 2554
ENCODING 9556
SWIDTH 1008 0
DWIDTH 14 0
BBX 8 9 6 -2
BITMAP
FF
80
BF
A0
A0
A0
A0
A0
A0
ENDCHAR
STARTCHAR 2555
ENCODING 9557
SWIDTH 1008 0
DWIDTH 14 0
BBX 8 9 0 -2
BITMAP
FF
01
FF
01
01
01
01
01
01
ENDCHAR
STARTCHAR 2556
ENCODING 9558
SWIDTH 1008 0
DWIDTH 14 0
BBX 9 8 0 -2
BITMAP
FF80
0280
0280
0280
0280
0280
0280
0280
ENDCHAR
STARTCHAR 2557
ENCODING 9559
SWIDTH 1008 0
DWIDTH 14 0
BBX 9 9 0 -2
BITMAP
FF80
0080
FE80
0280
0280
0280
0280
0280
0280
ENDCHAR
STARTCHAR 2558
ENCODING 9560
SWIDTH 1008 0
DWIDTH 14 0
BBX 7 8 7 4
BITMAP
80
80
80
80
80
FE
80
FE
ENDCHAR
STARTCHAR 2559
ENCODING 9561
SWIDTH 1008 0
DWIDTH 14 0
BBX 8 7 6 5
BITMAP
A0
A0
A0
A0
A0
A0
FF
ENDCHAR
STARTCHAR 255A
ENCODING 9562
SWIDTH 1008 0
DWIDTH 14 0
BBX 8 8 6 4
BITMAP
A0
A0
A0
A0
A0
BF
80
FF
ENDCHAR
STARTCHAR 255B
ENCODING 9563
SWIDTH 1008 0
DWIDTH 14 0
BBX 8 8 0 4
BITMAP
01
01
01
01
01
FF
01
FF
ENDCHAR
STARTCHAR 255C
ENCODING 9564
SWIDTH 1008 0
DWIDTH 14 0
BBX 9 8 0 4
BITMAP
0280
0280
0280
0280
0280
0280
0280
FF80
ENDCHAR
STARTCHAR 255D
ENCODING 9565
SWIDTH 1008 0
DWIDTH 14 0
BBX 9 8 0 4
BITMAP
0280
0280
0280
0280
0280
FE80
0080
FF80
ENDCHAR
STARTCHAR 255E
ENCODING 9566
SWIDTH 1008 0
DWIDTH 14 0
BBX 7 14 7 -2
BITMAP
80
80
80
80
80
FE
80
FE
80
80
80
80
80
80
ENDCHAR
STARTCHAR 255F
ENCODING 9567
SWIDTH 1008 0
DWIDTH 14 0
BBX 8 14 6 -2
BITMAP
A0
A0
A0
A0
A0
A0
BF
A0
A0
A0
A0
A0
A0
A0
ENDCHAR
STARTCHAR 2560
ENCODING 9568
SWIDTH 1008 0
DWIDTH 14 0
BBX 8 14 6 -2
BITMAP
A0
A0
A0
A0
A0
BF
80
BF
A0
A0
A0
A0
A0
A0
ENDCHAR
STARTCHAR 2561
ENCODING 9569
SWIDTH 1008 0
DWIDTH 14 0
BBX 8 14 0 -2
BITMAP
01
01
01
01
01
FF
01
FF
01
01
01
01
01
01
ENDCHAR
STARTCHAR 2562
ENCODING 9570
SWIDTH 1008 0
DWIDTH 14 0
BBX 9 14 0 -2
BITMAP
0280
0280
0280
0280
0280
0280
FE80
0280
0280
0280
0280
0280
0280
0280
ENDCHAR
STARTCHAR 2563
ENCODING 9571
SWIDTH 1008 0
DWIDTH 14 0
BBX 9 14 0 -2
BITMAP
0280
0280
0280
0280
0280
FE80
0080
FE80
0280
0280
0280
0280
0280
0280
ENDCHAR
STARTCHAR 2564
ENCODING 9572
SWIDTH 1008 0
DWIDTH 14 0
BBX 14 9 0 -2
BITMAP
FFFC
0000
FFFC
0100
0100
0100
0100
0100
0100
ENDCHAR
STARTCHAR 2565
ENCODING 9573
SWIDTH 1008 0
DWIDTH 14 0
BBX 14 8 0 -2
BITMAP
FFFC
0280
0280
0280
0280
0280
0280
0280
ENDCHAR
STARTCHAR 2566
ENCODING 9574
SWIDTH 1008 0
DWIDTH 14 0
BBX 14 9 0 -2
BITMAP
FFFC
0000
FEFC
0280
0280
0280
0280
0280
0280
ENDCHAR
STARTCHAR 2567
ENCODING 9575
SWIDTH 1008 0
DWIDTH 14 0
BBX 14 8 0 4
BITMAP
0100
0100
0100
0100
0100
FFFC
0000
FFFC
ENDCHAR
STARTCHAR 2568
ENCODING 9576
SWIDTH 1008 0
DWIDTH 14 0
BBX 14 7 0 5
BITMAP
0280
0280
0280
0280
0280
0280
FFFC
ENDCHAR
STARTCHAR 2569
ENCODING 9577
SWIDTH 1008 0
DWIDTH 14 0
BBX 14 8 0 4
BITMAP
0280
0280
0280
0280
0280
FEFC
0000
FFFC
ENDCHAR
STARTCHAR 256A
ENCODING 9578
SWIDTH 1008 0
DWIDTH 14 0
BBX 14 14 0 -2
BITMAP
0100
0100
0100
0100
0100
FFFC
0100
FFFC
0100
0100
0100
0100
0100
0100
ENDCHAR
STARTCHAR 256B
ENCODING 9579
SWIDTH 1008 0
DWIDTH 14 0
BBX 14 14 0 -2
BITMAP
0280
0280
0280
0280
0280
0280
FFFC
0280
0280
0280
0280
0280
0280
0280
ENDCHAR
STARTCHAR 256C
ENCODING 9580
SWIDTH 1008 0
DWIDTH 14 0
BBX 14 14 0 -2
BITMAP
0280
0280
0280
0280
0280
FEFC
0000
FEFC
0280
0280
0280
0280
0280
0280
ENDCHAR
STARTCHAR 2580
ENCODING 9600
SWIDTH 1008 0
DWIDTH 14 0
BBX 14 7 0 5
BITMAP
FFFC
FFFC
FFFC
FFFC
FFFC
FFFC
FFFC
ENDCHAR
STARTCHAR 2584
ENCODING 9604
SWIDTH 1008 0
DWIDTH 14 0
BBX 14 7 0 -2
BITMAP
FFFC
FFFC
FFFC
FFFC
FFFC
FFFC
FFFC
ENDCHAR
STARTCHAR 2588
ENCODING 9608
SWIDTH 1008 0
DWIDTH 14 0
BBX 14 14 0 -2
BITMAP
FFFC
FFFC
FFFC
FFFC
FFFC
FFFC
FFFC
FFFC
FFFC
FFFC
FFFC
FFFC
FFFC
FFFC
ENDCHAR
STARTCHAR 258C
ENCODING 9612
SWIDTH 1008 0
DWIDTH 14 0
BBX 7 14 0 -2
BITMAP
FE
FE
FE
FE
FE
FE
FE
FE
FE
FE
FE
FE
FE
FE
ENDCHAR
STARTCHAR 2590
ENCODING 9616
SWIDTH 1008 0
DWIDTH 14 0
BBX 7 14 7 -2
BITMAP
FE
FE
FE
FE
FE
FE
FE
FE
FE
FE
FE
FE
FE
FE
ENDCHAR
STARTCHAR 2591
ENCODING 9617
SWIDTH 1008 0
DWIDTH 14 0
BBX 13 13 1 -1
BITMAP
AAA8
0000
0000
AAA8
0000
0000
AAA8
0000
0000
AAA8
0000
0000
AAA8
ENDCHAR
STARTCHAR 2592
ENCODING 9618
SWIDTH 1008 0
DWIDTH 14 0
BBX 13 13 1 -1
BITMAP
AAA8
0000
AAA8
0000
AAA8
0000
AAA8
0000
AAA8
0000
AAA8
0000
AAA8
ENDCHAR
STARTCHAR 2593
ENCODING 9619
SWIDTH 1008 0
DWIDTH 14 0
BBX 14 14 0 -2
BITMAP
5554
AAA8
5554
AAA8
5554
AAA8
5554
AAA8
5554
AAA8
5554
AAA8
5554
AAA8
ENDCHAR
STARTCHAR 25A0
ENCODING 9632
SWIDTH 864 0
DWIDTH 12 0
BBX 11 12 1 -1
BITMAP
FFE0
FFE0
FFE0
FFE0
FFE0
FFE0
FFE0
FFE0
FFE0
FFE0
FFE0
FFE0
ENDCHAR
STARTCHAR 25A1
ENCODING 9633
SWIDTH 864 0
DWIDTH 12 0
BBX 11 12 1 -1
BITMAP
FFE0
8020
8020
8020
8020
8020
8020
8020
8020
8020
8020
FFE0
ENDCHAR
STARTCHAR 25A3
ENCODING 9635
SWIDTH 1008 0
DWIDTH 14 0
BBX 12 12 1 -1
BITMAP
FFF0
8010
8010
9F90
9F90
9F90
9F90
9F90
9F90
8010
8010
FFF0
ENDCHAR
STARTCHAR 25A4
ENCODING 9636
SWIDTH 1008 0
DWIDTH 14 0
BBX 13 13 1 -2
BITMAP
FFF8
8008
8008
FFF8
8008
8008
FFF8
8008
8008
FFF8
8008
8008
FFF8
ENDCHAR
STARTCHAR 25A5
ENCODING 9637
SWIDTH 1008 0
DWIDTH 14 0
BBX 13 13 1 -2
BITMAP
FFF8
9248
9248
9248
9248
9248
9248
9248
9248
9248
9248
9248
FFF8
ENDCHAR
STARTCHAR 25A6
ENCODING 9638
SWIDTH 1008 0
DWIDTH 14 0
BBX 13 13 1 -2
BITMAP
FFF8
8888
8888
8888
FFF8
8888
8888
8888
FFF8
8888
8888
8888
FFF8
ENDCHAR
STARTCHAR 25A7
ENCODING 9639
SWIDTH 1008 0
DWIDTH 14 0
BBX 13 13 1 -2
BITMAP
FFF8
C218
A108
9088
8848
8428
C218
A108
9088
8848
8428
C218
FFF8
ENDCHAR
STARTCHAR 25A8
ENCODING 9640
SWIDTH 1008 0
DWIDTH 14 0
BBX 13 13 1 -2
BITMAP
FFF8
C218
8428
8848
9088
A108
C218
8428
8848
9088
A108
C218
FFF8
ENDCHAR
STARTCHAR 25A9
ENCODING 9641
SWIDTH 1008 0
DWIDTH 14 0
BBX 13 13 1 -2
BITMAP
FFF8
C218
A528
98C8
98C8
A528
C218
A528
98C8
98C8
A528
C218
FFF8
ENDCHAR
STARTCHAR 25AA
ENCODING 9642
SWIDTH 360 0
DWIDTH 5 0
BBX 4 4 1 3
BITMAP
F0
F0
F0
F0
ENDCHAR
STARTCHAR 25AB
ENCODING 9643
SWIDTH 360 0
DWIDTH 5 0
BBX 4 4 1 3
BITMAP
F0
90
90
F0
ENDCHAR
STARTCHAR 25AC
ENCODING 9644
SWIDTH 1008 0
DWIDTH 14 0
BBX 14 3 0 4
BITMAP
FFFC
FFFC
FFFC
ENDCHAR
STARTCHAR 25B2
ENCODING 9650
SWIDTH 864 0
DWIDTH 12 0
BBX 11 11 1 0
BITMAP
0400
0E00
0E00
1F00
1F00
3F80
3F80
7FC0
7FC0
FFE0
FFE0
ENDCHAR
STARTCHAR 25B3
ENCODING 9651
SWIDTH 1008 0
DWIDTH 14 0
BBX 13 12 1 -1
BITMAP
0200
0500
0500
0880
0880
1040
1040
2020
2020
4010
4010
FFF8
ENDCHAR
STARTCHAR 25B6
ENCODING 9654
SWIDTH 1008 0
DWIDTH 14 0
BBX 12 13 1 -2
BITMAP
8000
E000
F800
FE00
FF80
FFE0
FFF0
FFE0
FF80
FE00
F800
E000
8000
ENDCHAR
STARTCHAR 25B7
ENCODING 9655
SWIDTH 1008 0
DWIDTH 14 0
BBX 12 13 1 -2
BITMAP
8000
E000
9800
8600
8180
8060
8010
8060
8180
8600
9800
E000
8000
ENDCHAR
STARTCHAR 25BA
ENCODING 9658
SWIDTH 720 0
DWIDTH 10 0
BBX 9 7 1 2
BITMAP
8000
F000
FE00
FF80
FE00
F000
8000
ENDCHAR
STARTCHAR 25BC
ENCODING 9660
SWIDTH 864 0
DWIDTH 12 0
BBX 11 11 1 -1
BITMAP
FFE0
FFE0
7FC0
7FC0
3F80
3F80
1F00
1F00
0E00
0E00
0400
ENDCHAR
STARTCHAR 25BD
ENCODING 9661
SWIDTH 1008 0
DWIDTH 14 0
BBX 13 12 1 -1
BITMAP
FFF8
4010
4010
2020
2020
1040
1040
0880
0880
0500
0500
0200
ENDCHAR
STARTCHAR 25C0
ENCODING 9664
SWIDTH 1008 0
DWIDTH 14 0
BBX 12 13 1 -2
BITMAP
0010
0070
01F0
07F0
1FF0
7FF0
FFF0
7FF0
1FF0
07F0
01F0
0070
0010
ENDCHAR
STARTCHAR 25C1
ENCODING 9665
SWIDTH 1008 0
DWIDTH 14 0
BBX 12 13 1 -2
BITMAP
0010
0070
0190
0610
1810
6010
8010
6010
1810
0610
0190
0070
0010
ENDCHAR
STARTCHAR 25C4
ENCODING 9668
SWIDTH 720 0
DWIDTH 10 0
BBX 9 7 1 2
BITMAP
0080
0780
3F80
FF80
3F80
0780
0080
ENDCHAR
STARTCHAR 25C6
ENCODING 9670
SWIDTH 1008 0
DWIDTH 14 0
BBX 13 13 1 -1
BITMAP
0200
0700
0F80
1FC0
3FE0
7FF0
FFF8
7FF0
3FE0
1FC0
0F80
0700
0200
ENDCHAR
STARTCHAR 25C7
ENCODING 9671
SWIDTH 1008 0
DWIDTH 14 0
BBX 13 13 1 -1
BITMAP
0200
0500
0880
1040
2020
4010
8008
4010
2020
1040
0880
0500
0200
ENDCHAR
STARTCHAR 25C8
ENCODING 9672
SWIDTH 1008 0
DWIDTH 14 0
BBX 13 13 1 -2
BITMAP
0200
0500
0880
1240
2720
4F90
9FC8
4F90
2720
1240
0880
0500
0200
ENDCHAR
STARTCHAR 25CA
ENCODING 9674
SWIDTH 720 0
DWIDTH 10 0
BBX 9 10 1 0
BITMAP
0800
1400
2200
4100
8080
8080
4100
2200
1400
0800
ENDCHAR
STARTCHAR 25CB
ENCODING 9675
SWIDTH 1008 0
DWIDTH 14 0
BBX 12 12 1 -1
BITMAP
0F00
30C0
4020
4020
8010
8010
8010
8010
4020
4020
30C0
0F00
ENDCHAR
STARTCHAR 25CE
ENCODING 9678
SWIDTH 1008 0
DWIDTH 14 0
BBX 12 12 1 -1
BITMAP
0F00
30C0
4020
4F20
9090
9090
9090
9090
4F20
4020
30C0
0F00
ENDCHAR
STARTCHAR 25CF
ENCODING 9679
SWIDTH 1008 0
DWIDTH 14 0
BBX 12 12 1 -1
BITMAP
0F00
3FC0
7FE0
7FE0
FFF0
FFF0
FFF0
FFF0
7FE0
7FE0
3FC0
0F00
ENDCHAR
STARTCHAR 25D0
ENCODING 9680
SWIDTH 1008 0
DWIDTH 14 0
BBX 12 12 1 -1
BITMAP
0F00
3CC0
7C20
7C20
FC10
FC10
FC10
FC10
7C20
7C20
3CC0
0F00
ENDCHAR
STARTCHAR 25D1
ENCODING 9681
SWIDTH 1008 0
DWIDTH 14 0
BBX 12 12 1 -1
BITMAP
0F00
33C0
43E0
43E0
83F0
83F0
83F0
83F0
43E0
43E0
33C0
0F00
ENDCHAR
STARTCHAR 25D8
ENCODING 9688
SWIDTH 1008 0
DWIDTH 14 0
BBX 14 14 0 -2
BITMAP
FFFC
FFFC
FFFC
FFFC
FFFC
FCFC
F87C
F87C
FCFC
FFFC
FFFC
FFFC
FFFC
FFFC
ENDCHAR
STARTCHAR 25D9
ENCODING 9689
SWIDTH 1008 0
DWIDTH 14 0
BBX 14 14 0 -2
BITMAP
FFFC
F87C
E79C
DFEC
DFEC
BFF4
BFF4
BFF4
BFF4
DFEC
DFEC
E79C
F87C
FFFC
ENDCHAR
STARTCHAR 25E6
ENCODING 9702
SWIDTH 432 0
DWIDTH 6 0
BBX 4 4 1 3
BITMAP
60
90
90
60
ENDCHAR
STARTCHAR 2605
ENCODING 9733
SWIDTH 1008 0
DWIDTH 14 0
BBX 13 13 1 -1
BITMAP
0200
0200
0700
0700
0F80
FFF8
3FE0
1FC0
1FC0
1DC0
38E0
3060
4010
ENDCHAR
STARTCHAR 2606
ENCODING 9734
SWIDTH 1008 0
DWIDTH 14 0
BBX 13 13 1 -1
BITMAP
0200
0200
0500
0500
0880
F078
4010
2020
1040
1240
2DA0
3060
4010
ENDCHAR
STARTCHAR 260E
ENCODING 9742
SWIDTH 1008 0
DWIDTH 14 0
BBX 13 12 1 -1
BITMAP
3FE0
7FF0
F8F8
FFF8
EFB8
18C0
3060
3060
7070
78F0
7FF0
7FF0
ENDCHAR
STARTCHAR 260F
ENCODING 9743
SWIDTH 1008 0
DWIDTH 14 0
BBX 13 12 1 -1
BITMAP
3FE0
4010
8708
9048
E8B8
1740
28A0
28A0
4890
4710
4010
7FF0
ENDCHAR
STARTCHAR 261C
ENCODING 9756
SWIDTH 1008 0
DWIDTH 14 0
BBX 13 9 1 1
BITMAP
7FD8
8028
7E28
1028
0E28
1028
0E28
1028
0FD8
ENDCHAR
STARTCHAR 261E
ENCODING 9758
SWIDTH 1008 0
DWIDTH 14 0
BBX 13 9 1 1
BITMAP
DFF0
A008
A3F0
A040
A380
A040
A380
A040
DF80
ENDCHAR
STARTCHAR 263A
ENCODING 9786
SWIDTH 1008 0
DWIDTH 14 0
BBX 10 10 2 0
BITMAP
1E00
2100
4080
9240
9240
8040
A140
5E80
2100
1E00
ENDCHAR
STARTCHAR 263B
ENCODING 9787
SWIDTH 1008 0
DWIDTH 14 0
BBX 10 10 2 0
BITMAP
1E00
3F00
7F80
EDC0
EDC0
FFC0
DEC0
6180
3F00
1E00
ENDCHAR
STARTCHAR 263C
ENCODING 9788
SWIDTH 864 0
DWIDTH 12 0
BBX 9 9 2 1
BITMAP
0800
4900
3E00
2200
E380
2200
3E00
4900
0800
ENDCHAR
STARTCHAR 2640
ENCODING 9792
SWIDTH 576 0
DWIDTH 8 0
BBX 7 11 1 0
BITMAP
38
44
82
82
44
38
10
FE
10
10
10
ENDCHAR
STARTCHAR 2642
ENCODING 9794
SWIDTH 576 0
DWIDTH 8 0
BBX 7 10 1 0
BITMAP
0E
36
0A
0A
32
48
84
84
48
30
ENDCHAR
STARTCHAR 2660
ENCODING 9824
SWIDTH 720 0
DWIDTH 10 0
BBX 9 10 1 0
BITMAP
0800
1C00
3E00
7F00
FF80
FF80
FF80
6B00
0800
1C00
ENDCHAR
STARTCHAR 2661
ENCODING 9825
SWIDTH 1008 0
DWIDTH 14 0
BBX 11 12 2 -1
BITMAP
3180
4A40
8420
8020
8020
8020
4040
4040
2080
1100
0A00
0400
ENDCHAR
STARTCHAR 2663
ENCODING 9827
SWIDTH 792 0
DWIDTH 11 0
BBX 11 10 0 0
BITMAP
0E00
1F00
1F00
0E00
75C0
FFE0
FFE0
75C0
0400
0E00
ENDCHAR
STARTCHAR 2664
ENCODING 9828
SWIDTH 1008 0
DWIDTH 14 0
BBX 11 13 2 -2
BITMAP
0400
0A00
1100
2080
4040
8020
8020
8020
4E40
3580
0400
0A00
1F00
ENDCHAR
STARTCHAR 2665
ENCODING 9829
SWIDTH 792 0
DWIDTH 11 0
BBX 9 10 1 0
BITMAP
7700
FF80
FF80
FF80
7F00
7F00
3E00
1C00
0800
0800
ENDCHAR
STARTCHAR 2666
ENCODING 9830
SWIDTH 720 0
DWIDTH 10 0
BBX 9 10 1 0
BITMAP
0800
1C00
3E00
7F00
FF80
FF80
7F00
3E00
1C00
0800
ENDCHAR
STARTCHAR 2667
ENCODING 9831
SWIDTH 1008 0
DWIDTH 14 0
BBX 11 13 2 -2
BITMAP
0E00
1100
1100
1100
0A00
6AC0
9120
8A20
9520
64C0
0400
0A00
1F00
ENDCHAR
STARTCHAR 2668
ENCODING 9832
SWIDTH 1008 0
DWIDTH 14 0
BBX 13 12 1 -1
BITMAP
0A80
1500
1500
1500
0A80
3AE0
4A90
9508
C018
7070
3FE0
0F80
ENDCHAR
STARTCHAR 2669
ENCODING 9833
SWIDTH 1008 0
DWIDTH 14 0
BBX 3 13 6 -2
BITMAP
20
20
20
20
20
20
20
20
20
20
60
E0
C0
ENDCHAR
STARTCHAR 266A
ENCODING 9834
SWIDTH 648 0
DWIDTH 9 0
BBX 8 12 1 -1
BITMAP
10
18
1C
16
13
11
11
12
10
70
E0
C0
ENDCHAR
STARTCHAR 266B
ENCODING 9835
SWIDTH 720 0
DWIDTH 10 0
BBX 9 12 1 -1
BITMAP
1C00
1F80
1380
1080
1080
1080
1080
1080
7080
E380
C700
0600
ENDCHAR
STARTCHAR 266C
ENCODING 9836
SWIDTH 1008 0
DWIDTH 14 0
BBX 10 13 2 -2
BITMAP
01C0
0640
3840
21C0
2640
3840
2040
2040
2040
20C0
61C0
E180
C000
ENDCHAR
STARTCHAR 266D
ENCODING 9837
SWIDTH 1008 0
DWIDTH 14 0
BBX 5 12 5 -1
BITMAP
80
80
80
80
E0
90
88
88
88
90
A0
C0
ENDCHAR
STARTCHAR 3000
ENCODING 12288
SWIDTH 1008 0
DWIDTH 14 0
BBX 0 0 0 0
BITMAP
ENDCHAR
STARTCHAR 3001
ENCODING 12289
SWIDTH 1008 0
DWIDTH 14 0
BBX 3 4 1 -1
BITMAP
80
40
60
20
ENDCHAR
STARTCHAR 3002
ENCODING 12290
SWIDTH 1008 0
DWIDTH 14 0
BBX 4 4 1 -1
BITMAP
60
90
90
60
ENDCHAR
STARTCHAR 3003
ENCODING 12291
SWIDTH 1008 0
DWIDTH 14 0
BBX 4 5 5 3
BITMAP
50
50
50
A0
A0
ENDCHAR
STARTCHAR 3008
ENCODING 12296
SWIDTH 1008 0
DWIDTH 14 0
BBX 5 13 8 -1
BITMAP
08
10
10
20
40
40
80
40
40
20
10
10
08
ENDCHAR
STARTCHAR 3009
ENCODING 12297
SWIDTH 1008 0
DWIDTH 14 0
BBX 5 13 1 -1
BITMAP
80
40
40
20
10
10
08
10
10
20
40
40
80
ENDCHAR
STARTCHAR 300A
ENCODING 12298
SWIDTH 1008 0
DWIDTH 14 0
BBX 7 13 6 -1
BITMAP
12
12
24
24
48
48
90
48
48
24
24
12
12
ENDCHAR
STARTCHAR 300B
ENCODING 12299
SWIDTH 1008 0
DWIDTH 14 0
BBX 7 13 1 -1
BITMAP
90
90
48
48
24
24
12
24
24
48
48
90
90
ENDCHAR
STARTCHAR 300C
ENCODING 12300
SWIDTH 1008 0
DWIDTH 14 0
BBX 5 7 9 4
BITMAP
F8
80
80
80
80
80
80
ENDCHAR
STARTCHAR 300D
ENCODING 12301
SWIDTH 1008 0
DWIDTH 14 0
BBX 5 7 1 -1
BITMAP
08
08
08
08
08
08
F8
ENDCHAR
STARTCHAR 300E
ENCODING 12302
SWIDTH 1008 0
DWIDTH 14 0
BBX 6 7 8 4
BITMAP
FC
84
BC
A0
A0
A0
E0
ENDCHAR
STARTCHAR 300F
ENCODING 12303
SWIDTH 1008 0
DWIDTH 14 0
BBX 6 7 1 -1
BITMAP
1C
14
14
14
F4
84
FC
ENDCHAR
STARTCHAR 3010
ENCODING 12304
SWIDTH 1008 0
DWIDTH 14 0
BBX 4 13 10 -1
BITMAP
F0
E0
E0
C0
C0
C0
C0
C0
C0
C0
E0
E0
F0
ENDCHAR
STARTCHAR 3011
ENCODING 12305
SWIDTH 1008 0
DWIDTH 14 0
BBX 4 13 1 -1
BITMAP
F0
70
70
30
30
30
30
30
30
30
70
70
F0
ENDCHAR
STARTCHAR 3013
ENCODING 12307
SWIDTH 1008 0
DWIDTH 14 0
BBX 14 5 0 3
BITMAP
FFFC
0000
0000
0000
FFFC
ENDCHAR
STARTCHAR 3014
ENCODING 12308
SWIDTH 1008 0
DWIDTH 14 0
BBX 4 13 10 -1
BITMAP
30
C0
80
80
80
80
80
80
80
80
80
C0
30
ENDCHAR
STARTCHAR 3015
ENCODING 12309
SWIDTH 1008 0
DWIDTH 14 0
BBX 4 13 1 -1
BITMAP
C0
30
10
10
10
10
10
10
10
10
10
30
C0
ENDCHAR
STARTCHAR 3041
ENCODING 12353
SWIDTH 1008 0
DWIDTH 14 0
BBX 8 9 3 1
BITMAP
20
2C
F0
24
3E
69
91
B1
4A
ENDCHAR
STARTCHAR 3042
ENCODING 12354
SWIDTH 1008 0
DWIDTH 14 0
BBX 10 11 2 -1
BITMAP
1000
1E00
7000
1000
1200
3F00
5280
9440
8840
9840
6480
ENDCHAR
STARTCHAR 3043
ENCODING 12355
SWIDTH 1008 0
DWIDTH 14 0
BBX 7 7 4 3
BITMAP
80
84
84
82
82
50
20
ENDCHAR
STARTCHAR 3044
ENCODING 12356
SWIDTH 1008 0
DWIDTH 14 0
BBX 9 10 3 0
BITMAP
8000
8000
8200
8200
8100
8100
8080
8800
5000
2000
ENDCHAR
STARTCHAR 3045
ENCODING 12357
SWIDTH 1008 0
DWIDTH 14 0
BBX 6 8 4 2
BITMAP
70
00
38
C4
04
04
08
30
ENDCHAR
STARTCHAR 3046
ENCODING 12358
SWIDTH 1008 0
DWIDTH 14 0
BBX 7 11 3 -1
BITMAP
60
1C
00
1C
E2
02
02
02
04
04
08
ENDCHAR
STARTCHAR 3047
ENCODING 12359
SWIDTH 1008 0
DWIDTH 14 0
BBX 7 10 4 0
BITMAP
20
18
00
3C
C8
10
10
28
48
86
ENDCHAR
STARTCHAR 3048
ENCODING 12360
SWIDTH 1008 0
DWIDTH 14 0
BBX 10 11 3 -1
BITMAP
1000
0E00
0000
1F00
6400
0800
0800
1400
2400
4400
83C0
ENDCHAR
STARTCHAR 3049
ENCODING 12361
SWIDTH 1008 0
DWIDTH 14 0
BBX 9 9 4 1
BITMAP
2000
2000
3900
E080
3C00
6200
A100
A100
6600
ENDCHAR
STARTCHAR 304A
ENCODING 12362
SWIDTH 1008 0
DWIDTH 14 0
BBX 11 11 2 -1
BITMAP
1000
1000
1CC0
7020
1000
1F00
3080
5040
9040
9040
7180
ENDCHAR
STARTCHAR 304B
ENCODING 12363
SWIDTH 1008 0
DWIDTH 14 0
BBX 10 11 2 -1
BITMAP
1000
1100
1080
FE40
1200
1200
1200
2200
2200
4200
8C00
ENDCHAR
STARTCHAR 304C
ENCODING 12364
SWIDTH 1008 0
DWIDTH 14 0
BBX 11 11 2 -1
BITMAP
1040
1120
1080
FE00
1280
1240
1220
2200
2200
4200
8C00
ENDCHAR
STARTCHAR 304D
ENCODING 12365
SWIDTH 1008 0
DWIDTH 14 0
BBX 8 11 3 -1
BITMAP
10
14
78
0A
7C
04
3E
43
80
80
78
ENDCHAR
STARTCHAR 304E
ENCODING 12366
SWIDTH 1008 0
DWIDTH 14 0
BBX 11 11 2 -1
BITMAP
1040
1520
7880
0A00
7C00
0400
3E00
4300
8000
8000
7800
ENDCHAR
STARTCHAR 304F
ENCODING 12367
SWIDTH 1008 0
DWIDTH 14 0
BBX 4 11 5 -1
BITMAP
10
10
20
40
80
80
40
20
20
10
10
ENDCHAR
STARTCHAR 3050
ENCODING 12368
SWIDTH 1008 0
DWIDTH 14 0
BBX 8 11 5 -1
BITMAP
10
10
20
42
89
84
40
20
20
10
10
ENDCHAR
STARTCHAR 3051
ENCODING 12369
SWIDTH 1008 0
DWIDTH 14 0
BBX 11 11 2 -1
BITMAP
4100
4100
41E0
8F00
8100
8100
8100
A100
A200
4200
4400
ENDCHAR
STARTCHAR 3052
ENCODING 12370
SWIDTH 1008 0
DWIDTH 14 0
BBX 12 12 2 -2
BITMAP
0020
0010
4140
4120
41C0
8F00
8100
8100
A100
C200
C200
8400
ENDCHAR
STARTCHAR 3053
ENCODING 12371
SWIDTH 1008 0
DWIDTH 14 0
BBX 9 8 3 1
BITMAP
7F00
0200
0400
0000
0000
0000
C000
3F80
ENDCHAR
STARTCHAR 3054
ENCODING 12372
SWIDTH 1008 0
DWIDTH 14 0
BBX 12 10 2 -1
BITMAP
0020
0010
0040
3F20
0200
0400
0000
0000
C000
3FC0
ENDCHAR
STARTCHAR 3055
ENCODING 12373
SWIDTH 1008 0
DWIDTH 14 0
BBX 7 11 3 -1
BITMAP
20
1E
F0
08
04
3E
42
80
80
40
38
ENDCHAR
STARTCHAR 3056
ENCODING 12374
SWIDTH 1008 0
DWIDTH 14 0
BBX 12 12 2 -2
BITMAP
0020
2090
1E40
F000
0800
0400
3E00
4200
8000
8000
4000
3800
ENDCHAR
STARTCHAR 3057
ENCODING 12375
SWIDTH 1008 0
DWIDTH 14 0
BBX 7 11 3 -1
BITMAP
80
80
80
80
80
80
80
80
82
44
38
ENDCHAR
STARTCHAR 3058
ENCODING 12376
SWIDTH 1008 0
DWIDTH 14 0
BBX 8 11 3 -1
BITMAP
82
81
84
82
80
80
80
80
82
44
38
ENDCHAR
STARTCHAR 3059
ENCODING 12377
SWIDTH 1008 0
DWIDTH 14 0
BBX 8 11 3 -1
BITMAP
08
08
0F
F8
08
1C
24
1C
04
08
10
ENDCHAR
STARTCHAR 305A
ENCODING 12378
SWIDTH 1008 0
DWIDTH 14 0
BBX 11 12 2 -2
BITMAP
0040
0820
0880
0F40
F800
0800
1C00
2400
1C00
0400
0800
1000
ENDCHAR
STARTCHAR 305B
ENCODING 12379
SWIDTH 1008 0
DWIDTH 14 0
BBX 10 10 2 0
BITMAP
0200
2200
2200
FFC0
2200
2200
2400
2000
1000
0FC0
ENDCHAR
STARTCHAR 305C
ENCODING 12380
SWIDTH 1008 0
DWIDTH 14 0
BBX 12 11 1 -1
BITMAP
0020
0290
2240
2200
FFC0
2200
2200
2400
2000
1000
0FC0
ENDCHAR
STARTCHAR 305D
ENCODING 12381
SWIDTH 1008 0
DWIDTH 14 0
BBX 9 11 2 -1
BITMAP
2100
1100
1200
0400
0F80
F200
0400
0800
1000
1000
0F00
ENDCHAR
STARTCHAR 305E
ENCODING 12382
SWIDTH 1008 0
DWIDTH 14 0
BBX 13 11 1 -1
BITMAP
2110
1148
1220
0400
0F80
F200
0400
0800
1000
1000
0F00
ENDCHAR
STARTCHAR 305F
ENCODING 12383
SWIDTH 1008 0
DWIDTH 14 0
BBX 10 11 2 -1
BITMAP
1000
1000
1C00
F000
13C0
1000
2000
2000
2000
4C00
43C0
ENDCHAR
STARTCHAR 3060
ENCODING 12384
SWIDTH 1008 0
DWIDTH 14 0
BBX 11 11 2 -1
BITMAP
1040
1120
1C80
F000
13C0
1000
2000
2000
2000
4C00
43C0
ENDCHAR
STARTCHAR 3061
ENCODING 12385
SWIDTH 1008 0
DWIDTH 14 0
BBX 10 11 2 -1
BITMAP
1000
1000
1E00
F000
1000
1780
1840
1040
0040
0080
0700
ENDCHAR
STARTCHAR 3062
ENCODING 12386
SWIDTH 1008 0
DWIDTH 14 0
BBX 12 11 1 -1
BITMAP
1000
1020
1E90
F040
1000
1780
1840
1040
0040
0080
0700
ENDCHAR
STARTCHAR 3063
ENCODING 12387
SWIDTH 1008 0
DWIDTH 14 0
BBX 8 6 3 4
BITMAP
1E
E1
01
01
06
18
ENDCHAR
STARTCHAR 3064
ENCODING 12388
SWIDTH 1008 0
DWIDTH 14 0
BBX 10 8 2 2
BITMAP
1F00
E080
0040
0040
0040
0080
0300
0C00
ENDCHAR
STARTCHAR 3065
ENCODING 12389
SWIDTH 1008 0
DWIDTH 14 0
BBX 12 11 2 -1
BITMAP
0020
0090
0040
1F00
E080
0040
0040
0040
0080
0300
0C00
ENDCHAR
STARTCHAR 3066
ENCODING 12390
SWIDTH 1008 0
DWIDTH 14 0
BBX 10 9 2 1
BITMAP
03C0
FC00
0800
1000
1000
1000
1000
0800
0780
ENDCHAR
STARTCHAR 3067
ENCODING 12391
SWIDTH 1008 0
DWIDTH 14 0
BBX 12 9 2 1
BITMAP
03C0
FC00
0820
1090
1040
1000
1000
0800
0780
ENDCHAR
STARTCHAR 3068
ENCODING 12392
SWIDTH 1008 0
DWIDTH 14 0
BBX 8 10 3 0
BITMAP
20
20
17
18
20
40
80
80
40
3E
ENDCHAR
STARTCHAR 3069
ENCODING 12393
SWIDTH 1008 0
DWIDTH 14 0
BBX 12 11 2 -1
BITMAP
0020
2090
2040
1700
1800
2000
4000
8000
8000
4000
3E00
ENDCHAR
STARTCHAR 306A
ENCODING 12394
SWIDTH 1008 0
DWIDTH 14 0
BBX 10 11 2 -1
BITMAP
1000
1000
1800
E180
2040
2100
4100
4780
8940
0940
0600
ENDCHAR
STARTCHAR 306B
ENCODING 12395
SWIDTH 1008 0
DWIDTH 14 0
BBX 10 11 2 -1
BITMAP
4000
4000
4F80
4000
8000
8000
8000
A000
A800
47C0
4000
ENDCHAR
STARTCHAR 306C
ENCODING 12396
SWIDTH 1008 0
DWIDTH 14 0
BBX 11 11 2 -1
BITMAP
0200
0200
4200
5F00
2480
5440
8840
8C40
93C0
64A0
0320
ENDCHAR
STARTCHAR 306D
ENCODING 12397
SWIDTH 1008 0
DWIDTH 14 0
BBX 11 11 2 -1
BITMAP
1000
1000
3C00
D800
1F00
3080
3040
5040
93C0
94A0
1300
ENDCHAR
STARTCHAR 306E
ENCODING 12398
SWIDTH 1008 0
DWIDTH 14 0
BBX 11 9 2 1
BITMAP
0F80
3440
4420
8420
8420
8820
8840
7080
0300
ENDCHAR
STARTCHAR 306F
ENCODING 12399
SWIDTH 1008 0
DWIDTH 14 0
BBX 11 11 2 -1
BITMAP
2100
4100
41E0
8F00
8100
8100
8100
A100
A780
4940
4620
ENDCHAR
STARTCHAR 3070
ENCODING 12400
SWIDTH 1008 0
DWIDTH 14 0
BBX 13 11 1 -1
BITMAP
2100
4110
41C8
8F20
8110
8100
8100
A100
A780
4940
4600
ENDCHAR
STARTCHAR 3071
ENCODING 12401
SWIDTH 1008 0
DWIDTH 14 0
BBX 13 11 1 -1
BITMAP
2100
4110
41E8
8F10
8100
8100
8100
A100
A780
4940
4600
ENDCHAR
STARTCHAR 3072
ENCODING 12402
SWIDTH 1008 0
DWIDTH 14 0
BBX 10 10 2 0
BITMAP
1100
F100
2180
2140
4100
4100
4200
4200
2400
1800
ENDCHAR
STARTCHAR 3073
ENCODING 12403
SWIDTH 1008 0
DWIDTH 14 0
BBX 13 11 1 -1
BITMAP
0010
1108
F120
2190
2140
4100
4100
4200
4200
2400
1800
ENDCHAR
STARTCHAR 3074
ENCODING 12404
SWIDTH 1008 0
DWIDTH 14 0
BBX 12 11 1 -1
BITMAP
0020
1150
F120
2180
2140
4100
4100
4200
4200
2400
1800
ENDCHAR
STARTCHAR 3075
ENCODING 12405
SWIDTH 1008 0
DWIDTH 14 0
BBX 12 11 1 -1
BITMAP
0400
0200
0000
0400
0400
0440
8420
A210
4100
0100
0600
ENDCHAR
STARTCHAR 3076
ENCODING 12406
SWIDTH 1008 0
DWIDTH 14 0
BBX 13 11 1 -1
BITMAP
0410
0248
0020
0400
0400
0440
8420
A210
4100
0100
0600
ENDCHAR
STARTCHAR 3077
ENCODING 12407
SWIDTH 1008 0
DWIDTH 14 0
BBX 12 11 1 -1
BITMAP
0420
0250
0020
0400
0400
0440
8420
A210
4100
0100
0600
ENDCHAR
STARTCHAR 3078
ENCODING 12408
SWIDTH 1008 0
DWIDTH 14 0
BBX 11 4 2 3
BITMAP
0800
3400
C300
00E0
ENDCHAR
STARTCHAR 3079
ENCODING 12409
SWIDTH 1008 0
DWIDTH 14 0
BBX 11 7 2 0
BITMAP
0040
0120
0080
0800
3400
C300
00E0
ENDCHAR
STARTCHAR 307A
ENCODING 12410
SWIDTH 1008 0
DWIDTH 14 0
BBX 11 7 2 0
BITMAP
0080
0140
0080
0800
3400
C300
00E0
ENDCHAR
STARTCHAR 307B
ENCODING 12411
SWIDTH 1008 0
DWIDTH 14 0
BBX 10 11 2 -1
BITMAP
4180
4E00
8200
8380
8E00
8200
8100
A100
A780
4940
4600
ENDCHAR
STARTCHAR 307C
ENCODING 12412
SWIDTH 1008 0
DWIDTH 14 0
BBX 13 11 1 -1
BITMAP
4190
4E08
8220
8390
8E00
8200
8100
A100
A780
4940
4600
ENDCHAR
STARTCHAR 307D
ENCODING 12413
SWIDTH 1008 0
DWIDTH 14 0
BBX 12 11 2 -1
BITMAP
41A0
4E50
8220
8380
8E00
8200
8100
A100
A780
4940
4600
ENDCHAR
STARTCHAR 307E
ENCODING 12414
SWIDTH 1008 0
DWIDTH 14 0
BBX 8 10 3 0
BITMAP
08
0F
78
0F
78
08
78
8C
8A
71
ENDCHAR
STARTCHAR 307F
ENCODING 12415
SWIDTH 1008 0
DWIDTH 14 0
BBX 10 10 2 0
BITMAP
3E00
0400
0400
0880
0880
7F00
9100
9280
A240
4400
ENDCHAR
STARTCHAR 3080
ENCODING 12416
SWIDTH 1008 0
DWIDTH 14 0
BBX 11 11 2 -1
BITMAP
1000
1000
FC80
1040
1000
7000
9000
9020
6020
2020
1FC0
ENDCHAR
STARTCHAR 3081
ENCODING 12417
SWIDTH 1008 0
DWIDTH 14 0
BBX 10 11 2 -1
BITMAP
0200
0200
4200
4F00
3480
6440
5440
8C40
8A40
9080
6100
ENDCHAR
STARTCHAR 3082
ENCODING 12418
SWIDTH 1008 0
DWIDTH 14 0
BBX 10 11 2 -1
BITMAP
0800
0800
7E00
1000
1000
FE00
1000
1040
1040
0840
0780
ENDCHAR
STARTCHAR 3083
ENCODING 12419
SWIDTH 1008 0
DWIDTH 14 0
BBX 10 9 2 1
BITMAP
0800
4400
2780
3840
D040
0980
0800
0400
0400
ENDCHAR
STARTCHAR 3084
ENCODING 12420
SWIDTH 1008 0
DWIDTH 14 0
BBX 11 10 2 0
BITMAP
4800
4400
2780
3840
D020
1020
08C0
0800
0400
0400
ENDCHAR
STARTCHAR 3085
ENCODING 12421
SWIDTH 1008 0
DWIDTH 14 0
BBX 9 10 3 1
BITMAP
0400
4400
4E00
B500
C480
8480
9480
8F00
0800
0800
ENDCHAR
STARTCHAR 3086
ENCODING 12422
SWIDTH 1008 0
DWIDTH 14 0
BBX 10 11 2 0
BITMAP
0200
8200
8F00
9280
A240
4240
5240
4C80
4700
0400
0400
ENDCHAR
STARTCHAR 3087
ENCODING 12423
SWIDTH 1008 0
DWIDTH 14 0
BBX 7 8 4 2
BITMAP
10
10
1E
10
10
78
94
62
ENDCHAR
STARTCHAR 3088
ENCODING 12424
SWIDTH 1008 0
DWIDTH 14 0
BBX 9 11 3 -1
BITMAP
0800
0800
0800
0F00
0800
0800
0800
7C00
8B00
8880
7000
ENDCHAR
STARTCHAR 3089
ENCODING 12425
SWIDTH 1008 0
DWIDTH 14 0
BBX 7 11 4 -1
BITMAP
40
20
00
80
9C
A2
C2
82
02
04
18
ENDCHAR
STARTCHAR 308A
ENCODING 12426
SWIDTH 1008 0
DWIDTH 14 0
BBX 7 11 4 -1
BITMAP
04
82
82
82
A2
C2
C2
82
04
04
08
ENDCHAR
STARTCHAR 308B
ENCODING 12427
SWIDTH 1008 0
DWIDTH 14 0
BBX 8 10 3 0
BITMAP
7C
08
10
3E
41
81
01
3A
44
3A
ENDCHAR
STARTCHAR 308C
ENCODING 12428
SWIDTH 1008 0
DWIDTH 14 0
BBX 12 11 2 -1
BITMAP
1000
1000
1C00
F800
1700
1880
3080
3080
5080
9090
1060
ENDCHAR
STARTCHAR 308D
ENCODING 12429
SWIDTH 1008 0
DWIDTH 14 0
BBX 9 10 3 0
BITMAP
7E00
0400
0800
1E00
2100
4080
8080
0080
0100
0E00
ENDCHAR
STARTCHAR 308E
ENCODING 12430
SWIDTH 1008 0
DWIDTH 14 0
BBX 9 9 3 1
BITMAP
1000
1800
7800
1700
1880
3080
5080
9100
1200
ENDCHAR
STARTCHAR 308F
ENCODING 12431
SWIDTH 1008 0
DWIDTH 14 0
BBX 11 11 2 -1
BITMAP
1000
1000
1C00
F800
1780
1840
3020
3020
5020
9040
1080
ENDCHAR
STARTCHAR 3090
ENCODING 12432
SWIDTH 1008 0
DWIDTH 14 0
BBX 10 11 2 -1
BITMAP
0100
3F00
0200
0400
1F00
2880
4840
9040
9340
A480
4300
ENDCHAR
STARTCHAR 3091
ENCODING 12433
SWIDTH 1008 0
DWIDTH 14 0
BBX 9 11 3 -1
BITMAP
0800
7000
1E00
3100
4900
1500
0E00
1000
2000
5700
8880
ENDCHAR
STARTCHAR 3092
ENCODING 12434
SWIDTH 1008 0
DWIDTH 14 0
BBX 8 11 3 -1
BITMAP
20
2C
F0
20
38
46
4C
94
20
20
1F
ENDCHAR
STARTCHAR 3093
ENCODING 12435
SWIDTH 1008 0
DWIDTH 14 0
BBX 9 11 3 -1
BITMAP
0800
0800
0800
1000
1000
3800
2400
4480
4480
8500
8200
ENDCHAR
STARTCHAR 30A1
ENCODING 12449
SWIDTH 1008 0
DWIDTH 14 0
BBX 8 8 4 2
BITMAP
FF
01
12
14
10
20
20
40
ENDCHAR
STARTCHAR 30A2
ENCODING 12450
SWIDTH 1008 0
DWIDTH 14 0
BBX 10 10 2 0
BITMAP
FFC0
0040
0080
0900
0A00
0800
0800
1000
1000
2000
ENDCHAR
STARTCHAR 30A3
ENCODING 12451
SWIDTH 1008 0
DWIDTH 14 0
BBX 7 9 4 1
BITMAP
02
04
08
30
D0
10
10
10
10
ENDCHAR
STARTCHAR 30A4
ENCODING 12452
SWIDTH 1008 0
DWIDTH 14 0
BBX 9 11 3 -1
BITMAP
0080
0100
0200
0400
1800
E800
0800
0800
0800
0800
0800
ENDCHAR
STARTCHAR 30A5
ENCODING 12453
SWIDTH 1008 0
DWIDTH 14 0
BBX 8 9 3 1
BITMAP
10
10
FF
81
81
02
02
04
08
ENDCHAR
STARTCHAR 30A6
ENCODING 12454
SWIDTH 1008 0
DWIDTH 14 0
BBX 9 11 3 -1
BITMAP
0800
0800
FF80
8080
8080
0080
0100
0100
0200
0400
0800
ENDCHAR
STARTCHAR 30A7
ENCODING 12455
SWIDTH 1008 0
DWIDTH 14 0
BBX 9 6 3 4
BITMAP
7F00
0800
0800
0800
0800
FF80
ENDCHAR
STARTCHAR 30A8
ENCODING 12456
SWIDTH 1008 0
DWIDTH 14 0
BBX 11 7 2 3
BITMAP
7FC0
0400
0400
0400
0400
0400
FFE0
ENDCHAR
STARTCHAR 30A9
ENCODING 12457
SWIDTH 1008 0
DWIDTH 14 0
BBX 7 9 4 1
BITMAP
08
08
7E
18
28
48
88
08
30
ENDCHAR
STARTCHAR 30AA
ENCODING 12458
SWIDTH 1008 0
DWIDTH 14 0
BBX 9 11 3 -1
BITMAP
0400
0400
0400
7F80
0400
0C00
1400
2400
C400
0400
1800
ENDCHAR
STARTCHAR 30AB
ENCODING 12459
SWIDTH 1008 0
DWIDTH 14 0
BBX 9 11 3 -1
BITMAP
0800
0800
0800
FF80
0880
0880
1080
1080
2080
4080
8700
ENDCHAR
STARTCHAR 30AC
ENCODING 12460
SWIDTH 1008 0
DWIDTH 14 0
BBX 11 12 2 -2
BITMAP
0040
0920
0880
0800
FF80
0880
0880
1080
1080
2080
4100
8600
ENDCHAR
STARTCHAR 30AD
ENCODING 12461
SWIDTH 1008 0
DWIDTH 14 0
BBX 9 11 3 -1
BITMAP
1000
1000
1700
7800
0800
0F80
F800
0400
0400
0400
0400
ENDCHAR
STARTCHAR 30AE
ENCODING 12462
SWIDTH 1008 0
DWIDTH 14 0
BBX 12 11 2 -1
BITMAP
1020
1090
1740
7800
0800
0F80
F800
0400
0400
0400
0400
ENDCHAR
STARTCHAR 30AF
ENCODING 12463
SWIDTH 1008 0
DWIDTH 14 0
BBX 8 10 3 0
BITMAP
10
10
1F
21
41
02
04
08
30
C0
ENDCHAR
STARTCHAR 30B0
ENCODING 12464
SWIDTH 1008 0
DWIDTH 14 0
BBX 12 11 2 -1
BITMAP
0020
1090
1040
1F00
2100
4100
0200
0400
0800
3000
C000
ENDCHAR
STARTCHAR 30B1
ENCODING 12465
SWIDTH 1008 0
DWIDTH 14 0
BBX 10 10 2 0
BITMAP
1000
1000
2000
3FC0
4400
8400
0400
0800
0800
1000
ENDCHAR
STARTCHAR 30B2
ENCODING 12466
SWIDTH 1008 0
DWIDTH 14 0
BBX 11 11 2 -1
BITMAP
0040
1120
1080
2000
3FC0
4400
8400
0400
0800
0800
1000
ENDCHAR
STARTCHAR 30B3
ENCODING 12467
SWIDTH 1008 0
DWIDTH 14 0
BBX 8 8 3 2
BITMAP
FF
01
01
01
01
01
FF
01
ENDCHAR
STARTCHAR 30B4
ENCODING 12468
SWIDTH 1008 0
DWIDTH 14 0
BBX 12 11 2 -1
BITMAP
0020
0090
0040
FF00
0100
0100
0100
0100
0100
FF00
0100
ENDCHAR
STARTCHAR 30B5
ENCODING 12469
SWIDTH 1008 0
DWIDTH 14 0
BBX 11 10 2 0
BITMAP
1100
1100
1100
FFE0
1100
1100
1100
0200
0200
0400
ENDCHAR
STARTCHAR 30B6
ENCODING 12470
SWIDTH 1008 0
DWIDTH 14 0
BBX 13 11 1 -1
BITMAP
0010
1148
1120
1100
FFE0
1100
1100
1100
0200
0200
0400
ENDCHAR
STARTCHAR 30B7
ENCODING 12471
SWIDTH 1008 0
DWIDTH 14 0
BBX 9 10 3 0
BITMAP
2000
1000
0000
8000
4080
2100
0200
0400
1800
E000
ENDCHAR
STARTCHAR 30B8
ENCODING 12472
SWIDTH 1008 0
DWIDTH 14 0
BBX 10 11 3 -1
BITMAP
0080
2240
1100
0000
8000
4080
2100
0200
0400
1800
E000
ENDCHAR
STARTCHAR 30B9
ENCODING 12473
SWIDTH 1008 0
DWIDTH 14 0
BBX 10 8 2 1
BITMAP
7F80
0100
0100
0200
0600
0900
3080
C040
ENDCHAR
STARTCHAR 30BA
ENCODING 12474
SWIDTH 1008 0
DWIDTH 14 0
BBX 13 10 1 -1
BITMAP
0010
0048
7F20
0100
0100
0200
0600
0900
3080
C040
ENDCHAR
STARTCHAR 30BB
ENCODING 12475
SWIDTH 1008 0
DWIDTH 14 0
BBX 10 10 2 0
BITMAP
1000
1000
1F80
F080
1100
1200
1000
1000
1000
0FC0
ENDCHAR
STARTCHAR 30BC
ENCODING 12476
SWIDTH 1008 0
DWIDTH 14 0
BBX 13 11 1 -1
BITMAP
0010
1048
1020
1F80
F080
1100
1200
1000
1000
1000
0FC0
ENDCHAR
STARTCHAR 30BD
ENCODING 12477
SWIDTH 1008 0
DWIDTH 14 0
BBX 8 9 3 1
BITMAP
01
81
41
22
22
04
08
10
60
ENDCHAR
STARTCHAR 30BE
ENCODING 12478
SWIDTH 1008 0
DWIDTH 14 0
BBX 12 11 2 -1
BITMAP
0020
0010
0140
8120
4100
2200
2200
0400
0800
1000
6000
ENDCHAR
STARTCHAR 30BF
ENCODING 12479
SWIDTH 1008 0
DWIDTH 14 0
BBX 9 10 2 0
BITMAP
0800
0F80
1080
2080
CD00
0200
0500
0880
3000
C000
ENDCHAR
STARTCHAR 30C0
ENCODING 12480
SWIDTH 1008 0
DWIDTH 14 0
BBX 13 11 1 -1
BITMAP
0010
1048
1F20
2100
4100
9A00
0400
0A00
1100
2000
C000
ENDCHAR
STARTCHAR 30C1
ENCODING 12481
SWIDTH 1008 0
DWIDTH 14 0
BBX 11 11 2 0
BITMAP
0300
3C00
0400
0400
FFE0
0400
0400
0400
0800
0800
1000
ENDCHAR
STARTCHAR 30C2
ENCODING 12482
SWIDTH 1008 0
DWIDTH 14 0
BBX 12 12 2 -1
BITMAP
0020
0690
7840
0800
0800
FF80
0800
0800
0800
1000
1000
2000
ENDCHAR
STARTCHAR 30C3
ENCODING 12483
SWIDTH 1008 0
DWIDTH 14 0
BBX 8 8 3 2
BITMAP
11
89
41
02
02
04
08
10
ENDCHAR
STARTCHAR 30C4
ENCODING 12484
SWIDTH 1008 0
DWIDTH 14 0
BBX 9 9 2 1
BITMAP
1080
8880
4080
0100
0100
0200
0400
0800
3000
ENDCHAR
STARTCHAR 30C5
ENCODING 12485
SWIDTH 1008 0
DWIDTH 14 0
BBX 13 12 1 -2
BITMAP
0010
0048
0020
1080
8880
4080
0100
0100
0200
0400
0800
3000
ENDCHAR
STARTCHAR 30C6
ENCODING 12486
SWIDTH 1008 0
DWIDTH 14 0
BBX 9 10 3 0
BITMAP
3E00
0000
0000
FF80
0800
0800
0800
1000
1000
2000
ENDCHAR
STARTCHAR 30C7
ENCODING 12487
SWIDTH 1008 0
DWIDTH 14 0
BBX 12 11 2 -1
BITMAP
0020
3E10
0040
0020
FF80
0800
0800
0800
1000
1000
2000
ENDCHAR
STARTCHAR 30C8
ENCODING 12488
SWIDTH 1008 0
DWIDTH 14 0
BBX 4 10 6 0
BITMAP
80
80
80
C0
A0
90
80
80
80
80
ENDCHAR
STARTCHAR 30C9
ENCODING 12489
SWIDTH 1008 0
DWIDTH 14 0
BBX 7 11 5 -1
BITMAP
04
92
88
80
C0
A0
90
80
80
80
80
ENDCHAR
STARTCHAR 30CA
ENCODING 12490
SWIDTH 1008 0
DWIDTH 14 0
BBX 9 10 3 0
BITMAP
0800
0800
FF80
0800
0800
0800
0800
1000
1000
2000
ENDCHAR
STARTCHAR 30CB
ENCODING 12491
SWIDTH 1008 0
DWIDTH 14 0
BBX 10 7 2 2
BITMAP
3F00
0000
0000
0000
0000
0000
FFC0
ENDCHAR
STARTCHAR 30CC
ENCODING 12492
SWIDTH 1008 0
DWIDTH 14 0
BBX 8 10 3 0
BITMAP
7F
01
01
12
0A
04
0A
11
20
C0
ENDCHAR
STARTCHAR 30CD
ENCODING 12493
SWIDTH 1008 0
DWIDTH 14 0
BBX 8 11 3 -1
BITMAP
08
08
7F
02
04
08
3A
C9
08
08
08
ENDCHAR
STARTCHAR 30CE
ENCODING 12494
SWIDTH 1008 0
DWIDTH 14 0
BBX 7 9 3 1
BITMAP
02
02
02
04
04
08
10
20
C0
ENDCHAR
STARTCHAR 30CF
ENCODING 12495
SWIDTH 1008 0
DWIDTH 14 0
BBX 11 7 2 2
BITMAP
1100
1080
1080
2040
2040
4020
8020
ENDCHAR
STARTCHAR 30D0
ENCODING 12496
SWIDTH 1008 0
DWIDTH 14 0
BBX 13 10 1 -1
BITMAP
0010
0048
0020
1100
1080
1080
2040
2040
4020
8020
ENDCHAR
STARTCHAR 30D1
ENCODING 12497
SWIDTH 1008 0
DWIDTH 14 0
BBX 12 10 1 -1
BITMAP
0020
0050
0020
1100
1080
1080
2040
2040
4020
8020
ENDCHAR
STARTCHAR 30D2
ENCODING 12498
SWIDTH 1008 0
DWIDTH 14 0
BBX 7 9 4 1
BITMAP
80
80
86
98
E0
80
80
80
7E
ENDCHAR
STARTCHAR 30D3
ENCODING 12499
SWIDTH 1008 0
DWIDTH 14 0
BBX 10 11 3 -1
BITMAP
0080
0240
8100
8000
8600
9800
E000
8000
8000
8000
7E00
ENDCHAR
STARTCHAR 30D4
ENCODING 12500
SWIDTH 1008 0
DWIDTH 14 0
BBX 10 11 3 -1
BITMAP
0080
0140
8080
8000
8600
9800
E000
8000
8000
8000
7E00
ENDCHAR
STARTCHAR 30D5
ENCODING 12501
SWIDTH 1008 0
DWIDTH 14 0
BBX 8 8 3 2
BITMAP
FF
01
01
02
02
04
08
10
ENDCHAR
STARTCHAR 30D6
ENCODING 12502
SWIDTH 1008 0
DWIDTH 14 0
BBX 13 10 1 0
BITMAP
0010
0048
FF20
0100
0100
0200
0200
0400
0800
1000
ENDCHAR
STARTCHAR 30D7
ENCODING 12503
SWIDTH 1008 0
DWIDTH 14 0
BBX 12 10 1 0
BITMAP
0020
0050
FF20
0100
0100
0200
0200
0400
0800
1000
ENDCHAR
STARTCHAR 30D8
ENCODING 12504
SWIDTH 1008 0
DWIDTH 14 0
BBX 12 4 1 3
BITMAP
0C00
3200
C180
0070
ENDCHAR
STARTCHAR 30D9
ENCODING 12505
SWIDTH 1008 0
DWIDTH 14 0
BBX 12 7 1 0
BITMAP
0020
0090
0040
0C00
3200
C180
0070
ENDCHAR
STARTCHAR 30DA
ENCODING 12506
SWIDTH 1008 0
DWIDTH 14 0
BBX 12 7 1 0
BITMAP
0040
00A0
0040
0C00
3200
C180
0070
ENDCHAR
STARTCHAR 30DB
ENCODING 12507
SWIDTH 1008 0
DWIDTH 14 0
BBX 10 11 2 -1
BITMAP
0400
0400
0400
7FC0
0400
0400
2480
4440
8440
0400
1800
ENDCHAR
STARTCHAR 30DC
ENCODING 12508
SWIDTH 1008 0
DWIDTH 14 0
BBX 13 11 1 -1
BITMAP
0410
0448
0420
7FC0
0400
0400
2480
4440
8440
0400
1800
ENDCHAR
STARTCHAR 30DD
ENCODING 12509
SWIDTH 1008 0
DWIDTH 14 0
BBX 13 11 1 -1
BITMAP
0410
0428
0410
7FC0
0400
0400
2480
4440
8440
0400
1800
ENDCHAR
STARTCHAR 30DE
ENCODING 12510
SWIDTH 1008 0
DWIDTH 14 0
BBX 10 7 2 2
BITMAP
FFC0
0080
0100
0200
1400
0800
0400
ENDCHAR
STARTCHAR 30DF
ENCODING 12511
SWIDTH 1008 0
DWIDTH 14 0
BBX 7 9 3 1
BITMAP
38
06
00
70
0C
00
E0
18
06
ENDCHAR
STARTCHAR 30E0
ENCODING 12512
SWIDTH 1008 0
DWIDTH 14 0
BBX 11 9 2 0
BITMAP
0400
0400
0800
0800
1100
1080
2040
7FE0
8020
ENDCHAR
STARTCHAR 30E1
ENCODING 12513
SWIDTH 1008 0
DWIDTH 14 0
BBX 9 10 2 0
BITMAP
0080
0080
0080
0900
0500
0200
0500
0900
3000
C000
ENDCHAR
STARTCHAR 30E2
ENCODING 12514
SWIDTH 1008 0
DWIDTH 14 0
BBX 11 9 1 1
BITMAP
3F80
0400
0400
0400
FFE0
0400
0400
0400
03E0
ENDCHAR
STARTCHAR 30E3
ENCODING 12515
SWIDTH 1008 0
DWIDTH 14 0
BBX 8 9 3 1
BITMAP
20
2F
F1
22
24
10
10
10
10
ENDCHAR
STARTCHAR 30E4
ENCODING 12516
SWIDTH 1008 0
DWIDTH 14 0
BBX 10 11 2 0
BITMAP
1000
1000
17C0
F840
0880
0900
0800
0400
0400
0400
0400
ENDCHAR
STARTCHAR 30E5
ENCODING 12517
SWIDTH 1008 0
DWIDTH 14 0
BBX 10 6 2 3
BITMAP
3F00
0100
0100
0100
0100
FFC0
ENDCHAR
STARTCHAR 30E6
ENCODING 12518
SWIDTH 1008 0
DWIDTH 14 0
BBX 12 8 1 1
BITMAP
3F80
0080
0080
0080
0080
0080
0080
FFF0
ENDCHAR
STARTCHAR 30E7
ENCODING 12519
SWIDTH 1008 0
DWIDTH 14 0
BBX 7 7 4 3
BITMAP
FE
02
FE
02
02
FE
02
ENDCHAR
STARTCHAR 30E8
ENCODING 12520
SWIDTH 1008 0
DWIDTH 14 0
BBX 8 9 3 1
BITMAP
FF
01
01
FF
01
01
01
FF
01
ENDCHAR
STARTCHAR 30E9
ENCODING 12521
SWIDTH 1008 0
DWIDTH 14 0
BBX 9 10 3 0
BITMAP
3E00
0000
0000
FF80
0080
0080
0100
0200
0C00
3000
ENDCHAR
STARTCHAR 30EA
ENCODING 12522
SWIDTH 1008 0
DWIDTH 14 0
BBX 6 10 5 0
BITMAP
84
84
84
84
84
84
08
08
10
20
ENDCHAR
STARTCHAR 30EB
ENCODING 12523
SWIDTH 1008 0
DWIDTH 14 0
BBX 11 9 2 0
BITMAP
1200
1200
1200
1200
1220
2220
2240
4280
8300
ENDCHAR
STARTCHAR 30EC
ENCODING 12524
SWIDTH 1008 0
DWIDTH 14 0
BBX 8 10 4 0
BITMAP
80
80
80
80
80
81
82
84
98
E0
ENDCHAR
STARTCHAR 30ED
ENCODING 12525
SWIDTH 1008 0
DWIDTH 14 0
BBX 8 8 3 1
BITMAP
FF
81
81
81
81
81
FF
81
ENDCHAR
STARTCHAR 30EE
ENCODING 12526
SWIDTH 1008 0
DWIDTH 14 0
BBX 7 7 4 3
BITMAP
FE
82
82
04
04
08
10
ENDCHAR
STARTCHAR 30EF
ENCODING 12527
SWIDTH 1008 0
DWIDTH 14 0
BBX 9 10 3 0
BITMAP
FF80
8080
8080
8080
8080
0100
0100
0200
0400
0800
ENDCHAR
STARTCHAR 30F0
ENCODING 12528
SWIDTH 1008 0
DWIDTH 14 0
BBX 11 11 2 -1
BITMAP
0200
0200
FFC0
2200
2200
2200
FFE0
0200
0200
0200
0200
ENDCHAR
STARTCHAR 30F1
ENCODING 12529
SWIDTH 1008 0
DWIDTH 14 0
BBX 11 8 2 1
BITMAP
7FC0
0040
0080
0500
0400
0400
0400
FFE0
ENDCHAR
STARTCHAR 30F2
ENCODING 12530
SWIDTH 1008 0
DWIDTH 14 0
BBX 8 10 4 0
BITMAP
FF
01
01
01
FE
02
04
08
10
60
ENDCHAR
STARTCHAR 30F3
ENCODING 12531
SWIDTH 1008 0
DWIDTH 14 0
BBX 10 8 2 1
BITMAP
4000
2040
1080
0100
0200
0400
1800
E000
ENDCHAR
STARTCHAR 30F4
ENCODING 12532
SWIDTH 1008 0
DWIDTH 14 0
BBX 12 12 2 -1
BITMAP
0020
0890
0840
FF80
8080
8080
8080
0100
0100
0200
0400
0800
ENDCHAR
STARTCHAR 30F5
ENCODING 12533
SWIDTH 1008 0
DWIDTH 14 0
BBX 7 8 4 2
BITMAP
20
20
FE
22
22
42
42
8C
ENDCHAR
STARTCHAR 30F6
ENCODING 12534
SWIDTH 1008 0
DWIDTH 14 0
BBX 8 8 3 2
BITMAP
20
20
3F
48
88
08
08
10
ENDCHAR
STARTCHAR 3131
ENCODING 12593
SWIDTH 1008 0
DWIDTH 14 0
BBX 8 7 3 2
BITMAP
FE
01
01
01
01
01
01
ENDCHAR
STARTCHAR 3132
ENCODING 12594
SWIDTH 1008 0
DWIDTH 14 0
BBX 11 7 1 2
BITMAP
F3C0
0820
0820
0820
0820
0820
0820
ENDCHAR
STARTCHAR 3133
ENCODING 12595
SWIDTH 1008 0
DWIDTH 14 0
BBX 11 7 2 2
BITMAP
F080
0880
0880
0880
0940
0940
0A20
ENDCHAR
STARTCHAR 3134
ENCODING 12596
SWIDTH 1008 0
DWIDTH 14 0
BBX 8 7 3 2
BITMAP
80
80
80
80
80
80
7F
ENDCHAR
STARTCHAR 3135
ENCODING 12597
SWIDTH 1008 0
DWIDTH 14 0
BBX 11 7 2 2
BITMAP
87C0
8100
8100
8100
8280
8440
7820
ENDCHAR
STARTCHAR 3136
ENCODING 12598
SWIDTH 1008 0
DWIDTH 14 0
BBX 11 7 2 2
BITMAP
8380
8000
8FE0
8380
8440
8440
7B80
ENDCHAR
STARTCHAR 3137
ENCODING 12599
SWIDTH 1008 0
DWIDTH 14 0
BBX 8 7 3 2
BITMAP
7F
80
80
80
80
80
7F
ENDCHAR
STARTCHAR 3138
ENCODING 12600
SWIDTH 1008 0
DWIDTH 14 0
BBX 10 7 2 2
BITMAP
73C0
8400
8400
8400
8400
8400
73C0
ENDCHAR
STARTCHAR 3139
ENCODING 12601
SWIDTH 1008 0
DWIDTH 14 0
BBX 8 7 3 2
BITMAP
FE
01
01
7E
80
80
7F
ENDCHAR
STARTCHAR 313A
ENCODING 12602
SWIDTH 1008 0
DWIDTH 14 0
BBX 10 7 2 2
BITMAP
F380
0840
0840
7040
8040
8040
7C40
ENDCHAR
STARTCHAR 313B
ENCODING 12603
SWIDTH 1008 0
DWIDTH 14 0
BBX 10 7 2 2
BITMAP
F3C0
0A40
0A40
7240
8240
8240
7BC0
ENDCHAR
STARTCHAR 313C
ENCODING 12604
SWIDTH 1008 0
DWIDTH 14 0
BBX 10 7 2 2
BITMAP
F240
0A40
0BC0
7240
8240
8240
7980
ENDCHAR
STARTCHAR 313D
ENCODING 12605
SWIDTH 1008 0
DWIDTH 14 0
BBX 10 7 2 2
BITMAP
F100
0900
0900
7100
8280
8280
7C40
ENDCHAR
STARTCHAR 313E
ENCODING 12606
SWIDTH 1008 0
DWIDTH 14 0
BBX 10 7 2 2
BITMAP
F1C0
0A00
0A00
73C0
8200
8200
79C0
ENDCHAR
STARTCHAR 313F
ENCODING 12607
SWIDTH 1008 0
DWIDTH 14 0
BBX 11 7 2 2
BITMAP
F3E0
0800
0940
7140
8140
8140
7BE0
ENDCHAR
STARTCHAR 3140
ENCODING 12608
SWIDTH 1008 0
DWIDTH 14 0
BBX 12 7 1 2
BITMAP
F1C0
0800
0FF0
71C0
8220
8220
79C0
ENDCHAR
STARTCHAR 3141
ENCODING 12609
SWIDTH 1008 0
DWIDTH 14 0
BBX 7 7 4 2
BITMAP
FE
82
82
82
82
82
FE
ENDCHAR
STARTCHAR 3142
ENCODING 12610
SWIDTH 1008 0
DWIDTH 14 0
BBX 7 7 4 2
BITMAP
82
82
FE
82
82
82
7C
ENDCHAR
STARTCHAR 3143
ENCODING 12611
SWIDTH 1008 0
DWIDTH 14 0
BBX 9 7 3 2
BITMAP
9480
9480
F780
9480
9480
9480
6300
ENDCHAR
STARTCHAR 3144
ENCODING 12612
SWIDTH 1008 0
DWIDTH 14 0
BBX 10 7 3 2
BITMAP
9100
9100
F100
9100
9280
9280
6440
ENDCHAR
STARTCHAR 3145
ENCODING 12613
SWIDTH 1008 0
DWIDTH 14 0
BBX 9 7 3 2
BITMAP
0800
0800
0800
0800
1400
2200
C180
ENDCHAR
STARTCHAR 3146
ENCODING 12614
SWIDTH 1008 0
DWIDTH 14 0
BBX 10 7 2 2
BITMAP
2100
2100
2100
2100
5280
5280
8C40
ENDCHAR
STARTCHAR 3147
ENCODING 12615
SWIDTH 1008 0
DWIDTH 14 0
BBX 8 7 3 2
BITMAP
3C
42
81
81
81
42
3C
ENDCHAR
STARTCHAR 3148
ENCODING 12616
SWIDTH 1008 0
DWIDTH 14 0
BBX 9 7 3 2
BITMAP
7F00
0800
0800
0800
1400
2200
C180
ENDCHAR
STARTCHAR 3149
ENCODING 12617
SWIDTH 1008 0
DWIDTH 14 0
BBX 10 7 2 2
BITMAP
FFC0
2100
2100
2100
5280
5280
8C40
ENDCHAR
STARTCHAR 314A
ENCODING 12618
SWIDTH 1008 0
DWIDTH 14 0
BBX 9 8 3 1
BITMAP
1C00
0000
7F00
0800
0800
1400
2200
C180
ENDCHAR
STARTCHAR 314B
ENCODING 12619
SWIDTH 1008 0
DWIDTH 14 0
BBX 8 7 3 2
BITMAP
FE
01
01
FF
01
01
01
ENDCHAR
STARTCHAR 314C
ENCODING 12620
SWIDTH 1008 0
DWIDTH 14 0
BBX 8 7 3 2
BITMAP
7F
80
80
FF
80
80
7F
ENDCHAR
STARTCHAR 314D
ENCODING 12621
SWIDTH 1008 0
DWIDTH 14 0
BBX 9 7 3 2
BITMAP
FF80
0000
2200
2200
2200
2200
FF80
ENDCHAR
STARTCHAR 314E
ENCODING 12622
SWIDTH 1008 0
DWIDTH 14 0
BBX 10 8 2 1
BITMAP
1E00
0000
FFC0
0000
1E00
2100
2100
1E00
ENDCHAR
STARTCHAR 314F
ENCODING 12623
SWIDTH 1008 0
DWIDTH 14 0
BBX 4 12 6 -1
BITMAP
80
80
80
80
80
F0
80
80
80
80
80
80
ENDCHAR
STARTCHAR 3150
ENCODING 12624
SWIDTH 1008 0
DWIDTH 14 0
BBX 5 12 5 -1
BITMAP
08
88
88
88
88
F8
88
88
88
88
88
08
ENDCHAR
STARTCHAR 3151
ENCODING 12625
SWIDTH 1008 0
DWIDTH 14 0
BBX 4 12 6 -1
BITMAP
80
80
80
F0
80
80
80
F0
80
80
80
80
ENDCHAR
STARTCHAR 3152
ENCODING 12626
SWIDTH 1008 0
DWIDTH 14 0
BBX 5 12 5 -1
BITMAP
08
88
88
F8
88
88
F8
88
88
88
88
08
ENDCHAR
STARTCHAR 3153
ENCODING 12627
SWIDTH 1008 0
DWIDTH 14 0
BBX 4 12 4 -1
BITMAP
10
10
10
10
10
F0
10
10
10
10
10
10
ENDCHAR
STARTCHAR 3154
ENCODING 12628
SWIDTH 1008 0
DWIDTH 14 0
BBX 7 12 3 -1
BITMAP
02
12
12
12
12
F2
12
12
12
12
12
02
ENDCHAR
STARTCHAR 3155
ENCODING 12629
SWIDTH 1008 0
DWIDTH 14 0
BBX 4 12 4 -1
BITMAP
10
10
10
F0
10
10
F0
10
10
10
10
10
ENDCHAR
STARTCHAR 3156
ENCODING 12630
SWIDTH 1008 0
DWIDTH 14 0
BBX 7 12 3 -1
BITMAP
02
12
12
F2
12
12
F2
12
12
12
12
02
ENDCHAR
STARTCHAR 3157
ENCODING 12631
SWIDTH 1008 0
DWIDTH 14 0
BBX 12 5 1 3
BITMAP
0400
0400
0400
0400
FFF0
ENDCHAR
STARTCHAR 3158
ENCODING 12632
SWIDTH 1008 0
DWIDTH 14 0
BBX 13 12 1 -1
BITMAP
0040
0040
0040
1040
1040
1078
1040
1040
11C0
FE40
0040
0040
ENDCHAR
STARTCHAR 3159
ENCODING 12633
SWIDTH 1008 0
DWIDTH 14 0
BBX 12 12 1 -1
BITMAP
0010
0090
0090
0090
1090
10F0
1090
1090
1390
FC90
0090
0010
ENDCHAR
STARTCHAR 315A
ENCODING 12634
SWIDTH 1008 0
DWIDTH 14 0
BBX 10 12 1 -1
BITMAP
0040
0040
0040
1040
1040
1040
1040
1040
11C0
FE40
0040
0040
ENDCHAR
STARTCHAR 315B
ENCODING 12635
SWIDTH 1008 0
DWIDTH 14 0
BBX 12 5 1 3
BITMAP
1080
1080
1080
1080
FFF0
ENDCHAR
STARTCHAR 315C
ENCODING 12636
SWIDTH 1008 0
DWIDTH 14 0
BBX 12 7 1 4
BITMAP
FFF0
0400
0400
0400
0400
0400
0400
ENDCHAR
STARTCHAR 315D
ENCODING 12637
SWIDTH 1008 0
DWIDTH 14 0
BBX 10 12 1 -1
BITMAP
0040
0040
0040
0040
0040
FF40
1040
13C0
1040
1040
2040
0040
ENDCHAR
STARTCHAR 315E
ENCODING 12638
SWIDTH 1008 0
DWIDTH 14 0
BBX 12 12 1 -1
BITMAP
0010
0090
0090
0090
0090
FE90
1090
1790
1090
1090
2090
0010
ENDCHAR
STARTCHAR 315F
ENCODING 12639
SWIDTH 1008 0
DWIDTH 14 0
BBX 10 12 1 -1
BITMAP
0040
0040
0040
0040
0040
FFC0
0840
0840
0840
0840
1040
0040
ENDCHAR
STARTCHAR 3160
ENCODING 12640
SWIDTH 1008 0
DWIDTH 14 0
BBX 12 7 1 4
BITMAP
FFF0
1080
1080
1080
1080
1080
1080
ENDCHAR
STARTCHAR 3161
ENCODING 12641
SWIDTH 1008 0
DWIDTH 14 0
BBX 12 1 1 5
BITMAP
FFF0
ENDCHAR
STARTCHAR 3162
ENCODING 12642
SWIDTH 1008 0
DWIDTH 14 0
BBX 10 12 1 -1
BITMAP
0040
0040
0040
0040
0040
0040
0040
FF40
0040
0040
0040
0040
ENDCHAR
STARTCHAR 3163
ENCODING 12643
SWIDTH 1008 0
DWIDTH 14 0
BBX 1 12 7 -1
BITMAP
80
80
80
80
80
80
80
80
80
80
80
80
ENDCHAR
STARTCHAR 3164
ENCODING 12644
SWIDTH 1008 0
DWIDTH 14 0
BBX 0 0 0 -2
BITMAP
ENDCHAR
STARTCHAR 3165
ENCODING 12645
SWIDTH 1008 0
DWIDTH 14 0
BBX 10 7 2 2
BITMAP
8400
8400
8400
8400
8400
8400
73C0
ENDCHAR
STARTCHAR 3166
ENCODING 12646
SWIDTH 1008 0
DWIDTH 14 0
BBX 10 7 2 2
BITMAP
83C0
8400
8400
8400
8400
8400
73C0
ENDCHAR
STARTCHAR 3167
ENCODING 12647
SWIDTH 1008 0
DWIDTH 14 0
BBX 10 7 2 2
BITMAP
8100
8100
8100
8100
8280
8280
7440
ENDCHAR
STARTCHAR 3168
ENCODING 12648
SWIDTH 1008 0
DWIDTH 14 0
BBX 10 7 2 2
BITMAP
8100
8100
8280
8280
8440
8440
77C0
ENDCHAR
STARTCHAR 3169
ENCODING 12649
SWIDTH 1008 0
DWIDTH 14 0
BBX 13 7 1 2
BITMAP
E620
1120
1120
6120
8150
8150
7988
ENDCHAR
STARTCHAR 316A
ENCODING 12650
SWIDTH 1008 0
DWIDTH 14 0
BBX 11 7 2 2
BITMAP
F1E0
0A00
0A00
7200
8200
8200
79E0
ENDCHAR
STARTCHAR 316B
ENCODING 12651
SWIDTH 1008 0
DWIDTH 14 0
BBX 13 7 1 2
BITMAP
E520
1520
1520
6720
8550
8550
7288
ENDCHAR
STARTCHAR 316C
ENCODING 12652
SWIDTH 1008 0
DWIDTH 14 0
BBX 11 7 2 2
BITMAP
F080
0880
0940
7140
8220
8220
7BE0
ENDCHAR
STARTCHAR 316D
ENCODING 12653
SWIDTH 1008 0
DWIDTH 14 0
BBX 11 7 2 2
BITMAP
F3E0
0800
0800
71C0
8220
8220
79C0
ENDCHAR
STARTCHAR 316E
ENCODING 12654
SWIDTH 1008 0
DWIDTH 14 0
BBX 11 7 2 2
BITMAP
FA20
8A20
8A20
8BE0
8A20
8A20
F9C0
ENDCHAR
STARTCHAR 316F
ENCODING 12655
SWIDTH 1008 0
DWIDTH 14 0
BBX 11 7 2 2
BITMAP
F880
8880
8880
8880
8940
8940
FA20
ENDCHAR
STARTCHAR 3170
ENCODING 12656
SWIDTH 1008 0
DWIDTH 14 0
BBX 11 7 2 2
BITMAP
F880
8880
8940
8940
8A20
8A20
FBE0
ENDCHAR
STARTCHAR 3171
ENCODING 12657
SWIDTH 1008 0
DWIDTH 14 0
BBX 7 10 4 0
BITMAP
FE
82
82
FE
00
10
7C
82
82
7C
ENDCHAR
STARTCHAR 3172
ENCODING 12658
SWIDTH 1008 0
DWIDTH 14 0
BBX 11 7 2 2
BITMAP
8BC0
8820
F820
8820
8820
8820
7020
ENDCHAR
STARTCHAR 3173
ENCODING 12659
SWIDTH 1008 0
DWIDTH 14 0
BBX 11 7 2 2
BITMAP
89E0
8A00
FA00
8A00
8A00
8A00
71E0
ENDCHAR
STARTCHAR 3174
ENCODING 12660
SWIDTH 1008 0
DWIDTH 14 0
BBX 12 7 1 2
BITMAP
92E0
9210
F210
9210
9510
9510
6890
ENDCHAR
STARTCHAR 3175
ENCODING 12661
SWIDTH 1008 0
DWIDTH 14 0
BBX 13 7 1 2
BITMAP
9238
9240
F240
9240
9540
9540
68B8
ENDCHAR
STARTCHAR 3176
ENCODING 12662
SWIDTH 1008 0
DWIDTH 14 0
BBX 11 7 2 2
BITMAP
8BE0
8880
F880
8880
8940
8940
7220
ENDCHAR
STARTCHAR 3177
ENCODING 12663
SWIDTH 1008 0
DWIDTH 14 0
BBX 10 7 2 2
BITMAP
89C0
8A00
FA00
8BC0
8A00
8A00
71C0
ENDCHAR
STARTCHAR 3178
ENCODING 12664
SWIDTH 1008 0
DWIDTH 14 0
BBX 7 10 4 0
BITMAP
82
FE
82
7C
00
10
7C
82
82
7C
ENDCHAR
STARTCHAR 3179
ENCODING 12665
SWIDTH 1008 0
DWIDTH 14 0
BBX 9 10 3 0
BITMAP
9480
9480
F780
9480
6300
0800
3E00
4100
4100
3E00
ENDCHAR
STARTCHAR 317A
ENCODING 12666
SWIDTH 1008 0
DWIDTH 14 0
BBX 10 7 2 2
BITMAP
2780
2040
2040
2040
5040
5040
8840
ENDCHAR
STARTCHAR 317B
ENCODING 12667
SWIDTH 1008 0
DWIDTH 14 0
BBX 11 7 2 2
BITMAP
2200
2200
2200
2200
5200
5200
89E0
ENDCHAR
STARTCHAR 317C
ENCODING 12668
SWIDTH 1008 0
DWIDTH 14 0
BBX 11 7 2 2
BITMAP
21E0
2200
2200
2200
5200
5200
89E0
ENDCHAR
STARTCHAR 317D
ENCODING 12669
SWIDTH 1008 0
DWIDTH 14 0
BBX 11 7 2 2
BITMAP
2220
2220
23E0
2220
5220
5220
89C0
ENDCHAR
STARTCHAR 317E
ENCODING 12670
SWIDTH 1008 0
DWIDTH 14 0
BBX 11 7 2 2
BITMAP
23E0
2080
2080
2080
5140
5140
8A20
ENDCHAR
STARTCHAR 317F
ENCODING 12671
SWIDTH 1008 0
DWIDTH 14 0
BBX 7 7 4 2
BITMAP
10
28
28
44
44
82
FE
ENDCHAR
STARTCHAR 3180
ENCODING 12672
SWIDTH 1008 0
DWIDTH 14 0
BBX 9 7 3 2
BITMAP
4200
4200
6300
9480
9480
9480
6300
ENDCHAR
STARTCHAR 3181
ENCODING 12673
SWIDTH 1008 0
DWIDTH 14 0
BBX 7 7 4 2
BITMAP
10
10
7C
82
82
82
7C
ENDCHAR
STARTCHAR 3182
ENCODING 12674
SWIDTH 1008 0
DWIDTH 14 0
BBX 10 7 2 2
BITMAP
2100
2100
7100
8900
8A80
8A80
7440
ENDCHAR
STARTCHAR 3183
ENCODING 12675
SWIDTH 1008 0
DWIDTH 14 0
BBX 10 7 2 2
BITMAP
4100
4100
6280
9280
9440
9440
67C0
ENDCHAR
STARTCHAR 3184
ENCODING 12676
SWIDTH 1008 0
DWIDTH 14 0
BBX 7 10 4 0
BITMAP
FE
44
44
FE
00
10
38
44
44
38
ENDCHAR
STARTCHAR 3185
ENCODING 12677
SWIDTH 1008 0
DWIDTH 14 0
BBX 12 8 1 1
BITMAP
30C0
0000
FFF0
0000
30C0
4920
4920
30C0
ENDCHAR
STARTCHAR 3186
ENCODING 12678
SWIDTH 1008 0
DWIDTH 14 0
BBX 9 8 3 1
BITMAP
FF80
0000
0000
1C00
2200
2200
2200
1C00
ENDCHAR
STARTCHAR 3187
ENCODING 12679
SWIDTH 1008 0
DWIDTH 14 0
BBX 13 12 1 -1
BITMAP
0040
0040
0040
2478
2440
2440
2440
2478
24C0
FF40
0040
0040
ENDCHAR
STARTCHAR 3188
ENCODING 12680
SWIDTH 1008 0
DWIDTH 14 0
BBX 12 12 1 -1
BITMAP
0010
0090
0090
00F0
2490
2490
24F0
2490
2590
FE90
0090
0010
ENDCHAR
STARTCHAR 3189
ENCODING 12681
SWIDTH 1008 0
DWIDTH 14 0
BBX 10 12 1 -1
BITMAP
0040
0040
0040
2440
2440
2440
2440
2440
25C0
FE40
0040
0040
ENDCHAR
STARTCHAR 318A
ENCODING 12682
SWIDTH 1008 0
DWIDTH 14 0
BBX 11 12 1 -1
BITMAP
0020
0020
0020
0020
0020
FFA0
2420
25E0
2420
25E0
2420
2420
ENDCHAR
STARTCHAR 318B
ENCODING 12683
SWIDTH 1008 0
DWIDTH 14 0
BBX 12 12 1 -1
BITMAP
0010
0090
0090
0090
0090
FE90
2890
2B90
2890
2B90
2890
0010
ENDCHAR
STARTCHAR 318C
ENCODING 12684
SWIDTH 1008 0
DWIDTH 14 0
BBX 11 12 1 -1
BITMAP
0020
0020
0020
0020
0020
FFE0
1220
1220
1220
1220
1220
0020
ENDCHAR
STARTCHAR 318D
ENCODING 12685
SWIDTH 1008 0
DWIDTH 14 0
BBX 2 2 6 4
BITMAP
C0
C0
ENDCHAR
STARTCHAR 318E
ENCODING 12686
SWIDTH 1008 0
DWIDTH 14 0
BBX 7 12 5 -1
BITMAP
02
02
02
02
02
C2
C2
02
02
02
02
02
ENDCHAR
STARTCHAR 3200
ENCODING 12800
SWIDTH 1008 0
DWIDTH 14 0
BBX 13 11 1 -1
BITMAP
1040
2020
4010
4F10
8088
8088
8088
4090
4010
2020
1040
ENDCHAR
STARTCHAR 3201
ENCODING 12801
SWIDTH 1008 0
DWIDTH 14 0
BBX 13 11 1 -1
BITMAP
1040
2020
4010
4810
8808
8808
8808
4790
4010
2020
1040
ENDCHAR
STARTCHAR 3202
ENCODING 12802
SWIDTH 1008 0
DWIDTH 14 0
BBX 13 11 1 -1
BITMAP
1040
2020
4010
4790
8808
8808
8808
4790
4010
2020
1040
ENDCHAR
STARTCHAR 3203
ENCODING 12803
SWIDTH 1008 0
DWIDTH 14 0
BBX 13 11 1 -1
BITMAP
1040
2020
4010
4F10
8088
8708
8808
4790
4010
2020
1040
ENDCHAR
STARTCHAR 3204
ENCODING 12804
SWIDTH 1008 0
DWIDTH 14 0
BBX 13 11 1 -1
BITMAP
1040
2020
4010
4F90
8888
8888
8888
4F90
4010
2020
1040
ENDCHAR
STARTCHAR 3205
ENCODING 12805
SWIDTH 1008 0
DWIDTH 14 0
BBX 13 11 1 -1
BITMAP
1040
2020
4010
4890
8F88
8888
8888
4710
4010
2020
1040
ENDCHAR
STARTCHAR 3206
ENCODING 12806
SWIDTH 1008 0
DWIDTH 14 0
BBX 13 11 1 -1
BITMAP
1040
2020
4010
4210
8208
8508
8888
5050
4010
2020
1040
ENDCHAR
STARTCHAR 3207
ENCODING 12807
SWIDTH 1008 0
DWIDTH 14 0
BBX 13 11 1 -1
BITMAP
1040
2020
4010
4710
8888
8888
8888
4710
4010
2020
1040
ENDCHAR
STARTCHAR 3208
ENCODING 12808
SWIDTH 1008 0
DWIDTH 14 0
BBX 13 11 1 -1
BITMAP
1040
2020
4010
4F90
8208
8208
8508
58D0
4010
2020
1040
ENDCHAR
STARTCHAR 3209
ENCODING 12809
SWIDTH 1008 0
DWIDTH 14 0
BBX 13 11 1 -1
BITMAP
1040
2020
4710
4010
8F88
8208
8508
58D0
4010
2020
1040
ENDCHAR
STARTCHAR 320A
ENCODING 12810
SWIDTH 1008 0
DWIDTH 14 0
BBX 13 11 1 -1
BITMAP
1040
2020
4010
4F10
8088
8F88
8088
4090
4010
2020
1040
ENDCHAR
STARTCHAR 320B
ENCODING 12811
SWIDTH 1008 0
DWIDTH 14 0
BBX 13 11 1 -1
BITMAP
1040
2020
4010
4790
8808
8F88
8808
4790
4010
2020
1040
ENDCHAR
STARTCHAR 320C
ENCODING 12812
SWIDTH 1008 0
DWIDTH 14 0
BBX 13 11 1 -1
BITMAP
1040
2020
4010
4F90
8508
8508
8508
4F90
4010
2020
1040
ENDCHAR
STARTCHAR 320D
ENCODING 12813
SWIDTH 1008 0
DWIDTH 14 0
BBX 13 11 1 -1
BITMAP
1040
2020
4710
4010
9FC8
8008
8708
4890
4710
2020
1040
ENDCHAR
STARTCHAR 320E
ENCODING 12814
SWIDTH 1008 0
DWIDTH 14 0
BBX 13 11 1 -1
BITMAP
1040
2020
5E90
4290
8288
82E8
8488
5890
4090
2020
1040
ENDCHAR
STARTCHAR 320F
ENCODING 12815
SWIDTH 1008 0
DWIDTH 14 0
BBX 13 11 1 -1
BITMAP
1040
2020
5090
5090
9088
90E8
9088
4E90
4090
2020
1040
ENDCHAR
STARTCHAR 3210
ENCODING 12816
SWIDTH 1008 0
DWIDTH 14 0
BBX 13 11 1 -1
BITMAP
1040
2020
4E90
5090
9088
90E8
9088
4E90
4090
2020
1040
ENDCHAR
STARTCHAR 3211
ENCODING 12817
SWIDTH 1008 0
DWIDTH 14 0
BBX 13 11 1 -1
BITMAP
1040
2020
5C90
4290
8C88
90E8
9088
4E90
4090
2020
1040
ENDCHAR
STARTCHAR 3212
ENCODING 12818
SWIDTH 1008 0
DWIDTH 14 0
BBX 13 11 1 -1
BITMAP
1040
2020
5E90
5290
9288
92E8
9288
5E90
4090
2020
1040
ENDCHAR
STARTCHAR 3213
ENCODING 12819
SWIDTH 1008 0
DWIDTH 14 0
BBX 13 11 1 -1
BITMAP
1040
2020
5290
5290
9E88
92E8
9288
4C90
4090
2020
1040
ENDCHAR
STARTCHAR 3214
ENCODING 12820
SWIDTH 1008 0
DWIDTH 14 0
BBX 13 11 1 -1
BITMAP
1040
2020
4490
4490
8488
8AE8
8A88
5290
4090
2020
1040
ENDCHAR
STARTCHAR 3215
ENCODING 12821
SWIDTH 1008 0
DWIDTH 14 0
BBX 13 11 1 -1
BITMAP
1040
2020
4C90
5290
9288
92E8
9288
4C90
4090
2020
1040
ENDCHAR
STARTCHAR 3216
ENCODING 12822
SWIDTH 1008 0
DWIDTH 14 0
BBX 13 11 1 -1
BITMAP
1040
2020
5E90
4490
8488
8AE8
8A88
5290
4090
2020
1040
ENDCHAR
STARTCHAR 3217
ENCODING 12823
SWIDTH 1008 0
DWIDTH 14 0
BBX 13 11 1 -1
BITMAP
1040
2020
4C90
4090
9E88
84E8
8A88
5290
4090
2020
1040
ENDCHAR
STARTCHAR 3218
ENCODING 12824
SWIDTH 1008 0
DWIDTH 14 0
BBX 13 11 1 -1
BITMAP
1040
2020
5E90
4290
9E88
82E8
8488
5890
4090
2020
1040
ENDCHAR
STARTCHAR 3219
ENCODING 12825
SWIDTH 1008 0
DWIDTH 14 0
BBX 13 11 1 -1
BITMAP
1040
2020
4E90
5090
9E88
90E8
9088
4E90
4090
2020
1040
ENDCHAR
STARTCHAR 321A
ENCODING 12826
SWIDTH 1008 0
DWIDTH 14 0
BBX 13 11 1 -1
BITMAP
1040
2020
7E90
4090
9488
94E8
9488
7E90
4090
2020
1040
ENDCHAR
STARTCHAR 321B
ENCODING 12827
SWIDTH 1008 0
DWIDTH 14 0
BBX 13 11 1 -1
BITMAP
1040
2020
4C90
4090
9E88
8CE8
9288
5290
4C90
2020
1040
ENDCHAR
STARTCHAR 321C
ENCODING 12828
SWIDTH 1008 0
DWIDTH 14 0
BBX 13 13 1 -2
BITMAP
2020
4010
4F90
8208
8508
98C8
8008
BFE8
8208
8208
4210
4210
2020
ENDCHAR
STARTCHAR 3260
ENCODING 12896
SWIDTH 1008 0
DWIDTH 14 0
BBX 13 13 1 -2
BITMAP
0700
18C0
2020
4010
4F10
8088
8088
8088
4090
4010
2020
18C0
0700
ENDCHAR
STARTCHAR 3261
ENCODING 12897
SWIDTH 1008 0
DWIDTH 14 0
BBX 13 13 1 -2
BITMAP
0700
18C0
2020
4010
4810
8808
8808
8808
4790
4010
2020
18C0
0700
ENDCHAR
STARTCHAR 3262
ENCODING 12898
SWIDTH 1008 0
DWIDTH 14 0
BBX 13 13 1 -2
BITMAP
0700
18C0
2020
4010
4790
8808
8808
8808
4790
4010
2020
18C0
0700
ENDCHAR
STARTCHAR 3263
ENCODING 12899
SWIDTH 1008 0
DWIDTH 14 0
BBX 13 13 1 -2
BITMAP
0700
18C0
2020
4010
4F10
8088
8708
8808
4790
4010
2020
18C0
0700
ENDCHAR
STARTCHAR 3264
ENCODING 12900
SWIDTH 1008 0
DWIDTH 14 0
BBX 13 13 1 -2
BITMAP
0700
18C0
2020
4010
4F90
8888
8888
8888
4F90
4010
2020
18C0
0700
ENDCHAR
STARTCHAR 3265
ENCODING 12901
SWIDTH 1008 0
DWIDTH 14 0
BBX 13 13 1 -2
BITMAP
0700
18C0
2020
4010
4890
8F88
8888
8888
4710
4010
2020
18C0
0700
ENDCHAR
STARTCHAR 3266
ENCODING 12902
SWIDTH 1008 0
DWIDTH 14 0
BBX 13 13 1 -2
BITMAP
0700
18C0
2020
4010
4210
8208
8508
8888
5050
4010
2020
18C0
0700
ENDCHAR
STARTCHAR 3267
ENCODING 12903
SWIDTH 1008 0
DWIDTH 14 0
BBX 13 13 1 -2
BITMAP
0700
18C0
2020
4010
4710
8888
8888
8888
4710
4010
2020
18C0
0700
ENDCHAR
STARTCHAR 3268
ENCODING 12904
SWIDTH 1008 0
DWIDTH 14 0
BBX 13 13 1 -2
BITMAP
0700
18C0
2020
4010
4F90
8208
8208
8508
58D0
4010
2020
18C0
0700
ENDCHAR
STARTCHAR 3269
ENCODING 12905
SWIDTH 1008 0
DWIDTH 14 0
BBX 13 13 1 -2
BITMAP
0700
18C0
2020
4710
4010
8F88
8208
8508
58D0
4010
2020
18C0
0700
ENDCHAR
STARTCHAR 326A
ENCODING 12906
SWIDTH 1008 0
DWIDTH 14 0
BBX 13 13 1 -2
BITMAP
0700
18C0
2020
4010
4F10
8088
8F88
8088
4090
4010
2020
18C0
0700
ENDCHAR
STARTCHAR 326B
ENCODING 12907
SWIDTH 1008 0
DWIDTH 14 0
BBX 13 13 1 -2
BITMAP
0700
18C0
2020
4010
4790
8808
8F88
8808
4790
4010
2020
18C0
0700
ENDCHAR
STARTCHAR 326C
ENCODING 12908
SWIDTH 1008 0
DWIDTH 14 0
BBX 13 13 1 -2
BITMAP
0700
18C0
2020
4010
4F90
8508
8508
8508
4F90
4010
2020
18C0
0700
ENDCHAR
STARTCHAR 326D
ENCODING 12909
SWIDTH 1008 0
DWIDTH 14 0
BBX 13 13 1 -2
BITMAP
0700
18C0
2020
4710
4010
9FC8
8008
8708
4890
4710
2020
18C0
0700
ENDCHAR
STARTCHAR 326E
ENCODING 12910
SWIDTH 1008 0
DWIDTH 14 0
BBX 13 13 1 -2
BITMAP
0700
18C0
2020
5E90
4290
8288
82E8
8488
5890
4090
2020
18C0
0700
ENDCHAR
STARTCHAR 326F
ENCODING 12911
SWIDTH 1008 0
DWIDTH 14 0
BBX 13 13 1 -2
BITMAP
0700
18C0
2020
5090
5090
9088
90E8
9088
4E90
4090
2020
18C0
0700
ENDCHAR
STARTCHAR 3270
ENCODING 12912
SWIDTH 1008 0
DWIDTH 14 0
BBX 13 13 1 -2
BITMAP
0700
18C0
2020
4E90
5090
9088
90E8
9088
4E90
4090
2020
18C0
0700
ENDCHAR
STARTCHAR 3271
ENCODING 12913
SWIDTH 1008 0
DWIDTH 14 0
BBX 13 13 1 -2
BITMAP
0700
18C0
2020
5C90
4290
8C88
90E8
9088
4E90
4090
2020
18C0
0700
ENDCHAR
STARTCHAR 3272
ENCODING 12914
SWIDTH 1008 0
DWIDTH 14 0
BBX 13 13 1 -2
BITMAP
0700
18C0
2020
5E90
5290
9288
92E8
9288
5E90
4090
2020
18C0
0700
ENDCHAR
STARTCHAR 3273
ENCODING 12915
SWIDTH 1008 0
DWIDTH 14 0
BBX 13 13 1 -2
BITMAP
0700
18C0
2020
5290
5290
9E88
92E8
9288
4C90
4090
2020
18C0
0700
ENDCHAR
STARTCHAR 3274
ENCODING 12916
SWIDTH 1008 0
DWIDTH 14 0
BBX 13 13 1 -2
BITMAP
0700
18C0
2020
4490
4490
8488
8AE8
8A88
5290
4090
2020
18C0
0700
ENDCHAR
STARTCHAR 3275
ENCODING 12917
SWIDTH 1008 0
DWIDTH 14 0
BBX 13 13 1 -2
BITMAP
0700
18C0
2020
4C90
5290
9288
92E8
9288
4C90
4090
2020
18C0
0700
ENDCHAR
STARTCHAR 3276
ENCODING 12918
SWIDTH 1008 0
DWIDTH 14 0
BBX 13 13 1 -2
BITMAP
0700
18C0
2020
5E90
4490
8488
8AE8
8A88
5290
4090
2020
18C0
0700
ENDCHAR
STARTCHAR 3277
ENCODING 12919
SWIDTH 1008 0
DWIDTH 14 0
BBX 13 13 1 -2
BITMAP
0700
18C0
2020
4C90
4090
9E88
84E8
8A88
5290
4090
2020
18C0
0700
ENDCHAR
STARTCHAR 3278
ENCODING 12920
SWIDTH 1008 0
DWIDTH 14 0
BBX 13 13 1 -2
BITMAP
0700
18C0
2020
5E90
4290
9E88
82E8
8488
5890
4090
2020
18C0
0700
ENDCHAR
STARTCHAR 3279
ENCODING 12921
SWIDTH 1008 0
DWIDTH 14 0
BBX 13 13 1 -2
BITMAP
0700
18C0
2020
4E90
5090
9E88
90E8
9088
4E90
4090
2020
18C0
0700
ENDCHAR
STARTCHAR 327A
ENCODING 12922
SWIDTH 1008 0
DWIDTH 14 0
BBX 13 13 1 -2
BITMAP
0700
18C0
2020
7E90
4090
9488
94E8
9488
7E90
4090
2020
18C0
0700
ENDCHAR
STARTCHAR 327B
ENCODING 12923
SWIDTH 1008 0
DWIDTH 14 0
BBX 13 13 1 -2
BITMAP
0700
18C0
2020
4C90
4090
9E88
8CE8
9288
5290
4C90
2020
18C0
0700
ENDCHAR
STARTCHAR 327F
ENCODING 12927
SWIDTH 1008 0
DWIDTH 14 0
BBX 12 13 1 -1
BITMAP
0F00
30C0
4020
4010
8910
8A00
EC70
0A10
8910
8020
4020
30C0
0F00
ENDCHAR
STARTCHAR 3380
ENCODING 13184
SWIDTH 1008 0
DWIDTH 14 0
BBX 11 11 2 0
BITMAP
0080
0080
0080
F140
8940
8940
89C0
8A20
F220
8220
8000
ENDCHAR
STARTCHAR 3381
ENCODING 13185
SWIDTH 1008 0
DWIDTH 14 0
BBX 11 10 2 0
BITMAP
0080
0080
0080
F140
8940
8940
89C0
8A20
8A20
8A20
ENDCHAR
STARTCHAR 3382
ENCODING 13186
SWIDTH 1008 0
DWIDTH 14 0
BBX 12 11 1 0
BITMAP
0040
0040
0040
24A0
24A0
24A0
48E0
4910
7B10
8510
8000
ENDCHAR
STARTCHAR 3383
ENCODING 13187
SWIDTH 1008 0
DWIDTH 14 0
BBX 11 10 2 0
BITMAP
0080
0080
0080
D140
A940
A940
A9C0
AA20
AA20
AA20
ENDCHAR
STARTCHAR 3384
ENCODING 13188
SWIDTH 1008 0
DWIDTH 14 0
BBX 11 10 2 0
BITMAP
8080
8080
8080
8940
9140
A140
C1C0
A220
9220
8A20
ENDCHAR
STARTCHAR 3388
ENCODING 13192
SWIDTH 1008 0
DWIDTH 14 0
BBX 12 10 1 0
BITMAP
0010
0010
0010
6310
9490
8090
8390
8490
9490
6350
ENDCHAR
STARTCHAR 3389
ENCODING 13193
SWIDTH 1008 0
DWIDTH 14 0
BBX 13 10 1 0
BITMAP
8008
8008
8008
96C8
A928
C828
C8E8
A928
A928
96D8
ENDCHAR
STARTCHAR 338A
ENCODING 13194
SWIDTH 1008 0
DWIDTH 14 0
BBX 11 11 2 0
BITMAP
03E0
0200
0200
F200
8BC0
8A00
8A00
8A00
F200
8200
8000
ENDCHAR
STARTCHAR 338B
ENCODING 13195
SWIDTH 1008 0
DWIDTH 14 0
BBX 11 10 2 0
BITMAP
03E0
0200
0200
F200
8BC0
8A00
8A00
8A00
8A00
8A00
ENDCHAR
STARTCHAR 338C
ENCODING 13196
SWIDTH 1008 0
DWIDTH 14 0
BBX 13 11 1 0
BITMAP
00F8
0080
0080
2480
24F0
2480
4880
4880
7A80
8480
8000
ENDCHAR
STARTCHAR 338D
ENCODING 13197
SWIDTH 1008 0
DWIDTH 14 0
BBX 12 8 1 3
BITMAP
24F0
2510
4910
4910
48F0
B410
8110
80E0
ENDCHAR
STARTCHAR 338E
ENCODING 13198
SWIDTH 1008 0
DWIDTH 14 0
BBX 11 8 2 3
BITMAP
D1E0
AA20
AA20
AA20
A9E0
A820
AA20
01C0
ENDCHAR
STARTCHAR 338F
ENCODING 13199
SWIDTH 1008 0
DWIDTH 14 0
BBX 11 11 2 0
BITMAP
8000
8000
8000
89E0
9220
A220
C220
A1E0
9020
8A20
01C0
ENDCHAR
STARTCHAR 3390
ENCODING 13200
SWIDTH 1008 0
DWIDTH 14 0
BBX 11 10 2 0
BITMAP
8800
8800
8800
8BE0
F820
8840
8880
8900
8A00
8BE0
ENDCHAR
STARTCHAR 3391
ENCODING 13201
SWIDTH 1008 0
DWIDTH 14 0
BBX 13 10 1 0
BITMAP
8480
8480
8480
94B8
A488
C788
A490
A490
94A0
94B8
ENDCHAR
STARTCHAR 3392
ENCODING 13202
SWIDTH 1008 0
DWIDTH 14 0
BBX 13 10 1 0
BITMAP
8A40
8A40
DA40
DA78
DBC8
AA48
AA50
AA50
8A60
8A78
ENDCHAR
STARTCHAR 3393
ENCODING 13203
SWIDTH 1008 0
DWIDTH 14 0
BBX 13 10 1 0
BITMAP
6480
9480
9480
84B8
8788
BC88
9490
9490
94A0
64B8
ENDCHAR
STARTCHAR 3394
ENCODING 13204
SWIDTH 1008 0
DWIDTH 14 0
BBX 13 10 1 0
BITMAP
FC80
2480
2480
24B8
2788
2488
2490
2490
24A0
24B8
ENDCHAR
STARTCHAR 3395
ENCODING 13205
SWIDTH 1008 0
DWIDTH 14 0
BBX 12 11 1 0
BITMAP
0020
0050
0050
2490
24A0
48A0
48C0
4880
B550
8220
8000
ENDCHAR
STARTCHAR 3396
ENCODING 13206
SWIDTH 1008 0
DWIDTH 14 0
BBX 11 10 2 0
BITMAP
0040
00A0
00A0
D120
A940
A940
A980
A900
AAA0
AC40
ENDCHAR
STARTCHAR 3397
ENCODING 13207
SWIDTH 1008 0
DWIDTH 14 0
BBX 10 10 2 0
BITMAP
1080
1140
1140
7240
9280
9280
9300
9200
9540
6880
ENDCHAR
STARTCHAR 3398
ENCODING 13208
SWIDTH 1008 0
DWIDTH 14 0
BBX 11 10 2 0
BITMAP
8040
80A0
80A0
8920
9140
A140
C180
A100
92A0
8C40
ENDCHAR
STARTCHAR 3399
ENCODING 13209
SWIDTH 1008 0
DWIDTH 14 0
BBX 10 10 3 0
BITMAP
3000
4000
4000
F680
4540
4540
4540
4540
4540
4540
ENDCHAR
STARTCHAR 339A
ENCODING 13210
SWIDTH 1008 0
DWIDTH 14 0
BBX 11 7 2 3
BITMAP
F340
8AA0
8AA0
8AA0
8AA0
8AA0
8AA0
ENDCHAR
STARTCHAR 339B
ENCODING 13211
SWIDTH 1008 0
DWIDTH 14 0
BBX 12 8 1 3
BITMAP
25A0
2550
4950
4950
4B50
B550
8150
8000
ENDCHAR
STARTCHAR 339C
ENCODING 13212
SWIDTH 1008 0
DWIDTH 14 0
BBX 11 7 2 3
BITMAP
D340
AAA0
AAA0
AAA0
AAA0
AAA0
AAA0
ENDCHAR
STARTCHAR 339D
ENCODING 13213
SWIDTH 1008 0
DWIDTH 14 0
BBX 11 7 2 3
BITMAP
7340
8AA0
82A0
82A0
82A0
8AA0
72A0
ENDCHAR
STARTCHAR 339E
ENCODING 13214
SWIDTH 1008 0
DWIDTH 14 0
BBX 11 10 2 0
BITMAP
8000
8000
8000
8B40
92A0
A2A0
E2A0
92A0
8AA0
86A0
ENDCHAR
STARTCHAR 339F
ENCODING 13215
SWIDTH 1008 0
DWIDTH 14 0
BBX 13 10 1 0
BITMAP
0030
0008
0010
D360
AAB8
AAA0
AAA0
AAA0
AAA0
AAA0
ENDCHAR
STARTCHAR 33A0
ENCODING 13216
SWIDTH 1008 0
DWIDTH 14 0
BBX 13 10 1 0
BITMAP
0030
0008
0010
66A0
9578
8540
8540
8540
9540
6540
ENDCHAR
STARTCHAR 33A1
ENCODING 13217
SWIDTH 1008 0
DWIDTH 14 0
BBX 11 10 3 0
BITMAP
00C0
0020
0040
EC80
92E0
9200
9200
9200
9200
9200
ENDCHAR
STARTCHAR 33A2
ENCODING 13218
SWIDTH 1008 0
DWIDTH 14 0
BBX 13 10 1 0
BITMAP
8030
8008
8010
8B60
92B8
A2A0
E2A0
92A0
8AA0
86A0
ENDCHAR
STARTCHAR 33A3
ENCODING 13219
SWIDTH 1008 0
DWIDTH 14 0
BBX 13 10 1 0
BITMAP
0030
0008
0030
D348
AAB0
AAA0
AAA0
AAA0
AAA0
AAA0
ENDCHAR
STARTCHAR 33A4
ENCODING 13220
SWIDTH 1008 0
DWIDTH 14 0
BBX 13 10 1 0
BITMAP
0030
0008
0030
6688
9570
8540
8540
8540
9540
6540
ENDCHAR
STARTCHAR 33A5
ENCODING 13221
SWIDTH 1008 0
DWIDTH 14 0
BBX 11 10 3 0
BITMAP
00C0
0020
00C0
EC20
92C0
9200
9200
9200
9200
9200
ENDCHAR
STARTCHAR 33A6
ENCODING 13222
SWIDTH 1008 0
DWIDTH 14 0
BBX 12 10 2 0
BITMAP
8060
8010
8060
8E90
9560
A540
C540
A540
9540
8D40
ENDCHAR
STARTCHAR 33A7
ENCODING 13223
SWIDTH 1008 0
DWIDTH 14 0
BBX 13 12 1 -1
BITMAP
0080
0080
0080
0080
D130
A948
A920
A910
AA08
AA48
AA30
0200
ENDCHAR
STARTCHAR 33A8
ENCODING 13224
SWIDTH 1008 0
DWIDTH 14 0
BBX 13 12 1 -1
BITMAP
0080
0090
0088
0108
D170
A998
A940
A920
AA10
AA90
AA60
0200
ENDCHAR
STARTCHAR 33A9
ENCODING 13225
SWIDTH 1008 0
DWIDTH 14 0
BBX 11 10 2 0
BITMAP
F000
8800
8800
8B80
8C40
F040
83C0
8440
8440
83A0
ENDCHAR
STARTCHAR 33AA
ENCODING 13226
SWIDTH 1008 0
DWIDTH 14 0
BBX 13 10 1 0
BITMAP
8E00
8900
8900
9960
A990
CE10
C870
A890
A890
9868
ENDCHAR
STARTCHAR 33AB
ENCODING 13227
SWIDTH 1008 0
DWIDTH 14 0
BBX 13 10 1 0
BITMAP
8B80
8A40
DA40
DA70
DA48
AB88
AA38
AA48
8A48
8A38
ENDCHAR
STARTCHAR 33AC
ENCODING 13228
SWIDTH 1008 0
DWIDTH 14 0
BBX 13 10 1 0
BITMAP
6700
9480
9480
84B0
84C8
BF08
9438
9448
9448
7438
ENDCHAR
STARTCHAR 33AD
ENCODING 13229
SWIDTH 1008 0
DWIDTH 14 0
BBX 12 10 1 0
BITMAP
0010
0010
0010
AC70
D290
8290
8E90
9290
9290
8D70
ENDCHAR
STARTCHAR 33AE
ENCODING 13230
SWIDTH 1008 0
DWIDTH 14 0
BBX 13 13 1 -2
BITMAP
0020
B820
C4E0
9D20
A520
9EE0
0038
01C0
0E38
7040
0030
0008
0070
ENDCHAR
STARTCHAR 33AF
ENCODING 13231
SWIDTH 1008 0
DWIDTH 14 0
BBX 13 13 1 -2
BITMAP
0020
B820
C4E0
9D20
A520
9EE0
0070
0388
1CD0
E118
00C0
0020
01C0
ENDCHAR
STARTCHAR 33B0
ENCODING 13232
SWIDTH 1008 0
DWIDTH 14 0
BBX 11 8 2 3
BITMAP
F1C0
8A20
8900
88C0
8820
F220
81C0
8000
ENDCHAR
STARTCHAR 33B1
ENCODING 13233
SWIDTH 1008 0
DWIDTH 14 0
BBX 11 7 2 3
BITMAP
F1C0
8A20
8900
88C0
8820
8A20
89C0
ENDCHAR
STARTCHAR 33B2
ENCODING 13234
SWIDTH 1008 0
DWIDTH 14 0
BBX 12 8 1 3
BITMAP
24E0
2510
2480
4860
4810
7710
80E0
8000
ENDCHAR
STARTCHAR 33B3
ENCODING 13235
SWIDTH 1008 0
DWIDTH 14 0
BBX 11 7 2 3
BITMAP
D1C0
AA20
A900
A8C0
A820
AA20
A9C0
ENDCHAR
STARTCHAR 33B4
ENCODING 13236
SWIDTH 1008 0
DWIDTH 14 0
BBX 11 11 2 0
BITMAP
0220
0220
0220
F220
8940
8940
8940
8880
F080
8080
8000
ENDCHAR
STARTCHAR 33B5
ENCODING 13237
SWIDTH 1008 0
DWIDTH 14 0
BBX 11 10 2 0
BITMAP
0220
0220
0220
F220
8940
8940
8940
8880
8880
8880
ENDCHAR
STARTCHAR 33B6
ENCODING 13238
SWIDTH 1008 0
DWIDTH 14 0
BBX 12 11 1 0
BITMAP
0110
0110
0110
2510
24A0
48A0
48A0
4A40
B440
8040
8000
ENDCHAR
STARTCHAR 33B7
ENCODING 13239
SWIDTH 1008 0
DWIDTH 14 0
BBX 11 10 2 0
BITMAP
0220
0220
0220
D220
A940
A940
A940
A880
A880
A880
ENDCHAR
STARTCHAR 33B8
ENCODING 13240
SWIDTH 1008 0
DWIDTH 14 0
BBX 11 10 2 0
BITMAP
8220
8220
8220
8A20
9140
A140
C140
A080
9080
8880
ENDCHAR
STARTCHAR 33B9
ENCODING 13241
SWIDTH 1008 0
DWIDTH 14 0
BBX 11 10 2 0
BITMAP
8A20
8A20
DA20
DA20
D940
A940
A940
A880
8880
8880
ENDCHAR
STARTCHAR 33BA
ENCODING 13242
SWIDTH 1008 0
DWIDTH 14 0
BBX 13 11 1 0
BITMAP
0248
0248
0248
F248
8AA8
8AA8
89B0
8910
F110
8110
8000
ENDCHAR
STARTCHAR 33BB
ENCODING 13243
SWIDTH 1008 0
DWIDTH 14 0
BBX 13 10 1 0
BITMAP
0248
0248
0248
F248
8AA8
8AA8
89B0
8910
8910
8910
ENDCHAR
STARTCHAR 33BC
ENCODING 13244
SWIDTH 1008 0
DWIDTH 14 0
BBX 13 11 1 0
BITMAP
0248
0248
0248
4A48
4AA8
4AA8
49B0
4910
B510
8110
8000
ENDCHAR
STARTCHAR 33BD
ENCODING 13245
SWIDTH 1008 0
DWIDTH 14 0
BBX 13 10 1 0
BITMAP
0248
0248
0248
D248
AAA8
AAA8
A9B0
A910
A910
A910
ENDCHAR
STARTCHAR 33BE
ENCODING 13246
SWIDTH 1008 0
DWIDTH 14 0
BBX 12 10 2 0
BITMAP
8490
8490
8490
8C90
9550
A550
C360
A220
9220
8A20
ENDCHAR
STARTCHAR 33BF
ENCODING 13247
SWIDTH 1008 0
DWIDTH 14 0
BBX 13 10 1 0
BITMAP
8A48
8A48
DA48
DA48
AAA8
AAA8
A9B0
8910
8910
8910
ENDCHAR
STARTCHAR 33C0
ENCODING 13248
SWIDTH 1008 0
DWIDTH 14 0
BBX 13 10 1 0
BITMAP
80E0
8110
8110
8910
9110
A110
C0A0
A0A0
90A0
8BB8
ENDCHAR
STARTCHAR 33C1
ENCODING 13249
SWIDTH 1008 0
DWIDTH 14 0
BBX 13 10 1 0
BITMAP
88E0
8910
D910
D910
D910
A910
A8A0
A8A0
88A0
8BB8
ENDCHAR
STARTCHAR 33C2
ENCODING 13250
SWIDTH 1008 0
DWIDTH 14 0
BBX 13 7 1 3
BITMAP
6340
92A0
12A0
72A0
92A0
92A0
6AA8
ENDCHAR
STARTCHAR 33C3
ENCODING 13251
SWIDTH 1008 0
DWIDTH 14 0
BBX 11 11 2 0
BITMAP
F000
8800
8800
89E0
F220
8A20
8A20
8A20
89E0
F020
0020
ENDCHAR
STARTCHAR 33C4
ENCODING 13252
SWIDTH 1008 0
DWIDTH 14 0
BBX 11 7 2 3
BITMAP
71C0
8A20
8200
8200
8200
8A20
71C0
ENDCHAR
STARTCHAR 33C5
ENCODING 13253
SWIDTH 1008 0
DWIDTH 14 0
BBX 11 10 2 0
BITMAP
0020
0020
0020
71E0
8A20
8220
8220
8220
8A20
71E0
ENDCHAR
STARTCHAR 33C6
ENCODING 13254
SWIDTH 1008 0
DWIDTH 14 0
BBX 13 13 1 -2
BITMAP
0800
4800
A800
8C00
9400
94B8
9548
B648
5648
2538
2488
2448
2030
ENDCHAR
STARTCHAR 33C7
ENCODING 13255
SWIDTH 1008 0
DWIDTH 14 0
BBX 13 11 1 -1
BITMAP
3800
4400
8000
8000
80C0
8120
8120
8120
8120
4528
38C8
ENDCHAR
STARTCHAR 33C8
ENCODING 13256
SWIDTH 1008 0
DWIDTH 14 0
BBX 11 10 2 0
BITMAP
0BC0
0A20
0A20
7A20
8BC0
8A20
8A20
8A20
8A20
7BC0
ENDCHAR
STARTCHAR 33C9
ENCODING 13257
SWIDTH 1008 0
DWIDTH 14 0
BBX 12 11 2 0
BITMAP
7000
8800
8800
8110
8110
9CA0
88A0
8840
8840
7080
0300
ENDCHAR
STARTCHAR 33CA
ENCODING 13258
SWIDTH 1008 0
DWIDTH 14 0
BBX 11 10 2 0
BITMAP
8000
8000
8000
F180
8A40
8840
89C0
8A40
8A40
89A0
ENDCHAR
STARTCHAR 33CF
ENCODING 13263
SWIDTH 1008 0
DWIDTH 14 0
BBX 11 10 2 0
BITMAP
8000
8080
8080
8BE0
9080
A080
C080
A080
9080
8860
ENDCHAR
STARTCHAR 33D0
ENCODING 13264
SWIDTH 1008 0
DWIDTH 14 0
BBX 10 10 2 0
BITMAP
8000
8000
8000
9D80
9240
9240
9240
9240
9240
9240
ENDCHAR
STARTCHAR 33D3
ENCODING 13267
SWIDTH 1008 0
DWIDTH 14 0
BBX 9 10 3 0
BITMAP
8000
8000
8000
9080
8900
8600
8600
8900
9080
9080
ENDCHAR
STARTCHAR 33D6
ENCODING 13270
SWIDTH 1008 0
DWIDTH 14 0
BBX 12 10 1 0
BITMAP
0010
0010
0010
D190
AA50
AA50
AA50
AA50
AA50
A990
ENDCHAR
STARTCHAR 33D8
ENCODING 13272
SWIDTH 1008 0
DWIDTH 14 0
BBX 13 8 1 3
BITMAP
E340
92A0
92A0
92A0
92A0
E2A0
8AA8
8000
ENDCHAR
STARTCHAR 33DB
ENCODING 13275
SWIDTH 1008 0
DWIDTH 14 0
BBX 11 7 2 3
BITMAP
7160
8980
4100
3100
0900
8900
7100
ENDCHAR
STARTCHAR 33DC
ENCODING 13276
SWIDTH 1008 0
DWIDTH 14 0
BBX 11 10 2 0
BITMAP
7000
8800
8000
8220
6220
1220
0940
0940
8880
7080
ENDCHAR
STARTCHAR 33DD
ENCODING 13277
SWIDTH 1008 0
DWIDTH 14 0
BBX 12 10 1 0
BITMAP
9280
9280
9280
92E0
AA90
AA90
6C90
4490
4490
44E0
ENDCHAR
STARTCHAR 4E00
ENCODING 19968
SWIDTH 1008 0
DWIDTH 14 0
BBX 13 1 1 4
BITMAP
FFF8
ENDCHAR
STARTCHAR 4E01
ENCODING 19969
SWIDTH 1008 0
DWIDTH 14 0
BBX 13 12 1 -1
BITMAP
FFF8
0200
0200
0200
0200
0200
0200
0200
0200
0200
0200
0E00
ENDCHAR
STARTCHAR 4E03
ENCODING 19971
SWIDTH 1008 0
DWIDTH 14 0
BBX 13 13 1 -2
BITMAP
0800
0800
0800
0800
0838
09C0
1E00
E800
0800
0800
0800
0800
07F0
ENDCHAR
STARTCHAR 4E07
ENCODING 19975
SWIDTH 1008 0
DWIDTH 14 0
BBX 13 12 1 -1
BITMAP
FFF8
0400
0400
0400
07E0
0420
0420
0820
0820
1020
2020
40C0
ENDCHAR
STARTCHAR 4E08
ENCODING 19976
SWIDTH 1008 0
DWIDTH 14 0
BBX 13 13 1 -2
BITMAP
0200
0200
0200
FFF0
0200
0200
2200
5200
8A00
0400
0B00
30C0
C038
ENDCHAR
STARTCHAR 4E09
ENCODING 19977
SWIDTH 1008 0
DWIDTH 14 0
BBX 13 11 1 -1
BITMAP
7FF0
0000
0000
0000
0000
3FE0
0000
0000
0000
0000
FFF8
ENDCHAR
STARTCHAR 4E0A
ENCODING 19978
SWIDTH 1008 0
DWIDTH 14 0
BBX 13 13 1 -2
BITMAP
0200
0200
0200
0200
0200
03F0
0200
0200
0200
0200
0200
0200
FFF8
ENDCHAR
STARTCHAR 4E0B
ENCODING 19979
SWIDTH 1008 0
DWIDTH 14 0
BBX 13 12 1 -1
BITMAP
FFF8
0200
0200
0300
02C0
0220
0200
0200
0200
0200
0200
0200
ENDCHAR
STARTCHAR 4E0D
ENCODING 19981
SWIDTH 1008 0
DWIDTH 14 0
BBX 12 12 1 -1
BITMAP
7FF0
0200
0600
0680
0A40
1220
2210
C210
0200
0200
0200
0200
ENDCHAR
STARTCHAR 4E11
ENCODING 19985
SWIDTH 1008 0
DWIDTH 14 0
BBX 13 12 1 -1
BITMAP
7FC0
0840
0840
0840
0840
FFF8
1080
1080
1080
1080
1080
FFF8
ENDCHAR
STARTCHAR 4E14
ENCODING 19988
SWIDTH 1008 0
DWIDTH 14 0
BBX 12 12 1 -1
BITMAP
3FC0
2040
2040
2040
3FC0
2040
2040
3FC0
2040
2040
2040
FFF0
ENDCHAR
STARTCHAR 4E15
ENCODING 19989
SWIDTH 1008 0
DWIDTH 14 0
BBX 13 12 1 -1
BITMAP
FFF8
0080
0100
0200
0660
1A10
E208
0200
0200
0200
0000
FFF8
ENDCHAR
STARTCHAR 4E16
ENCODING 19990
SWIDTH 1008 0
DWIDTH 14 0
BBX 13 13 1 -2
BITMAP
2240
2240
2240
2240
FFF8
2240
2240
2240
23C0
2000
2000
2000
3FF0
ENDCHAR
STARTCHAR 4E18
ENCODING 19992
SWIDTH 1008 0
DWIDTH 14 0
BBX 13 13 1 -2
BITMAP
0060
0380
3C00
2000
2000
3FF0
2080
2080
2080
2080
2080
2080
FFF8
ENDCHAR
STARTCHAR 4E19
ENCODING 19993
SWIDTH 1008 0
DWIDTH 14 0
BBX 13 13 1 -2
BITMAP
FFF8
0200
0200
7FF0
4210
4610
4510
4890
5050
4010
4010
4010
4070
ENDCHAR
STARTCHAR 4E1E
ENCODING 19998
SWIDTH 1008 0
DWIDTH 14 0
BBX 13 13 1 -2
BITMAP
3FC0
0080
0100
0310
FAA0
0AC0
1240
2220
4210
8208
0600
0000
7FF0
ENDCHAR
STARTCHAR 4E1F
ENCODING 19999
SWIDTH 1008 0
DWIDTH 14 0
BBX 13 13 1 -2
BITMAP
0070
0780
7A00
0200
3FE0
0200
0200
FFF8
0400
0840
0820
11F0
7E10
ENDCHAR
STARTCHAR 4E26
ENCODING 20006
SWIDTH 1008 0
DWIDTH 14 0
BBX 13 13 1 -2
BITMAP
2020
1040
0880
7FF0
0880
4890
4890
28A0
28A0
28C0
0880
0880
FFF8
ENDCHAR
STARTCHAR 4E2B
ENCODING 20011
SWIDTH 1008 0
DWIDTH 14 0
BBX 11 13 2 -2
BITMAP
8020
4040
2080
1100
0A00
0400
0400
0400
0400
0400
0400
0400
0400
ENDCHAR
STARTCHAR 4E2D
ENCODING 20013
SWIDTH 1008 0
DWIDTH 14 0
BBX 11 13 2 -2
BITMAP
0400
0400
FFE0
8420
8420
8420
8420
FFE0
0400
0400
0400
0400
0400
ENDCHAR
STARTCHAR 4E30
ENCODING 20016
SWIDTH 1008 0
DWIDTH 14 0
BBX 13 13 1 -2
BITMAP
0200
0200
7FF0
0200
0200
3FE0
0200
0200
FFF8
0200
0200
0200
0200
ENDCHAR
STARTCHAR 4E31
ENCODING 20017
SWIDTH 1008 0
DWIDTH 14 0
BBX 12 13 1 -2
BITMAP
0880
0880
4890
4890
4890
4890
4890
78F0
0880
1080
1080
2080
C080
ENDCHAR
STARTCHAR 4E32
ENCODING 20018
SWIDTH 1008 0
DWIDTH 14 0
BBX 11 13 2 -2
BITMAP
0400
0400
7FC0
4440
4440
7FC0
0400
FFE0
8420
8420
FFE0
0400
0400
ENDCHAR
STARTCHAR 4E38
ENCODING 20024
SWIDTH 1008 0
DWIDTH 14 0
BBX 13 13 1 -2
BITMAP
0400
0400
0400
7FC0
0440
0440
3440
0840
0C40
1240
2048
4048
8078
ENDCHAR
STARTCHAR 4E39
ENCODING 20025
SWIDTH 1008 0
DWIDTH 14 0
BBX 13 13 1 -2
BITMAP
3FE0
2020
2420
2220
2220
2020
FFF8
2020
2020
2020
4020
4020
80E0
ENDCHAR
STARTCHAR 4E3B
ENCODING 20027
SWIDTH 1008 0
DWIDTH 14 0
BBX 13 13 1 -2
BITMAP
0400
0200
7FF0
0200
0200
0200
0200
3FE0
0200
0200
0200
0200
FFF8
ENDCHAR
STARTCHAR 4E42
ENCODING 20034
SWIDTH 1008 0
DWIDTH 14 0
BBX 13 13 1 -2
BITMAP
1020
1020
3020
4840
0840
0880
0480
0500
0200
0500
0880
3060
C018
ENDCHAR
STARTCHAR 4E43
ENCODING 20035
SWIDTH 1008 0
DWIDTH 14 0
BBX 12 12 1 -1
BITMAP
7FC0
0840
0840
0880
0880
09F0
1110
1010
2010
2010
4020
80C0
ENDCHAR
STARTCHAR 4E45
ENCODING 20037
SWIDTH 1008 0
DWIDTH 14 0
BBX 13 13 1 -2
BITMAP
0800
0800
1F80
1080
2080
4100
0100
0200
0300
0480
0840
3020
C018
ENDCHAR
STARTCHAR 4E4B
ENCODING 20043
SWIDTH 1008 0
DWIDTH 14 0
BBX 13 13 1 -2
BITMAP
0200
0200
0200
7FE0
0020
0040
0080
0100
0600
2800
3000
4C00
83F8
ENDCHAR
STARTCHAR 4E4D
ENCODING 20045
SWIDTH 1008 0
DWIDTH 14 0
BBX 13 13 1 -2
BITMAP
1000
1000
3FF8
2400
4400
87E0
0400
0400
07F0
0400
0400
0400
0400
ENDCHAR
ENDFONT
